<svg viewBox="0 0 330 200" xmlns="http://www.w3.org/2000/svg"><g><g><g><g><g><line x1="51.41600036621094" y1="177.95999908447266" x2="46.41600036621094" y2="177.95999908447266" style="visibility: inherit;" fill="rgb(0, 0, 0)" stroke="rgb(204, 204, 204)" stroke-width="1px"></line><line x1="51.41600036621094" y1="161.78181734952062" x2="46.41600036621094" y2="161.78181734952062" style="visibility: inherit;" fill="rgb(0, 0, 0)" stroke="rgb(204, 204, 204)" stroke-width="1px"></line><line x1="51.41600036621094" y1="145.60363561456853" x2="46.41600036621094" y2="145.60363561456853" style="visibility: inherit;" fill="rgb(0, 0, 0)" stroke="rgb(204, 204, 204)" stroke-width="1px"></line><line x1="51.41600036621094" y1="129.4254538796165" x2="46.41600036621094" y2="129.4254538796165" style="visibility: inherit;" fill="rgb(0, 0, 0)" stroke="rgb(204, 204, 204)" stroke-width="1px"></line><line x1="51.41600036621094" y1="113.24727214466444" x2="46.41600036621094" y2="113.24727214466444" style="visibility: inherit;" fill="rgb(0, 0, 0)" stroke="rgb(204, 204, 204)" stroke-width="1px"></line><line x1="51.41600036621094" y1="97.06909040971236" x2="46.41600036621094" y2="97.06909040971236" style="visibility: inherit;" fill="rgb(0, 0, 0)" stroke="rgb(204, 204, 204)" stroke-width="1px"></line><line x1="51.41600036621094" y1="80.89090867476033" x2="46.41600036621094" y2="80.89090867476033" style="visibility: inherit;" fill="rgb(0, 0, 0)" stroke="rgb(204, 204, 204)" stroke-width="1px"></line><line x1="51.41600036621094" y1="64.71272693980826" x2="46.41600036621094" y2="64.71272693980826" style="visibility: inherit;" fill="rgb(0, 0, 0)" stroke="rgb(204, 204, 204)" stroke-width="1px"></line><line x1="51.41600036621094" y1="48.534545204856215" x2="46.41600036621094" y2="48.534545204856215" style="visibility: inherit;" fill="rgb(0, 0, 0)" stroke="rgb(204, 204, 204)" stroke-width="1px"></line><line x1="51.41600036621094" y1="32.35636346990415" x2="46.41600036621094" y2="32.35636346990415" style="visibility: inherit;" fill="rgb(0, 0, 0)" stroke="rgb(204, 204, 204)" stroke-width="1px"></line><line x1="51.41600036621094" y1="16.178181734952062" x2="46.41600036621094" y2="16.178181734952062" style="visibility: inherit;" fill="rgb(0, 0, 0)" stroke="rgb(204, 204, 204)" stroke-width="1px"></line><line x1="51.41600036621094" y1="0" x2="46.41600036621094" y2="0" style="visibility: inherit;" fill="rgb(0, 0, 0)" stroke="rgb(204, 204, 204)" stroke-width="1px"></line></g><g transform="translate(41.41600036621094, 0)"><text style="text-anchor: end; visibility: hidden; font-family: &quot;Helvetica Neue&quot;, sans-serif; font-size: 12px; font-weight: 200;" x="0" y="177.95999908447266" dx="0em" dy="0.3em" fill="rgb(50, 49, 63)" stroke="none" stroke-width="1px">0.55</text><text style="text-anchor: end; visibility: inherit; font-family: &quot;Helvetica Neue&quot;, sans-serif; font-size: 12px; font-weight: 200;" x="0" y="161.78181734952062" dx="0em" dy="0.3em" fill="rgb(50, 49, 63)" stroke="none" stroke-width="1px">0.6</text><text style="text-anchor: end; visibility: hidden; font-family: &quot;Helvetica Neue&quot;, sans-serif; font-size: 12px; font-weight: 200;" x="0" y="145.60363561456853" dx="0em" dy="0.3em" fill="rgb(50, 49, 63)" stroke="none" stroke-width="1px">0.65</text><text style="text-anchor: end; visibility: inherit; font-family: &quot;Helvetica Neue&quot;, sans-serif; font-size: 12px; font-weight: 200;" x="0" y="129.4254538796165" dx="0em" dy="0.3em" fill="rgb(50, 49, 63)" stroke="none" stroke-width="1px">0.7</text><text style="text-anchor: end; visibility: hidden; font-family: &quot;Helvetica Neue&quot;, sans-serif; font-size: 12px; font-weight: 200;" x="0" y="113.24727214466444" dx="0em" dy="0.3em" fill="rgb(50, 49, 63)" stroke="none" stroke-width="1px">0.75</text><text style="text-anchor: end; visibility: inherit; font-family: &quot;Helvetica Neue&quot;, sans-serif; font-size: 12px; font-weight: 200;" x="0" y="97.06909040971236" dx="0em" dy="0.3em" fill="rgb(50, 49, 63)" stroke="none" stroke-width="1px">0.8</text><text style="text-anchor: end; visibility: hidden; font-family: &quot;Helvetica Neue&quot;, sans-serif; font-size: 12px; font-weight: 200;" x="0" y="80.89090867476033" dx="0em" dy="0.3em" fill="rgb(50, 49, 63)" stroke="none" stroke-width="1px">0.85</text><text style="text-anchor: end; visibility: inherit; font-family: &quot;Helvetica Neue&quot;, sans-serif; font-size: 12px; font-weight: 200;" x="0" y="64.71272693980826" dx="0em" dy="0.3em" fill="rgb(50, 49, 63)" stroke="none" stroke-width="1px">0.9</text><text style="text-anchor: end; visibility: hidden; font-family: &quot;Helvetica Neue&quot;, sans-serif; font-size: 12px; font-weight: 200;" x="0" y="48.534545204856215" dx="0em" dy="0.3em" fill="rgb(50, 49, 63)" stroke="none" stroke-width="1px">0.95</text><text style="text-anchor: end; visibility: inherit; font-family: &quot;Helvetica Neue&quot;, sans-serif; font-size: 12px; font-weight: 200;" x="0" y="32.35636346990415" dx="0em" dy="0.3em" fill="rgb(50, 49, 63)" stroke="none" stroke-width="1px">1</text><text style="text-anchor: end; visibility: hidden; font-family: &quot;Helvetica Neue&quot;, sans-serif; font-size: 12px; font-weight: 200;" x="0" y="16.178181734952062" dx="0em" dy="0.3em" fill="rgb(50, 49, 63)" stroke="none" stroke-width="1px">1.05</text><text style="text-anchor: end; visibility: hidden; font-family: &quot;Helvetica Neue&quot;, sans-serif; font-size: 12px; font-weight: 200;" x="0" y="0" dx="0em" dy="0.3em" fill="rgb(50, 49, 63)" stroke="none" stroke-width="1px">1.1</text></g><line x1="51.41600036621094" y1="0" x2="51.41600036621094" y2="177.95999908447266" fill="rgb(0, 0, 0)" stroke="rgb(204, 204, 204)" stroke-width="1px"></line></g></g><g transform="translate(51, 0)" clip-path="url(#clip_0)"><clipPath id="clip_0"><rect width="278" height="177"></rect></clipPath><g><g><g><line x1="0" y1="0" x2="0" y2="177.95999908447266" fill="rgb(0, 0, 0)" stroke="rgb(60, 60, 60)" stroke-width="1px" opacity="0.25"></line><line x1="23.215333302815754" y1="0" x2="23.215333302815754" y2="177.95999908447266" fill="rgb(0, 0, 0)" stroke="rgb(60, 60, 60)" stroke-width="1px" opacity="0.25"></line><line x1="46.43066660563151" y1="0" x2="46.43066660563151" y2="177.95999908447266" fill="rgb(0, 0, 0)" stroke="rgb(60, 60, 60)" stroke-width="1px" opacity="0.25"></line><line x1="69.64599990844727" y1="0" x2="69.64599990844727" y2="177.95999908447266" fill="rgb(0, 0, 0)" stroke="rgb(60, 60, 60)" stroke-width="1px" opacity="0.25"></line><line x1="92.86133321126302" y1="0" x2="92.86133321126302" y2="177.95999908447266" fill="rgb(0, 0, 0)" stroke="rgb(60, 60, 60)" stroke-width="1px" opacity="0.25"></line><line x1="116.07666651407878" y1="0" x2="116.07666651407878" y2="177.95999908447266" fill="rgb(0, 0, 0)" stroke="rgb(60, 60, 60)" stroke-width="1px" opacity="0.25"></line><line x1="139.29199981689453" y1="0" x2="139.29199981689453" y2="177.95999908447266" fill="rgb(0, 0, 0)" stroke="rgb(60, 60, 60)" stroke-width="1px" opacity="0.25"></line><line x1="162.5073331197103" y1="0" x2="162.5073331197103" y2="177.95999908447266" fill="rgb(0, 0, 0)" stroke="rgb(60, 60, 60)" stroke-width="1px" opacity="0.25"></line><line x1="185.72266642252603" y1="0" x2="185.72266642252603" y2="177.95999908447266" fill="rgb(0, 0, 0)" stroke="rgb(60, 60, 60)" stroke-width="1px" opacity="0.25"></line><line x1="208.9379997253418" y1="0" x2="208.9379997253418" y2="177.95999908447266" fill="rgb(0, 0, 0)" stroke="rgb(60, 60, 60)" stroke-width="1px" opacity="0.25"></line><line x1="232.15333302815756" y1="0" x2="232.15333302815756" y2="177.95999908447266" fill="rgb(0, 0, 0)" stroke="rgb(60, 60, 60)" stroke-width="1px" opacity="0.25"></line><line x1="255.3686663309733" y1="0" x2="255.3686663309733" y2="177.95999908447266" fill="rgb(0, 0, 0)" stroke="rgb(60, 60, 60)" stroke-width="1px" opacity="0.25"></line><line x1="278.58399963378906" y1="0" x2="278.58399963378906" y2="177.95999908447266" fill="rgb(0, 0, 0)" stroke="rgb(60, 60, 60)" stroke-width="1px" opacity="0.25"></line></g><g><line x1="0" y1="177.95999908447266" x2="278.58399963378906" y2="177.95999908447266" fill="rgb(0, 0, 0)" stroke="rgb(60, 60, 60)" stroke-width="1px" opacity="0.25"></line><line x1="0" y1="161.78181734952062" x2="278.58399963378906" y2="161.78181734952062" fill="rgb(0, 0, 0)" stroke="rgb(60, 60, 60)" stroke-width="1px" opacity="0.25"></line><line x1="0" y1="145.60363561456853" x2="278.58399963378906" y2="145.60363561456853" fill="rgb(0, 0, 0)" stroke="rgb(60, 60, 60)" stroke-width="1px" opacity="0.25"></line><line x1="0" y1="129.4254538796165" x2="278.58399963378906" y2="129.4254538796165" fill="rgb(0, 0, 0)" stroke="rgb(60, 60, 60)" stroke-width="1px" opacity="0.25"></line><line x1="0" y1="113.24727214466444" x2="278.58399963378906" y2="113.24727214466444" fill="rgb(0, 0, 0)" stroke="rgb(60, 60, 60)" stroke-width="1px" opacity="0.25"></line><line x1="0" y1="97.06909040971236" x2="278.58399963378906" y2="97.06909040971236" fill="rgb(0, 0, 0)" stroke="rgb(60, 60, 60)" stroke-width="1px" opacity="0.25"></line><line x1="0" y1="80.89090867476033" x2="278.58399963378906" y2="80.89090867476033" fill="rgb(0, 0, 0)" stroke="rgb(60, 60, 60)" stroke-width="1px" opacity="0.25"></line><line x1="0" y1="64.71272693980826" x2="278.58399963378906" y2="64.71272693980826" fill="rgb(0, 0, 0)" stroke="rgb(60, 60, 60)" stroke-width="1px" opacity="0.25"></line><line x1="0" y1="48.534545204856215" x2="278.58399963378906" y2="48.534545204856215" fill="rgb(0, 0, 0)" stroke="rgb(60, 60, 60)" stroke-width="1px" opacity="0.25"></line><line x1="0" y1="32.35636346990415" x2="278.58399963378906" y2="32.35636346990415" fill="rgb(0, 0, 0)" stroke="rgb(60, 60, 60)" stroke-width="1px" opacity="0.25"></line><line x1="0" y1="16.178181734952062" x2="278.58399963378906" y2="16.178181734952062" fill="rgb(0, 0, 0)" stroke="rgb(60, 60, 60)" stroke-width="1px" opacity="0.25"></line><line x1="0" y1="0" x2="278.58399963378906" y2="0" fill="rgb(0, 0, 0)" stroke="rgb(60, 60, 60)" stroke-width="1px" opacity="0.25"></line></g></g></g><g><g><line x1="0" y1="355.9199981689453" x2="278.58399963378906" y2="355.9199981689453" fill="rgb(0, 0, 0)" stroke="rgb(153, 153, 153)" stroke-width="1.5px"></line></g></g><g><g><line x1="23.215333302815754" y1="0" x2="23.215333302815754" y2="177.95999908447266" fill="rgb(0, 0, 0)" stroke="rgb(153, 153, 153)" stroke-width="1.5px"></line></g></g><g><g><g><g><g><path style="fill: none;" stroke="rgb(0, 119, 187)" stroke-width="2px" d="M23.215333302815754,95.27823686740771L25.53686663309733,96.7151566196357L27.858399963378908,90.91963432223594L30.179933293660483,86.02724303256963L32.50146662394206,77.18144161993202L34.82299995422363,72.84343029627672L37.14453328450521,72.21631214895672L39.46606661478678,71.8514685842457L41.78759994506836,72.12546594076771L44.10913327534993,66.49327612918003L46.43066660563151,64.69031942033519L48.75219993591308,63.32170026832753L51.07373326619466,62.7447615723388L53.39526659647624,63.222555170372004L55.716799926757815,65.15541574727465L58.03833325703939,65.2494138033922L60.359866587320965,62.93372272141785L62.68139991760254,61.83499546925091L65.00293324788412,61.99870955540999L67.3244665781657,60.402819764379345L69.64599990844727,61.18781126009746L71.96753323872885,61.223175023643606L74.28906656901042,59.98594750618726L76.610599899292,58.85640091858974L78.93213322957357,58.75949978625228L81.25366655985515,58.70135928316543L83.57519989013672,58.2308602199102L85.8967332204183,58.33577582359733L88.21826655069987,58.3019176278119L90.53979988098145,59.20123156305664L92.86133321126302,58.53078398046513L95.1828665415446,57.98330811180725L97.50439987182617,58.477651532479854L99.82593320210775,57.61262176386907L102.14746653238932,57.67441795768215L104.4689998626709,57.711495673290074L106.79053319295248,57.54014276773967L109.11206652323405,57.292123660086574L111.43359985351563,57.57892657608363L113.7551331837972,57.12178669757239L116.07666651407878,58.49315280719803L118.39819984436035,58.880358093030935L120.71973317464193,58.28986010384223L123.0412665049235,57.548346814710186L125.36279983520508,57.39384585590993L127.68433316548665,57.30114528064006L130.00586649576823,56.9551179209044L132.3273998260498,57.909137277721754L134.6489331563314,57.077905987956655L136.97046648661293,56.77277446193676L139.29199981689453,57.122109692094L141.6135331471761,56.944504048883545L143.9350664774577,57.85436907112134L146.25659980773926,57.43225955966804L148.57813313802083,57.663008115193634L150.8996664683024,57.46264263621599L153.221199798584,57.63283807775423L155.54273312886556,58.55777650300887L157.86426645914713,58.725525062500665L160.1857997894287,59.69740295625364L162.5073331197103,59.2641012843433L164.82886644999186,60.50456295175621L167.15039978027343,58.87716852358703L169.471933110555,58.28794636234639L171.7934664408366,58.321619846904696L174.11499977111816,57.954617156336965L176.43653310139973,57.92802278982683L178.75806643168133,57.42805190752375L181.0795997619629,57.66048352390689L183.40113309224446,57.07392110014128L185.72266642252603,57.15759802491088L188.04419975280763,56.96579704857413L190.3657330830892,56.850716462772084L192.68726641337076,56.733260513564645L195.00879974365233,56.614387060672115L197.33033307393393,56.54306298893658L199.6518664042155,56.69387579372571L201.97339973449706,57.07477049116572L204.29493306477863,56.67409339712856L206.61646639506023,56.91770140310328L208.9379997253418,57.11226609005614L211.25953305562336,57.277404785595905L213.58106638590496,57.424887886287834L215.90259971618653,57.416577979966874L218.2241330464681,57.6051992840047L220.54566637674967,57.47636493522894L222.86719970703126,57.59266385943573L225.18873303731283,57.80765057842217L227.5102663675944,57.88824272644597L229.83179969787597,58.22700502982681L232.15333302815756,58.285055047392916L234.47486635843913,58.174685407828406L236.7963996887207,58.35047075528817L239.11793301900227,57.923527817999L241.43946634928386,57.66736205562552L243.76099967956543,57.75566972939991L246.082533009847,57.42143983800371L248.4040663401286,57.31770166990208L250.72559967041016,57.49746590023959L253.04713300069173,57.46012478833792" fill="none"></path></g><g><path style="fill: none;" stroke="rgb(255, 112, 67)" stroke-width="2px" d="M23.215333302815754,143.77264040935256L25.53686663309733,118.22677223884156L27.858399963378908,104.18752711547734L30.179933293660483,94.34665203432694L32.50146662394206,85.93010140904657L34.82299995422363,79.49141064909435L37.14453328450521,74.99352087574864L39.46606661478678,70.89958538179513L41.78759994506836,67.79602184886586L44.10913327534993,65.82877873373836L46.43066660563151,62.92772691918671L48.75219993591308,60.46608662516276L51.07373326619466,58.66013794734086L53.39526659647624,57.266615059394795L55.716799926757815,55.434831571115765L58.03833325703939,53.8382259419313L60.359866587320965,52.673038093157345L62.68139991760254,52.51354833958791L65.00293324788412,51.42190366380429L67.3244665781657,50.268994833279834L69.64599990844727,49.03781503836183L71.96753323872885,48.112395948904634L74.28906656901042,47.76463159323396L76.610599899292,46.850539623364824L78.93213322957357,46.30208721349368L81.25366655985515,46.13899917974268L83.57519989013672,45.667686360322136L85.8967332204183,45.03218287501957L88.21826655069987,44.6301371167518L90.53979988098145,43.89095553884326L92.86133321126302,44.04913585892504L95.1828665415446,43.50085937114946L97.50439987182617,43.13039797165328L99.82593320210775,42.368679201733414L102.14746653238932,41.74566581979144L104.4689998626709,41.33035454991838L106.79053319295248,40.79069905950632L109.11206652323405,40.674383432046994L111.43359985351563,40.148143194294676L113.7551331837972,39.85315067598847L116.07666651407878,39.84213729649434L118.39819984436035,39.524308915654444L120.71973317464193,39.416602952824405L123.0412665049235,39.22749277679665L125.36279983520508,39.13477058041207L127.68433316548665,38.871659598694436L130.00586649576823,38.38182874745368L132.3273998260498,37.90119648204555L134.6489331563314,38.090019606917394L136.97046648661293,38.12032241628617L139.29199981689453,37.412328421144224L141.6135331471761,37.29875237706142L143.9350664774577,37.50032385647748L146.25659980773926,37.040329285262004L148.57813313802083,37.09629680474137L150.8996664683024,36.92239965254876L153.221199798584,36.527592631800985L155.54273312886556,36.12472628824827L157.86426645914713,36.131979678772865L160.1857997894287,36.240066687848554L162.5073331197103,35.786220876414546L164.82886644999186,36.219345161104826L167.15039978027343,36.064264404158706L169.471933110555,35.65999559699176L171.7934664408366,35.62491197657167L174.11499977111816,35.76984393542375L176.43653310139973,35.56633438130285L178.75806643168133,35.485724181606315L181.0795997619629,35.37511861980346L183.40113309224446,35.308755282721705L185.72266642252603,35.165194591353526L188.04419975280763,34.99606711098059L190.3657330830892,35.24730650853209L192.68726641337076,35.14906923604869L195.00879974365233,34.98639189779769L197.33033307393393,34.764298896518994L199.6518664042155,34.7555296940798L201.97339973449706,34.791763705392356L204.29493306477863,34.77200857940383L206.61646639506023,34.76015550381072L208.9379997253418,34.60780543655969L211.25953305562336,34.45415595422415L213.58106638590496,34.3827101740317L215.90259971618653,34.339842705916226L218.2241330464681,34.54235151249418L220.54566637674967,34.414883599784815L222.86719970703126,34.08942194114488L225.18873303731283,33.99788763508005L227.5102663675944,34.08820527333637L229.83179969787597,34.08014869994699L232.15333302815756,34.241296887017484L234.47486635843913,34.31724189005084L236.7963996887207,33.98934138252841L239.11793301900227,33.83409661079105L241.43946634928386,33.80319690409169L243.76099967956543,33.950639211176195L246.082533009847,33.89387408788991L248.4040663401286,33.839063390351015L250.72559967041016,34.05515016848386L253.04713300069173,33.95658066227452" fill="none"></path></g></g></g></g><g opacity="0.2"><g><g><g><path style="fill: none;" stroke="rgb(0, 119, 187)" stroke-width="2px" d="M23.215333302815754,95.27823686740771L25.53686663309733,97.5773084709725L27.858399963378908,85.35593291673221L30.179933293660483,80.27379087592207L32.50146662394206,65.63236329559238L34.82299995422363,66.84239895158484L37.14453328450521,71.31952316439876L39.46606661478678,71.31952316439876L41.78759994506836,72.52955882039122L44.10913327534993,58.1301306569018L46.43066660563151,62.00223704171948L48.75219993591308,61.276219505303104L51.07373326619466,61.881237333299325L53.39526659647624,63.938309520023836L55.716799926757815,68.05243460757731L58.03833325703939,65.39034459285658L60.359866587320965,59.46116602131441L62.68139991760254,60.18718355773079L65.00293324788412,62.24425574445527L67.3244665781657,58.00913094848167L69.64599990844727,62.36525545287543L71.96753323872885,61.276219505303104L74.28906656901042,58.1301306569018L76.610599899292,57.16209441774963L78.93213322957357,58.61414877647789L81.25366655985515,58.61414877647789L83.57519989013672,57.52511282890556L85.8967332204183,58.49314906805775L88.21826655069987,58.251130365321956L90.53979988098145,60.55020196888674L92.86133321126302,57.52511282890556L95.1828665415446,57.16209441774963L97.50439987182617,59.219166604474125L99.82593320210775,56.31507717291311L102.14746653238932,57.76711224574585L104.4689998626709,57.76711224574585L106.79053319295248,57.28311341206529L109.11206652323405,56.92009500090934L111.43359985351563,58.00913094848167L113.7551331837972,56.436076881333264L116.07666651407878,60.55020196888674L118.39819984436035,59.46116602131441L120.71973317464193,57.404113120485434L123.0412665049235,56.436076881333264L125.36279983520508,57.16209441774963L127.68433316548665,57.16209441774963L130.00586649576823,56.436076881333264L132.3273998260498,59.340166312894254L134.6489331563314,55.83105905333703L136.97046648661293,56.31507717291311L139.29199981689453,57.64611253732572L141.6135331471761,56.678095584069055L143.9350664774577,59.219166604474125L146.25659980773926,56.799095292489184L148.57813313802083,58.00913094848167L150.8996664683024,57.16209441774963L153.221199798584,57.88813124006151L155.54273312886556,59.945184140890504L157.86426645914713,58.977147901738334L160.1857997894287,61.15521979688296L162.5073331197103,58.61414877647789L164.82886644999186,62.36525545287543L167.15039978027343,56.436076881333264L169.471933110555,57.404113120485434L171.7934664408366,58.3721300737421L174.11499977111816,57.404113120485434L176.43653310139973,57.88813124006151L178.75806643168133,56.678095584069055L181.0795997619629,58.00913094848167L183.40113309224446,56.19407746449296L185.72266642252603,57.28311341206529L188.04419975280763,56.678095584069055L190.3657330830892,56.678095584069055L192.68726641337076,56.55707658975339L195.00879974365233,56.436076881333264L197.33033307393393,56.436076881333264L199.6518664042155,56.92009500090934L201.97339973449706,57.64611253732572L204.29493306477863,56.07307775607282L206.61646639506023,57.28311341206529L208.9379997253418,57.404113120485434L211.25953305562336,57.52511282890556L213.58106638590496,57.64611253732572L215.90259971618653,57.404113120485434L218.2241330464681,57.88813124006151L220.54566637674967,57.28311341206529L222.86719970703126,57.76711224574585L225.18873303731283,58.1301306569018L227.5102663675944,58.00913094848167L229.83179969787597,58.73514848489803L232.15333302815756,58.3721300737421L234.47486635843913,58.00913094848167L236.7963996887207,58.61414877647789L239.11793301900227,57.28311341206529L241.43946634928386,57.28311341206529L243.76099967956543,57.88813124006151L246.082533009847,56.92009500090934L248.4040663401286,57.16209441774963L250.72559967041016,57.76711224574585L253.04713300069173,57.404113120485434" fill="none"></path></g><g><path style="fill: none;" stroke="rgb(255, 112, 67)" stroke-width="2px" d="M23.215333302815754,143.77264040935256L25.53686663309733,102.89925133653496L27.858399963378908,90.70985179704772L30.179933293660483,82.7737829388941L32.50146662394206,74.94145291268055L34.82299995422363,70.58438339940687L37.14453328450521,68.56146653362786L39.46606661478678,64.93058812983016L41.78759994506836,63.21886847397583L44.10913327534993,62.90765197815564L46.43066660563151,58.60246152379976L48.75219993591308,56.78702232190089L51.07373326619466,55.957111666380385L53.39526659647624,55.179060783882164L55.716799926757815,52.689309531425124L58.03833325703939,51.44444354814436L60.359866587320965,50.925749388444046L62.68139991760254,52.27435420366487L65.00293324788412,49.78460295120783L67.3244665781657,48.53973696792707L69.64599990844727,47.191112866810755L71.96753323872885,46.72429776602823L74.28906656901042,47.242991925728546L76.610599899292,45.47941249685195L78.93213322957357,45.47941249685195L81.25366655985515,45.8943678246122L83.57519989013672,44.96071833715163L85.8967332204183,44.078928622713335L88.21826655069987,44.02706884969106L90.53979988098145,42.78218358051478L92.86133321126302,44.28640628659346L95.1828665415446,42.67844474857472L97.50439987182617,42.574705916634656L99.82593320210775,41.22610110141383L102.14746653238932,40.81114577365358L104.4689998626709,40.707387655818025L106.79053319295248,39.98121583223758L109.11206652323405,40.4999099919379L111.43359985351563,39.3587828405972L113.7551331837972,39.41066189951496L116.07666651407878,39.82561722727522L118.39819984436035,39.04756634477701L120.71973317464193,39.25504400865714L123.0412665049235,38.94382751283695L125.36279983520508,38.99568728585922L127.68433316548665,38.4769931261589L130.00586649576823,37.647082470638395L132.3273998260498,37.18024808396035L134.6489331563314,38.37325429421884L136.97046648661293,38.16577663033871L139.29199981689453,36.35033742843984L141.6135331471761,37.12838831093808L143.9350664774577,37.80268107560073L146.25659980773926,36.35033742843984L148.57813313802083,37.18024808396035L150.8996664683024,36.66155392426003L153.221199798584,35.93538210067959L155.54273312886556,35.520426772919336L157.86426645914713,36.14285976455972L160.1857997894287,36.402197201462144L162.5073331197103,35.105452159263564L164.82886644999186,36.86903158814016L167.15039978027343,35.831643268739526L169.471933110555,35.05359238624132L171.7934664408366,35.57228654594164L174.11499977111816,35.98724187370189L176.43653310139973,35.26107005012145L178.75806643168133,35.36480888206151L181.0795997619629,35.209210277099146L183.40113309224446,35.209210277099146L185.72266642252603,34.94985355430126L188.04419975280763,34.74237589042113L190.3657330830892,35.6241656048594L192.68726641337076,35.0017133273235L195.00879974365233,34.74237589042113L197.33033307393393,34.43115939460094L199.6518664042155,34.74237589042113L201.97339973449706,34.84611472236119L204.29493306477863,34.74237589042113L206.61646639506023,34.74237589042113L208.9379997253418,34.37928033568312L211.25953305562336,34.22368173072081L213.58106638590496,34.27554150374306L215.90259971618653,34.27554150374306L218.2241330464681,34.84611472236119L220.54566637674967,34.22368173072081L222.86719970703126,33.601229453184914L225.18873303731283,33.8605861759828L227.5102663675944,34.22368173072081L229.83179969787597,34.06806383986293L232.15333302815756,34.48301916762318L234.47486635843913,34.43115939460094L236.7963996887207,33.49749062124485L239.11793301900227,33.601229453184914L241.43946634928386,33.75684734404274L243.76099967956543,34.17180267180299L246.082533009847,33.80872640296056L248.4040663401286,33.75684734404274L250.72559967041016,34.37928033568312L253.04713300069173,33.80872640296056" fill="none"></path></g></g></g></g></g></g><g transform="translate(51, 177)" clip-path="url(#clip_1)"><clipPath id="clip_1"><rect width="278" height="22"></rect></clipPath><g><g><line x1="0" y1="0" x2="0" y2="5" style="visibility: inherit;" fill="rgb(0, 0, 0)" stroke="rgb(204, 204, 204)" stroke-width="1px"></line><line x1="23.215333302815754" y1="0" x2="23.215333302815754" y2="5" style="visibility: inherit;" fill="rgb(0, 0, 0)" stroke="rgb(204, 204, 204)" stroke-width="1px"></line><line x1="46.43066660563151" y1="0" x2="46.43066660563151" y2="5" style="visibility: inherit;" fill="rgb(0, 0, 0)" stroke="rgb(204, 204, 204)" stroke-width="1px"></line><line x1="69.64599990844727" y1="0" x2="69.64599990844727" y2="5" style="visibility: inherit;" fill="rgb(0, 0, 0)" stroke="rgb(204, 204, 204)" stroke-width="1px"></line><line x1="92.86133321126302" y1="0" x2="92.86133321126302" y2="5" style="visibility: inherit;" fill="rgb(0, 0, 0)" stroke="rgb(204, 204, 204)" stroke-width="1px"></line><line x1="116.07666651407878" y1="0" x2="116.07666651407878" y2="5" style="visibility: inherit;" fill="rgb(0, 0, 0)" stroke="rgb(204, 204, 204)" stroke-width="1px"></line><line x1="139.29199981689453" y1="0" x2="139.29199981689453" y2="5" style="visibility: inherit;" fill="rgb(0, 0, 0)" stroke="rgb(204, 204, 204)" stroke-width="1px"></line><line x1="162.5073331197103" y1="0" x2="162.5073331197103" y2="5" style="visibility: inherit;" fill="rgb(0, 0, 0)" stroke="rgb(204, 204, 204)" stroke-width="1px"></line><line x1="185.72266642252603" y1="0" x2="185.72266642252603" y2="5" style="visibility: inherit;" fill="rgb(0, 0, 0)" stroke="rgb(204, 204, 204)" stroke-width="1px"></line><line x1="208.9379997253418" y1="0" x2="208.9379997253418" y2="5" style="visibility: inherit;" fill="rgb(0, 0, 0)" stroke="rgb(204, 204, 204)" stroke-width="1px"></line><line x1="232.15333302815756" y1="0" x2="232.15333302815756" y2="5" style="visibility: inherit;" fill="rgb(0, 0, 0)" stroke="rgb(204, 204, 204)" stroke-width="1px"></line><line x1="255.3686663309733" y1="0" x2="255.3686663309733" y2="5" style="visibility: inherit;" fill="rgb(0, 0, 0)" stroke="rgb(204, 204, 204)" stroke-width="1px"></line><line x1="278.58399963378906" y1="0" x2="278.58399963378906" y2="5" style="visibility: inherit;" fill="rgb(0, 0, 0)" stroke="rgb(204, 204, 204)" stroke-width="1px"></line></g><g transform="translate(0, 8)"><text style="text-anchor: middle; visibility: hidden; font-family: &quot;Helvetica Neue&quot;, sans-serif; font-size: 12px; font-weight: 200;" x="0" y="0" dx="0em" dy="0.95em" fill="rgb(50, 49, 63)" stroke="none" stroke-width="1px">-10</text><text style="text-anchor: middle; visibility: inherit; font-family: &quot;Helvetica Neue&quot;, sans-serif; font-size: 12px; font-weight: 200;" x="23.215333302815754" y="0" dx="0em" dy="0.95em" fill="rgb(50, 49, 63)" stroke="none" stroke-width="1px">0</text><text style="text-anchor: middle; visibility: hidden; font-family: &quot;Helvetica Neue&quot;, sans-serif; font-size: 12px; font-weight: 200;" x="46.43066660563151" y="0" dx="0em" dy="0.95em" fill="rgb(50, 49, 63)" stroke="none" stroke-width="1px">10</text><text style="text-anchor: middle; visibility: inherit; font-family: &quot;Helvetica Neue&quot;, sans-serif; font-size: 12px; font-weight: 200;" x="69.64599990844727" y="0" dx="0em" dy="0.95em" fill="rgb(50, 49, 63)" stroke="none" stroke-width="1px">20</text><text style="text-anchor: middle; visibility: hidden; font-family: &quot;Helvetica Neue&quot;, sans-serif; font-size: 12px; font-weight: 200;" x="92.86133321126302" y="0" dx="0em" dy="0.95em" fill="rgb(50, 49, 63)" stroke="none" stroke-width="1px">30</text><text style="text-anchor: middle; visibility: inherit; font-family: &quot;Helvetica Neue&quot;, sans-serif; font-size: 12px; font-weight: 200;" x="116.07666651407878" y="0" dx="0em" dy="0.95em" fill="rgb(50, 49, 63)" stroke="none" stroke-width="1px">40</text><text style="text-anchor: middle; visibility: hidden; font-family: &quot;Helvetica Neue&quot;, sans-serif; font-size: 12px; font-weight: 200;" x="139.29199981689453" y="0" dx="0em" dy="0.95em" fill="rgb(50, 49, 63)" stroke="none" stroke-width="1px">50</text><text style="text-anchor: middle; visibility: inherit; font-family: &quot;Helvetica Neue&quot;, sans-serif; font-size: 12px; font-weight: 200;" x="162.5073331197103" y="0" dx="0em" dy="0.95em" fill="rgb(50, 49, 63)" stroke="none" stroke-width="1px">60</text><text style="text-anchor: middle; visibility: hidden; font-family: &quot;Helvetica Neue&quot;, sans-serif; font-size: 12px; font-weight: 200;" x="185.72266642252603" y="0" dx="0em" dy="0.95em" fill="rgb(50, 49, 63)" stroke="none" stroke-width="1px">70</text><text style="text-anchor: middle; visibility: inherit; font-family: &quot;Helvetica Neue&quot;, sans-serif; font-size: 12px; font-weight: 200;" x="208.9379997253418" y="0" dx="0em" dy="0.95em" fill="rgb(50, 49, 63)" stroke="none" stroke-width="1px">80</text><text style="text-anchor: middle; visibility: hidden; font-family: &quot;Helvetica Neue&quot;, sans-serif; font-size: 12px; font-weight: 200;" x="232.15333302815756" y="0" dx="0em" dy="0.95em" fill="rgb(50, 49, 63)" stroke="none" stroke-width="1px">90</text><text style="text-anchor: middle; visibility: inherit; font-family: &quot;Helvetica Neue&quot;, sans-serif; font-size: 12px; font-weight: 200;" x="255.3686663309733" y="0" dx="0em" dy="0.95em" fill="rgb(50, 49, 63)" stroke="none" stroke-width="1px">100</text><text style="text-anchor: middle; visibility: hidden; font-family: &quot;Helvetica Neue&quot;, sans-serif; font-size: 12px; font-weight: 200;" x="278.58399963378906" y="0" dx="0em" dy="0.95em" fill="rgb(50, 49, 63)" stroke="none" stroke-width="1px">110</text></g><line x1="0" y1="0" x2="278.58399963378906" y2="0" fill="rgb(0, 0, 0)" stroke="rgb(204, 204, 204)" stroke-width="1px"></line></g></g></g></g></svg>