<svg viewBox="0 0 330 200" xmlns="http://www.w3.org/2000/svg"><g><g><g><g><g><line x1="51.41600036621094" y1="177.95999908447266" x2="46.41600036621094" y2="177.95999908447266" style="visibility: inherit;" fill="rgb(0, 0, 0)" stroke="rgb(204, 204, 204)" stroke-width="1px"></line><line x1="51.41600036621094" y1="158.1866658528646" x2="46.41600036621094" y2="158.1866658528646" style="visibility: inherit;" fill="rgb(0, 0, 0)" stroke="rgb(204, 204, 204)" stroke-width="1px"></line><line x1="51.41600036621094" y1="138.4133326212565" x2="46.41600036621094" y2="138.4133326212565" style="visibility: inherit;" fill="rgb(0, 0, 0)" stroke="rgb(204, 204, 204)" stroke-width="1px"></line><line x1="51.41600036621094" y1="118.63999938964844" x2="46.41600036621094" y2="118.63999938964844" style="visibility: inherit;" fill="rgb(0, 0, 0)" stroke="rgb(204, 204, 204)" stroke-width="1px"></line><line x1="51.41600036621094" y1="98.86666615804036" x2="46.41600036621094" y2="98.86666615804036" style="visibility: inherit;" fill="rgb(0, 0, 0)" stroke="rgb(204, 204, 204)" stroke-width="1px"></line><line x1="51.41600036621094" y1="79.09333292643228" x2="46.41600036621094" y2="79.09333292643228" style="visibility: inherit;" fill="rgb(0, 0, 0)" stroke="rgb(204, 204, 204)" stroke-width="1px"></line><line x1="51.41600036621094" y1="59.31999969482422" x2="46.41600036621094" y2="59.31999969482422" style="visibility: inherit;" fill="rgb(0, 0, 0)" stroke="rgb(204, 204, 204)" stroke-width="1px"></line><line x1="51.41600036621094" y1="39.546666463216155" x2="46.41600036621094" y2="39.546666463216155" style="visibility: inherit;" fill="rgb(0, 0, 0)" stroke="rgb(204, 204, 204)" stroke-width="1px"></line><line x1="51.41600036621094" y1="19.773333231608092" x2="46.41600036621094" y2="19.773333231608092" style="visibility: inherit;" fill="rgb(0, 0, 0)" stroke="rgb(204, 204, 204)" stroke-width="1px"></line><line x1="51.41600036621094" y1="0" x2="46.41600036621094" y2="0" style="visibility: inherit;" fill="rgb(0, 0, 0)" stroke="rgb(204, 204, 204)" stroke-width="1px"></line></g><g transform="translate(41.41600036621094, 0)"><text style="text-anchor: end; visibility: hidden; font-family: &quot;Helvetica Neue&quot;, sans-serif; font-size: 12px; font-weight: 200;" x="0" y="177.95999908447266" dx="0em" dy="0.3em" fill="rgb(50, 49, 63)" stroke="none" stroke-width="1px">-0.2</text><text style="text-anchor: end; visibility: inherit; font-family: &quot;Helvetica Neue&quot;, sans-serif; font-size: 12px; font-weight: 200;" x="0" y="158.1866658528646" dx="0em" dy="0.3em" fill="rgb(50, 49, 63)" stroke="none" stroke-width="1px">0</text><text style="text-anchor: end; visibility: hidden; font-family: &quot;Helvetica Neue&quot;, sans-serif; font-size: 12px; font-weight: 200;" x="0" y="138.4133326212565" dx="0em" dy="0.3em" fill="rgb(50, 49, 63)" stroke="none" stroke-width="1px">0.2</text><text style="text-anchor: end; visibility: inherit; font-family: &quot;Helvetica Neue&quot;, sans-serif; font-size: 12px; font-weight: 200;" x="0" y="118.63999938964844" dx="0em" dy="0.3em" fill="rgb(50, 49, 63)" stroke="none" stroke-width="1px">0.4</text><text style="text-anchor: end; visibility: hidden; font-family: &quot;Helvetica Neue&quot;, sans-serif; font-size: 12px; font-weight: 200;" x="0" y="98.86666615804036" dx="0em" dy="0.3em" fill="rgb(50, 49, 63)" stroke="none" stroke-width="1px">0.6</text><text style="text-anchor: end; visibility: inherit; font-family: &quot;Helvetica Neue&quot;, sans-serif; font-size: 12px; font-weight: 200;" x="0" y="79.09333292643228" dx="0em" dy="0.3em" fill="rgb(50, 49, 63)" stroke="none" stroke-width="1px">0.8</text><text style="text-anchor: end; visibility: hidden; font-family: &quot;Helvetica Neue&quot;, sans-serif; font-size: 12px; font-weight: 200;" x="0" y="59.31999969482422" dx="0em" dy="0.3em" fill="rgb(50, 49, 63)" stroke="none" stroke-width="1px">1</text><text style="text-anchor: end; visibility: inherit; font-family: &quot;Helvetica Neue&quot;, sans-serif; font-size: 12px; font-weight: 200;" x="0" y="39.546666463216155" dx="0em" dy="0.3em" fill="rgb(50, 49, 63)" stroke="none" stroke-width="1px">1.2</text><text style="text-anchor: end; visibility: hidden; font-family: &quot;Helvetica Neue&quot;, sans-serif; font-size: 12px; font-weight: 200;" x="0" y="19.773333231608092" dx="0em" dy="0.3em" fill="rgb(50, 49, 63)" stroke="none" stroke-width="1px">1.4</text><text style="text-anchor: end; visibility: hidden; font-family: &quot;Helvetica Neue&quot;, sans-serif; font-size: 12px; font-weight: 200;" x="0" y="0" dx="0em" dy="0.3em" fill="rgb(50, 49, 63)" stroke="none" stroke-width="1px">1.6</text></g><line x1="51.41600036621094" y1="0" x2="51.41600036621094" y2="177.95999908447266" fill="rgb(0, 0, 0)" stroke="rgb(204, 204, 204)" stroke-width="1px"></line></g></g><g transform="translate(51, 0)" clip-path="url(#clip_0)"><clipPath id="clip_0"><rect width="278" height="177"></rect></clipPath><g><g><g><line x1="0" y1="0" x2="0" y2="177.95999908447266" fill="rgb(0, 0, 0)" stroke="rgb(60, 60, 60)" stroke-width="1px" opacity="0.25"></line><line x1="23.215333302815754" y1="0" x2="23.215333302815754" y2="177.95999908447266" fill="rgb(0, 0, 0)" stroke="rgb(60, 60, 60)" stroke-width="1px" opacity="0.25"></line><line x1="46.43066660563151" y1="0" x2="46.43066660563151" y2="177.95999908447266" fill="rgb(0, 0, 0)" stroke="rgb(60, 60, 60)" stroke-width="1px" opacity="0.25"></line><line x1="69.64599990844727" y1="0" x2="69.64599990844727" y2="177.95999908447266" fill="rgb(0, 0, 0)" stroke="rgb(60, 60, 60)" stroke-width="1px" opacity="0.25"></line><line x1="92.86133321126302" y1="0" x2="92.86133321126302" y2="177.95999908447266" fill="rgb(0, 0, 0)" stroke="rgb(60, 60, 60)" stroke-width="1px" opacity="0.25"></line><line x1="116.07666651407878" y1="0" x2="116.07666651407878" y2="177.95999908447266" fill="rgb(0, 0, 0)" stroke="rgb(60, 60, 60)" stroke-width="1px" opacity="0.25"></line><line x1="139.29199981689453" y1="0" x2="139.29199981689453" y2="177.95999908447266" fill="rgb(0, 0, 0)" stroke="rgb(60, 60, 60)" stroke-width="1px" opacity="0.25"></line><line x1="162.5073331197103" y1="0" x2="162.5073331197103" y2="177.95999908447266" fill="rgb(0, 0, 0)" stroke="rgb(60, 60, 60)" stroke-width="1px" opacity="0.25"></line><line x1="185.72266642252603" y1="0" x2="185.72266642252603" y2="177.95999908447266" fill="rgb(0, 0, 0)" stroke="rgb(60, 60, 60)" stroke-width="1px" opacity="0.25"></line><line x1="208.9379997253418" y1="0" x2="208.9379997253418" y2="177.95999908447266" fill="rgb(0, 0, 0)" stroke="rgb(60, 60, 60)" stroke-width="1px" opacity="0.25"></line><line x1="232.15333302815756" y1="0" x2="232.15333302815756" y2="177.95999908447266" fill="rgb(0, 0, 0)" stroke="rgb(60, 60, 60)" stroke-width="1px" opacity="0.25"></line><line x1="255.3686663309733" y1="0" x2="255.3686663309733" y2="177.95999908447266" fill="rgb(0, 0, 0)" stroke="rgb(60, 60, 60)" stroke-width="1px" opacity="0.25"></line><line x1="278.58399963378906" y1="0" x2="278.58399963378906" y2="177.95999908447266" fill="rgb(0, 0, 0)" stroke="rgb(60, 60, 60)" stroke-width="1px" opacity="0.25"></line></g><g><line x1="0" y1="177.95999908447266" x2="278.58399963378906" y2="177.95999908447266" fill="rgb(0, 0, 0)" stroke="rgb(60, 60, 60)" stroke-width="1px" opacity="0.25"></line><line x1="0" y1="158.1866658528646" x2="278.58399963378906" y2="158.1866658528646" fill="rgb(0, 0, 0)" stroke="rgb(60, 60, 60)" stroke-width="1px" opacity="0.25"></line><line x1="0" y1="138.4133326212565" x2="278.58399963378906" y2="138.4133326212565" fill="rgb(0, 0, 0)" stroke="rgb(60, 60, 60)" stroke-width="1px" opacity="0.25"></line><line x1="0" y1="118.63999938964844" x2="278.58399963378906" y2="118.63999938964844" fill="rgb(0, 0, 0)" stroke="rgb(60, 60, 60)" stroke-width="1px" opacity="0.25"></line><line x1="0" y1="98.86666615804036" x2="278.58399963378906" y2="98.86666615804036" fill="rgb(0, 0, 0)" stroke="rgb(60, 60, 60)" stroke-width="1px" opacity="0.25"></line><line x1="0" y1="79.09333292643228" x2="278.58399963378906" y2="79.09333292643228" fill="rgb(0, 0, 0)" stroke="rgb(60, 60, 60)" stroke-width="1px" opacity="0.25"></line><line x1="0" y1="59.31999969482422" x2="278.58399963378906" y2="59.31999969482422" fill="rgb(0, 0, 0)" stroke="rgb(60, 60, 60)" stroke-width="1px" opacity="0.25"></line><line x1="0" y1="39.546666463216155" x2="278.58399963378906" y2="39.546666463216155" fill="rgb(0, 0, 0)" stroke="rgb(60, 60, 60)" stroke-width="1px" opacity="0.25"></line><line x1="0" y1="19.773333231608092" x2="278.58399963378906" y2="19.773333231608092" fill="rgb(0, 0, 0)" stroke="rgb(60, 60, 60)" stroke-width="1px" opacity="0.25"></line><line x1="0" y1="0" x2="278.58399963378906" y2="0" fill="rgb(0, 0, 0)" stroke="rgb(60, 60, 60)" stroke-width="1px" opacity="0.25"></line></g></g></g><g><g><line x1="0" y1="158.1866658528646" x2="278.58399963378906" y2="158.1866658528646" fill="rgb(0, 0, 0)" stroke="rgb(153, 153, 153)" stroke-width="1.5px"></line></g></g><g><g><line x1="23.215333302815754" y1="0" x2="23.215333302815754" y2="177.95999908447266" fill="rgb(0, 0, 0)" stroke="rgb(153, 153, 153)" stroke-width="1.5px"></line></g></g><g><g><g><g><g><path style="fill: none;" stroke="rgb(0, 119, 187)" stroke-width="2px" d="M23.215333302815754,109.72768166160003L25.53686663309733,109.47124236576971L27.858399963378908,112.11243391721443L30.179933293660483,114.48724671118396L32.50146662394206,120.56686564962949L34.82299995422363,122.90303549190943L37.14453328450521,123.78517659371911L39.46606661478678,123.13814817326056L41.78759994506836,121.5122406625224L44.10913327534993,126.4149951933012L46.43066660563151,126.33152822680722L48.75219993591308,127.19893916388065L51.07373326619466,127.08534965972349L53.39526659647624,125.98218056910899L55.716799926757815,122.51711862218289L58.03833325703939,119.05417272879706L60.359866587320965,121.77929423172398L62.68139991760254,122.62248141509957L65.00293324788412,123.04104659797164L67.3244665781657,124.38240984575668L69.64599990844727,121.51687326009514L71.96753323872885,121.34998898898425L74.28906656901042,121.75915292549219L76.610599899292,122.49720711023011L78.93213322957357,122.46434127480207L81.25366655985515,124.00863884062137L83.57519989013672,124.28284014632928L85.8967332204183,122.31250220006672L88.21826655069987,122.77401443629799L90.53979988098145,119.61977849086396L92.86133321126302,120.75537569018286L95.1828665415446,120.51539818257851L97.50439987182617,120.06615409297908L99.82593320210775,120.07589989250437L102.14746653238932,119.04438849936986L104.4689998626709,117.23737267691365L106.79053319295248,116.99579076131427L109.11206652323405,116.08367750843529L111.43359985351563,115.99391407318899L113.7551331837972,116.62110698410387L116.07666651407878,114.33654054603952L118.39819984436035,113.25589698187432L120.71973317464193,113.50516877894214L123.0412665049235,113.50950338530805L125.36279983520508,114.81523453717624L127.68433316548665,114.07412843821993L130.00586649576823,112.45587828676787L132.3273998260498,108.16785841938358L134.6489331563314,108.15494183919682L136.97046648661293,108.81530438339335L139.29199981689453,107.42257745696213L141.6135331471761,106.86911280971754L143.9350664774577,104.74184308116412L146.25659980773926,105.22697415330661L148.57813313802083,103.82057341740442L150.8996664683024,104.34803729009846L153.221199798584,103.25333513906367L155.54273312886556,100.61789068459025L157.86426645914713,99.57723037750806L160.1857997894287,96.26944697841567L162.5073331197103,96.42914416025124L164.82886644999186,92.95552635719208L167.15039978027343,94.06215330101338L169.471933110555,94.65334728339768L171.7934664408366,95.03287283452262L174.11499977111816,95.28869971506617L176.43653310139973,96.52672746292478L178.75806643168133,95.80483241968946L181.0795997619629,95.69222033417947L183.40113309224446,95.75795783549123L185.72266642252603,94.05635819060517L188.04419975280763,90.17462509342452L190.3657330830892,91.64260091433295L192.68726641337076,90.62767652213245L195.00879974365233,90.00407446346118L197.33033307393393,89.70295470031765L199.6518664042155,90.72930218436645L201.97339973449706,90.89797768753051L204.29493306477863,91.54856272318509L206.61646639506023,90.3582436772931L208.9379997253418,90.02824185985217L211.25953305562336,87.65289916681955L213.58106638590496,88.28345729685807L215.90259971618653,83.69583479724592L218.2241330464681,84.2999349818142L220.54566637674967,84.29861381708801L222.86719970703126,81.23127437442294L225.18873303731283,77.40443354297463L227.5102663675944,75.66822409095616L229.83179969787597,75.76479697307788L232.15333302815756,77.6551512780095L234.47486635843913,76.93585901566588L236.7963996887207,76.53032797441756L239.11793301900227,77.61400839043895L241.43946634928386,73.85550249863464L243.76099967956543,72.21242271452333L246.082533009847,72.84987659765042L248.4040663401286,74.31307843990352L250.72559967041016,73.21721799832648L253.04713300069173,74.09236813530572" fill="none"></path></g><g><path style="fill: none;" stroke="rgb(255, 112, 67)" stroke-width="2px" d="M23.215333302815754,28.01702519467321L25.53686663309733,53.5799309136729L27.858399963378908,68.0735977291802L30.179933293660483,78.22796044793114L32.50146662394206,84.85473305173586L34.82299995422363,90.99709803353431L37.14453328450521,96.45337022671016L39.46606661478678,100.34612902110591L41.78759994506836,104.02374289889595L44.10913327534993,106.69135480179642L46.43066660563151,110.20955575202755L48.75219993591308,113.2955326474807L51.07373326619466,116.3296798366978L53.39526659647624,118.01370522266949L55.716799926757815,120.31847247071838L58.03833325703939,122.33904989120727L60.359866587320965,124.31194587490673L62.68139991760254,125.5335641951697L65.00293324788412,126.94913354341205L67.3244665781657,128.01681101702363L69.64599990844727,129.36845401186932L71.96753323872885,129.79454375675326L74.28906656901042,130.98452620830383L76.610599899292,132.65956751710354L78.93213322957357,133.57080950346386L81.25366655985515,133.73305221476545L83.57519989013672,134.96083799732645L85.8967332204183,135.7185304623507L88.21826655069987,136.2001216391428L90.53979988098145,137.51605435884005L92.86133321126302,137.60127689621117L95.1828665415446,136.88646667099482L97.50439987182617,138.05778925671163L99.82593320210775,138.91474785039645L102.14746653238932,140.710494769688L104.4689998626709,141.618190483223L106.79053319295248,142.12849583272128L109.11206652323405,141.69924532348568L111.43359985351563,143.1461946286291L113.7551331837972,143.24142210626877L116.07666651407878,143.58662124625386L118.39819984436035,143.84207616642487L120.71973317464193,144.25760906503157L123.0412665049235,144.4962425965596L125.36279983520508,143.77713404130927L127.68433316548665,145.15936182595254L130.00586649576823,146.22476680422847L132.3273998260498,147.02845770250264L134.6489331563314,145.7899143845779L136.97046648661293,145.92179426774803L139.29199981689453,147.39531965746005L141.6135331471761,147.23395088866386L143.9350664774577,147.0535990656934L146.25659980773926,147.13167295450862L148.57813313802083,146.84888544036332L150.8996664683024,146.18180868651527L153.221199798584,147.69035065970044L155.54273312886556,148.9268210553597L157.86426645914713,149.20409664129602L160.1857997894287,149.90765488888425L162.5073331197103,150.4367789052757L164.82886644999186,149.5485153870023L167.15039978027343,150.6484809771891L169.471933110555,151.2630359937504L171.7934664408366,151.3474395105147L174.11499977111816,150.55111363512816L176.43653310139973,150.16599064142164L178.75806643168133,149.72722674182137L181.0795997619629,150.9779981735077L183.40113309224446,150.87253434682125L185.72266642252603,150.83631453721128L188.04419975280763,151.4331593211349L190.3657330830892,150.88165389418322L192.68726641337076,151.29766286184002L195.00879974365233,151.3786130862125L197.33033307393393,151.3446294093927L199.6518664042155,150.42416929923286L201.97339973449706,150.82218076979657L204.29493306477863,150.2329382730326L206.61646639506023,151.14900928546982L208.9379997253418,152.00328040720456L211.25953305562336,152.11777551385202L213.58106638590496,152.42333731250346L215.90259971618653,152.69214033318045L218.2241330464681,152.07379983760802L220.54566637674967,152.96184237554777L222.86719970703126,153.7775729272061L225.18873303731283,153.65569966570743L227.5102663675944,153.07892247169215L229.83179969787597,152.8656835819869L232.15333302815756,151.69349891347485L234.47486635843913,152.02047547218595L236.7963996887207,153.26757499229822L239.11793301900227,153.74060917173978L241.43946634928386,153.619190291156L243.76099967956543,152.93491113261268L246.082533009847,153.0994385682366L248.4040663401286,152.88337214313577L250.72559967041016,153.2215383490624L253.04713300069173,153.7283394014862" fill="none"></path></g></g></g></g><g opacity="0.2"><g><g><g><path style="fill: none;" stroke="rgb(0, 119, 187)" stroke-width="2px" d="M23.215333302815754,109.72768166160003L25.53686663309733,109.31737878827153L27.858399963378908,114.64797780660138L30.179933293660483,117.28002655689208L32.50146662394206,128.50441613566403L34.82299995422363,126.13479940492584L37.14453328450521,125.04665248356454L39.46606661478678,122.19477452475917L41.78759994506836,119.1143429004585L44.10913327534993,133.69501428488365L46.43066660563151,126.20708481630922L48.75219993591308,128.49533515747612L51.07373326619466,126.91533629292705L53.39526659647624,124.3295881562783L55.716799926757815,117.32359875203892L58.03833325703939,113.86219622646051L60.359866587320965,125.86582330602377L62.68139991760254,123.88704810502843L65.00293324788412,123.66883060808702L67.3244665781657,126.39433211152027L69.64599990844727,117.21872553443943L71.96753323872885,121.0996680737159L74.28906656901042,122.37289075202595L76.610599899292,123.60427964438153L78.93213322957357,122.41504275525631L81.25366655985515,126.32507860362665L83.57519989013672,124.69414140328513L85.8967332204183,119.35699830560574L88.21826655069987,123.46628236552692L90.53979988098145,114.88842631601119L92.86133321126302,122.45877111258483L95.1828665415446,120.15543196891949L97.50439987182617,119.39228801221066L99.82593320210775,120.09051859109422L102.14746653238932,117.49712145399911L104.4689998626709,114.5268489898252L106.79053319295248,116.63341789165285L109.11206652323405,114.71550763758395L111.43359985351563,115.85926892081952L113.7551331837972,117.56189634838022L116.07666651407878,110.90969089352379L118.39819984436035,111.63493163692662L120.71973317464193,113.87907647436396L123.0412665049235,113.51600529485503L125.36279983520508,116.77383126463921L127.68433316548665,112.96246928990104L130.00586649576823,110.02850305974115L132.3273998260498,101.73582861854781L134.6489331563314,108.13556696891708L136.97046648661293,109.80584819967484L139.29199981689453,105.3334870673322L141.6135331471761,106.03891583885465L143.9350664774577,101.55093848834335L146.25659980773926,105.95467076151908L148.57813313802083,101.71097231355331L150.8996664683024,105.13923309913905L153.221199798584,101.61128191251207L155.54273312886556,96.66472400288104L157.86426645914713,98.016239916885L160.1857997894287,91.3077718797775L162.5073331197103,96.66868993300463L164.82886644999186,87.74509965260344L167.15039978027343,95.72209371674535L169.471933110555,95.54013825697409L171.7934664408366,95.60216116121L174.11499977111816,95.67244003588152L176.43653310139973,98.38376908471264L178.75806643168133,94.72198985483647L181.0795997619629,95.52330220591452L183.40113309224446,95.85656408745885L185.72266642252603,91.50395872327606L188.04419975280763,84.35202544765359L190.3657330830892,93.84456464569561L192.68726641337076,89.10528993383166L195.00879974365233,89.06867137545427L197.33033307393393,89.25127505560235L199.6518664042155,92.2688234104397L201.97339973449706,91.15099094227662L204.29493306477863,92.52444027666692L206.61646639506023,88.57276510845517L208.9379997253418,89.53323913369074L211.25953305562336,84.08988512727063L213.58106638590496,89.22929449191588L215.90259971618653,76.8144010478277L218.2241330464681,85.20608525866663L220.54566637674967,84.29663206999871L222.86719970703126,76.63026521042532L225.18873303731283,71.66417229580217L227.5102663675944,73.06390991292847L229.83179969787597,75.90965629626045L232.15333302815756,80.49068273540692L234.47486635843913,75.85692062215048L236.7963996887207,75.92203141254504L239.11793301900227,79.23952901447107L241.43946634928386,68.21774366092814L243.76099967956543,69.74780303835634L246.082533009847,73.8060574223411L248.4040663401286,76.50788120328315L250.72559967041016,71.57342733596094L253.04713300069173,75.40509334077464" fill="none"></path></g><g><path style="fill: none;" stroke="rgb(255, 112, 67)" stroke-width="2px" d="M23.215333302815754,28.01702519467321L25.53686663309733,68.91767434507271L27.858399963378908,81.9875178720672L30.179933293660483,90.16949100518227L32.50146662394206,93.50664736326326L34.82299995422363,99.49420005475501L37.14453328450521,104.25592676330675L39.46606661478678,106.02180871381931L41.78759994506836,109.44750902891664L44.10913327534993,110.65244758344201L46.43066660563151,115.45494735369525L48.75219993591308,117.90770424067213L51.07373326619466,120.87099360351402L53.39526659647624,120.53644412058483L55.716799926757815,123.7729141754093L58.03833325703939,125.36849095419569L60.359866587320965,127.27045498699499L62.68139991760254,127.365681506805L65.00293324788412,129.07227191803304L67.3244665781657,129.61822963749083L69.64599990844727,131.3958443768237L71.96753323872885,130.43366435341463L74.28906656901042,132.76947639150202L76.610599899292,135.17210963784188L78.93213322957357,134.93766600628635L81.25366655985515,133.97641558982673L83.57519989013672,136.80251352960062L85.8967332204183,136.85506799665072L88.21826655069987,136.92250796071738L90.53979988098145,139.48995271108996L92.86133321126302,137.7291106740071L95.1828665415446,135.8142514753936L97.50439987182617,139.81477299545443L99.82593320210775,140.20018567954145L102.14746653238932,143.40411507144995L104.4689998626709,142.97973403011957L106.79053319295248,142.8939538490735L109.11206652323405,141.055369563617L111.43359985351563,145.316618578285L113.7551331837972,143.38426332241008L116.07666651407878,144.1044199555393L118.39819984436035,144.22525854637408L120.71973317464193,144.8809084126417L123.0412665049235,144.85419289374823L125.36279983520508,142.69847120862065L127.68433316548665,147.23270350270192L130.00586649576823,147.8228742715427L132.3273998260498,148.2339940498688L134.6489331563314,143.9320994077325L136.97046648661293,146.11961409250054L139.29199981689453,149.60560774201022L141.6135331471761,146.9918977354708L143.9350664774577,146.78307133123846L146.25659980773926,147.24878378773124L148.57813313802083,146.4247041691458L150.8996664683024,145.18119355574382L153.221199798584,149.95316361947732L155.54273312886556,150.7815266488482L157.86426645914713,149.62001002020048L160.1857997894287,150.96299226026653L162.5073331197103,151.23046492986285L164.82886644999186,148.21612010959225L167.15039978027343,152.29842936246928L169.471933110555,152.18486851859237L171.7934664408366,151.4740447856611L174.11499977111816,149.35662482204842L176.43653310139973,149.58830615086183L178.75806643168133,149.06908089242097L181.0795997619629,152.8541553210372L183.40113309224446,150.71433860679159L185.72266642252603,150.78198482279635L188.04419975280763,152.32842649702033L190.3657330830892,150.0543957537557L192.68726641337076,151.9216763133252L195.00879974365233,151.50003842277127L197.33033307393393,151.29365389416296L199.6518664042155,149.04347913399315L201.97339973449706,151.4191979756421L204.29493306477863,149.34907452788667L206.61646639506023,152.52311580412564L208.9379997253418,153.28468708980662L211.25953305562336,152.28951817382327L213.58106638590496,152.88168001048058L215.90259971618653,153.09534486419597L218.2241330464681,151.14628909424934L220.54566637674967,154.29390618245742L222.86719970703126,155.00116875469357L225.18873303731283,153.47288977345943L227.5102663675944,152.21375668066923L229.83179969787597,152.54582524742898L232.15333302815756,149.93522191070684L234.47486635843913,152.51094031025255L236.7963996887207,155.13822427246663L239.11793301900227,154.45016044090212L241.43946634928386,153.43706197028035L243.76099967956543,151.90849239479772L246.082533009847,153.34622972167247L248.4040663401286,152.55927250548456L250.72559967041016,153.7287876579523L253.04713300069173,154.48854098012194" fill="none"></path></g></g></g></g></g></g><g transform="translate(51, 177)" clip-path="url(#clip_1)"><clipPath id="clip_1"><rect width="278" height="22"></rect></clipPath><g><g><line x1="0" y1="0" x2="0" y2="5" style="visibility: inherit;" fill="rgb(0, 0, 0)" stroke="rgb(204, 204, 204)" stroke-width="1px"></line><line x1="23.215333302815754" y1="0" x2="23.215333302815754" y2="5" style="visibility: inherit;" fill="rgb(0, 0, 0)" stroke="rgb(204, 204, 204)" stroke-width="1px"></line><line x1="46.43066660563151" y1="0" x2="46.43066660563151" y2="5" style="visibility: inherit;" fill="rgb(0, 0, 0)" stroke="rgb(204, 204, 204)" stroke-width="1px"></line><line x1="69.64599990844727" y1="0" x2="69.64599990844727" y2="5" style="visibility: inherit;" fill="rgb(0, 0, 0)" stroke="rgb(204, 204, 204)" stroke-width="1px"></line><line x1="92.86133321126302" y1="0" x2="92.86133321126302" y2="5" style="visibility: inherit;" fill="rgb(0, 0, 0)" stroke="rgb(204, 204, 204)" stroke-width="1px"></line><line x1="116.07666651407878" y1="0" x2="116.07666651407878" y2="5" style="visibility: inherit;" fill="rgb(0, 0, 0)" stroke="rgb(204, 204, 204)" stroke-width="1px"></line><line x1="139.29199981689453" y1="0" x2="139.29199981689453" y2="5" style="visibility: inherit;" fill="rgb(0, 0, 0)" stroke="rgb(204, 204, 204)" stroke-width="1px"></line><line x1="162.5073331197103" y1="0" x2="162.5073331197103" y2="5" style="visibility: inherit;" fill="rgb(0, 0, 0)" stroke="rgb(204, 204, 204)" stroke-width="1px"></line><line x1="185.72266642252603" y1="0" x2="185.72266642252603" y2="5" style="visibility: inherit;" fill="rgb(0, 0, 0)" stroke="rgb(204, 204, 204)" stroke-width="1px"></line><line x1="208.9379997253418" y1="0" x2="208.9379997253418" y2="5" style="visibility: inherit;" fill="rgb(0, 0, 0)" stroke="rgb(204, 204, 204)" stroke-width="1px"></line><line x1="232.15333302815756" y1="0" x2="232.15333302815756" y2="5" style="visibility: inherit;" fill="rgb(0, 0, 0)" stroke="rgb(204, 204, 204)" stroke-width="1px"></line><line x1="255.3686663309733" y1="0" x2="255.3686663309733" y2="5" style="visibility: inherit;" fill="rgb(0, 0, 0)" stroke="rgb(204, 204, 204)" stroke-width="1px"></line><line x1="278.58399963378906" y1="0" x2="278.58399963378906" y2="5" style="visibility: inherit;" fill="rgb(0, 0, 0)" stroke="rgb(204, 204, 204)" stroke-width="1px"></line></g><g transform="translate(0, 8)"><text style="text-anchor: middle; visibility: hidden; font-family: &quot;Helvetica Neue&quot;, sans-serif; font-size: 12px; font-weight: 200;" x="0" y="0" dx="0em" dy="0.95em" fill="rgb(50, 49, 63)" stroke="none" stroke-width="1px">-10</text><text style="text-anchor: middle; visibility: inherit; font-family: &quot;Helvetica Neue&quot;, sans-serif; font-size: 12px; font-weight: 200;" x="23.215333302815754" y="0" dx="0em" dy="0.95em" fill="rgb(50, 49, 63)" stroke="none" stroke-width="1px">0</text><text style="text-anchor: middle; visibility: hidden; font-family: &quot;Helvetica Neue&quot;, sans-serif; font-size: 12px; font-weight: 200;" x="46.43066660563151" y="0" dx="0em" dy="0.95em" fill="rgb(50, 49, 63)" stroke="none" stroke-width="1px">10</text><text style="text-anchor: middle; visibility: inherit; font-family: &quot;Helvetica Neue&quot;, sans-serif; font-size: 12px; font-weight: 200;" x="69.64599990844727" y="0" dx="0em" dy="0.95em" fill="rgb(50, 49, 63)" stroke="none" stroke-width="1px">20</text><text style="text-anchor: middle; visibility: hidden; font-family: &quot;Helvetica Neue&quot;, sans-serif; font-size: 12px; font-weight: 200;" x="92.86133321126302" y="0" dx="0em" dy="0.95em" fill="rgb(50, 49, 63)" stroke="none" stroke-width="1px">30</text><text style="text-anchor: middle; visibility: inherit; font-family: &quot;Helvetica Neue&quot;, sans-serif; font-size: 12px; font-weight: 200;" x="116.07666651407878" y="0" dx="0em" dy="0.95em" fill="rgb(50, 49, 63)" stroke="none" stroke-width="1px">40</text><text style="text-anchor: middle; visibility: hidden; font-family: &quot;Helvetica Neue&quot;, sans-serif; font-size: 12px; font-weight: 200;" x="139.29199981689453" y="0" dx="0em" dy="0.95em" fill="rgb(50, 49, 63)" stroke="none" stroke-width="1px">50</text><text style="text-anchor: middle; visibility: inherit; font-family: &quot;Helvetica Neue&quot;, sans-serif; font-size: 12px; font-weight: 200;" x="162.5073331197103" y="0" dx="0em" dy="0.95em" fill="rgb(50, 49, 63)" stroke="none" stroke-width="1px">60</text><text style="text-anchor: middle; visibility: hidden; font-family: &quot;Helvetica Neue&quot;, sans-serif; font-size: 12px; font-weight: 200;" x="185.72266642252603" y="0" dx="0em" dy="0.95em" fill="rgb(50, 49, 63)" stroke="none" stroke-width="1px">70</text><text style="text-anchor: middle; visibility: inherit; font-family: &quot;Helvetica Neue&quot;, sans-serif; font-size: 12px; font-weight: 200;" x="208.9379997253418" y="0" dx="0em" dy="0.95em" fill="rgb(50, 49, 63)" stroke="none" stroke-width="1px">80</text><text style="text-anchor: middle; visibility: hidden; font-family: &quot;Helvetica Neue&quot;, sans-serif; font-size: 12px; font-weight: 200;" x="232.15333302815756" y="0" dx="0em" dy="0.95em" fill="rgb(50, 49, 63)" stroke="none" stroke-width="1px">90</text><text style="text-anchor: middle; visibility: inherit; font-family: &quot;Helvetica Neue&quot;, sans-serif; font-size: 12px; font-weight: 200;" x="255.3686663309733" y="0" dx="0em" dy="0.95em" fill="rgb(50, 49, 63)" stroke="none" stroke-width="1px">100</text><text style="text-anchor: middle; visibility: hidden; font-family: &quot;Helvetica Neue&quot;, sans-serif; font-size: 12px; font-weight: 200;" x="278.58399963378906" y="0" dx="0em" dy="0.95em" fill="rgb(50, 49, 63)" stroke="none" stroke-width="1px">110</text></g><line x1="0" y1="0" x2="278.58399963378906" y2="0" fill="rgb(0, 0, 0)" stroke="rgb(204, 204, 204)" stroke-width="1px"></line></g></g></g></g></svg>