<svg viewBox="0 0 330 200" xmlns="http://www.w3.org/2000/svg"><g><g><g><g><g><line x1="51.41600036621094" y1="177.95999908447266" x2="46.41600036621094" y2="177.95999908447266" style="visibility: inherit;" fill="rgb(0, 0, 0)" stroke="rgb(204, 204, 204)" stroke-width="1px"></line><line x1="51.41600036621094" y1="158.1866658528646" x2="46.41600036621094" y2="158.1866658528646" style="visibility: inherit;" fill="rgb(0, 0, 0)" stroke="rgb(204, 204, 204)" stroke-width="1px"></line><line x1="51.41600036621094" y1="138.4133326212565" x2="46.41600036621094" y2="138.4133326212565" style="visibility: inherit;" fill="rgb(0, 0, 0)" stroke="rgb(204, 204, 204)" stroke-width="1px"></line><line x1="51.41600036621094" y1="118.63999938964844" x2="46.41600036621094" y2="118.63999938964844" style="visibility: inherit;" fill="rgb(0, 0, 0)" stroke="rgb(204, 204, 204)" stroke-width="1px"></line><line x1="51.41600036621094" y1="98.86666615804036" x2="46.41600036621094" y2="98.86666615804036" style="visibility: inherit;" fill="rgb(0, 0, 0)" stroke="rgb(204, 204, 204)" stroke-width="1px"></line><line x1="51.41600036621094" y1="79.09333292643228" x2="46.41600036621094" y2="79.09333292643228" style="visibility: inherit;" fill="rgb(0, 0, 0)" stroke="rgb(204, 204, 204)" stroke-width="1px"></line><line x1="51.41600036621094" y1="59.31999969482422" x2="46.41600036621094" y2="59.31999969482422" style="visibility: inherit;" fill="rgb(0, 0, 0)" stroke="rgb(204, 204, 204)" stroke-width="1px"></line><line x1="51.41600036621094" y1="39.546666463216155" x2="46.41600036621094" y2="39.546666463216155" style="visibility: inherit;" fill="rgb(0, 0, 0)" stroke="rgb(204, 204, 204)" stroke-width="1px"></line><line x1="51.41600036621094" y1="19.773333231608092" x2="46.41600036621094" y2="19.773333231608092" style="visibility: inherit;" fill="rgb(0, 0, 0)" stroke="rgb(204, 204, 204)" stroke-width="1px"></line><line x1="51.41600036621094" y1="0" x2="46.41600036621094" y2="0" style="visibility: inherit;" fill="rgb(0, 0, 0)" stroke="rgb(204, 204, 204)" stroke-width="1px"></line></g><g transform="translate(41.41600036621094, 0)"><text style="text-anchor: end; visibility: hidden; font-family: &quot;Helvetica Neue&quot;, sans-serif; font-size: 12px; font-weight: 200;" x="0" y="177.95999908447266" dx="0em" dy="0.3em" fill="rgb(50, 49, 63)" stroke="none" stroke-width="1px">-0.1</text><text style="text-anchor: end; visibility: inherit; font-family: &quot;Helvetica Neue&quot;, sans-serif; font-size: 12px; font-weight: 200;" x="0" y="158.1866658528646" dx="0em" dy="0.3em" fill="rgb(50, 49, 63)" stroke="none" stroke-width="1px">0</text><text style="text-anchor: end; visibility: hidden; font-family: &quot;Helvetica Neue&quot;, sans-serif; font-size: 12px; font-weight: 200;" x="0" y="138.4133326212565" dx="0em" dy="0.3em" fill="rgb(50, 49, 63)" stroke="none" stroke-width="1px">0.1</text><text style="text-anchor: end; visibility: inherit; font-family: &quot;Helvetica Neue&quot;, sans-serif; font-size: 12px; font-weight: 200;" x="0" y="118.63999938964844" dx="0em" dy="0.3em" fill="rgb(50, 49, 63)" stroke="none" stroke-width="1px">0.2</text><text style="text-anchor: end; visibility: hidden; font-family: &quot;Helvetica Neue&quot;, sans-serif; font-size: 12px; font-weight: 200;" x="0" y="98.86666615804036" dx="0em" dy="0.3em" fill="rgb(50, 49, 63)" stroke="none" stroke-width="1px">0.3</text><text style="text-anchor: end; visibility: inherit; font-family: &quot;Helvetica Neue&quot;, sans-serif; font-size: 12px; font-weight: 200;" x="0" y="79.09333292643228" dx="0em" dy="0.3em" fill="rgb(50, 49, 63)" stroke="none" stroke-width="1px">0.4</text><text style="text-anchor: end; visibility: hidden; font-family: &quot;Helvetica Neue&quot;, sans-serif; font-size: 12px; font-weight: 200;" x="0" y="59.31999969482422" dx="0em" dy="0.3em" fill="rgb(50, 49, 63)" stroke="none" stroke-width="1px">0.5</text><text style="text-anchor: end; visibility: inherit; font-family: &quot;Helvetica Neue&quot;, sans-serif; font-size: 12px; font-weight: 200;" x="0" y="39.546666463216155" dx="0em" dy="0.3em" fill="rgb(50, 49, 63)" stroke="none" stroke-width="1px">0.6</text><text style="text-anchor: end; visibility: hidden; font-family: &quot;Helvetica Neue&quot;, sans-serif; font-size: 12px; font-weight: 200;" x="0" y="19.773333231608092" dx="0em" dy="0.3em" fill="rgb(50, 49, 63)" stroke="none" stroke-width="1px">0.7</text><text style="text-anchor: end; visibility: hidden; font-family: &quot;Helvetica Neue&quot;, sans-serif; font-size: 12px; font-weight: 200;" x="0" y="0" dx="0em" dy="0.3em" fill="rgb(50, 49, 63)" stroke="none" stroke-width="1px">0.8</text></g><line x1="51.41600036621094" y1="0" x2="51.41600036621094" y2="177.95999908447266" fill="rgb(0, 0, 0)" stroke="rgb(204, 204, 204)" stroke-width="1px"></line></g></g><g transform="translate(51, 0)" clip-path="url(#clip_0)"><clipPath id="clip_0"><rect width="278" height="177"></rect></clipPath><g><g><g><line x1="0" y1="0" x2="0" y2="177.95999908447266" fill="rgb(0, 0, 0)" stroke="rgb(60, 60, 60)" stroke-width="1px" opacity="0.25"></line><line x1="23.215333302815754" y1="0" x2="23.215333302815754" y2="177.95999908447266" fill="rgb(0, 0, 0)" stroke="rgb(60, 60, 60)" stroke-width="1px" opacity="0.25"></line><line x1="46.43066660563151" y1="0" x2="46.43066660563151" y2="177.95999908447266" fill="rgb(0, 0, 0)" stroke="rgb(60, 60, 60)" stroke-width="1px" opacity="0.25"></line><line x1="69.64599990844727" y1="0" x2="69.64599990844727" y2="177.95999908447266" fill="rgb(0, 0, 0)" stroke="rgb(60, 60, 60)" stroke-width="1px" opacity="0.25"></line><line x1="92.86133321126302" y1="0" x2="92.86133321126302" y2="177.95999908447266" fill="rgb(0, 0, 0)" stroke="rgb(60, 60, 60)" stroke-width="1px" opacity="0.25"></line><line x1="116.07666651407878" y1="0" x2="116.07666651407878" y2="177.95999908447266" fill="rgb(0, 0, 0)" stroke="rgb(60, 60, 60)" stroke-width="1px" opacity="0.25"></line><line x1="139.29199981689453" y1="0" x2="139.29199981689453" y2="177.95999908447266" fill="rgb(0, 0, 0)" stroke="rgb(60, 60, 60)" stroke-width="1px" opacity="0.25"></line><line x1="162.5073331197103" y1="0" x2="162.5073331197103" y2="177.95999908447266" fill="rgb(0, 0, 0)" stroke="rgb(60, 60, 60)" stroke-width="1px" opacity="0.25"></line><line x1="185.72266642252603" y1="0" x2="185.72266642252603" y2="177.95999908447266" fill="rgb(0, 0, 0)" stroke="rgb(60, 60, 60)" stroke-width="1px" opacity="0.25"></line><line x1="208.9379997253418" y1="0" x2="208.9379997253418" y2="177.95999908447266" fill="rgb(0, 0, 0)" stroke="rgb(60, 60, 60)" stroke-width="1px" opacity="0.25"></line><line x1="232.15333302815756" y1="0" x2="232.15333302815756" y2="177.95999908447266" fill="rgb(0, 0, 0)" stroke="rgb(60, 60, 60)" stroke-width="1px" opacity="0.25"></line><line x1="255.3686663309733" y1="0" x2="255.3686663309733" y2="177.95999908447266" fill="rgb(0, 0, 0)" stroke="rgb(60, 60, 60)" stroke-width="1px" opacity="0.25"></line><line x1="278.58399963378906" y1="0" x2="278.58399963378906" y2="177.95999908447266" fill="rgb(0, 0, 0)" stroke="rgb(60, 60, 60)" stroke-width="1px" opacity="0.25"></line></g><g><line x1="0" y1="177.95999908447266" x2="278.58399963378906" y2="177.95999908447266" fill="rgb(0, 0, 0)" stroke="rgb(60, 60, 60)" stroke-width="1px" opacity="0.25"></line><line x1="0" y1="158.1866658528646" x2="278.58399963378906" y2="158.1866658528646" fill="rgb(0, 0, 0)" stroke="rgb(60, 60, 60)" stroke-width="1px" opacity="0.25"></line><line x1="0" y1="138.4133326212565" x2="278.58399963378906" y2="138.4133326212565" fill="rgb(0, 0, 0)" stroke="rgb(60, 60, 60)" stroke-width="1px" opacity="0.25"></line><line x1="0" y1="118.63999938964844" x2="278.58399963378906" y2="118.63999938964844" fill="rgb(0, 0, 0)" stroke="rgb(60, 60, 60)" stroke-width="1px" opacity="0.25"></line><line x1="0" y1="98.86666615804036" x2="278.58399963378906" y2="98.86666615804036" fill="rgb(0, 0, 0)" stroke="rgb(60, 60, 60)" stroke-width="1px" opacity="0.25"></line><line x1="0" y1="79.09333292643228" x2="278.58399963378906" y2="79.09333292643228" fill="rgb(0, 0, 0)" stroke="rgb(60, 60, 60)" stroke-width="1px" opacity="0.25"></line><line x1="0" y1="59.31999969482422" x2="278.58399963378906" y2="59.31999969482422" fill="rgb(0, 0, 0)" stroke="rgb(60, 60, 60)" stroke-width="1px" opacity="0.25"></line><line x1="0" y1="39.546666463216155" x2="278.58399963378906" y2="39.546666463216155" fill="rgb(0, 0, 0)" stroke="rgb(60, 60, 60)" stroke-width="1px" opacity="0.25"></line><line x1="0" y1="19.773333231608092" x2="278.58399963378906" y2="19.773333231608092" fill="rgb(0, 0, 0)" stroke="rgb(60, 60, 60)" stroke-width="1px" opacity="0.25"></line><line x1="0" y1="0" x2="278.58399963378906" y2="0" fill="rgb(0, 0, 0)" stroke="rgb(60, 60, 60)" stroke-width="1px" opacity="0.25"></line></g></g></g><g><g><line x1="0" y1="158.1866658528646" x2="278.58399963378906" y2="158.1866658528646" fill="rgb(0, 0, 0)" stroke="rgb(153, 153, 153)" stroke-width="1.5px"></line></g></g><g><g><line x1="23.215333302815754" y1="0" x2="23.215333302815754" y2="177.95999908447266" fill="rgb(0, 0, 0)" stroke="rgb(153, 153, 153)" stroke-width="1.5px"></line></g></g><g><g><g><g><g><path style="fill: none;" stroke="rgb(0, 119, 187)" stroke-width="2px" d="M23.215333302815754,35.97163208416504L25.53686663309733,36.63113002230591L27.858399963378908,36.89533770267636L30.179933293660483,36.851951753277206L32.50146662394206,37.0220575217088L34.82299995422363,37.508426691896915L37.14453328450521,38.35309390166188L39.46606661478678,39.59592046467802L41.78759994506836,41.00597062227226L44.10913327534993,43.41806121878727L46.43066660563151,45.14136048128819L48.75219993591308,47.96910248060897L51.07373326619466,49.89020897178975L53.39526659647624,50.90680200735174L55.716799926757815,52.371782316889664L58.03833325703939,53.22946745729453L60.359866587320965,53.85125883606196L62.68139991760254,55.06987197930546L65.00293324788412,56.24036298519157L67.3244665781657,57.73874288468788L69.64599990844727,59.7399042970833L71.96753323872885,62.1447207125467L74.28906656901042,63.57565588332049L76.610599899292,64.7855727913524L78.93213322957357,65.50601762824388L81.25366655985515,66.82015436757129L83.57519989013672,67.7631473008168L85.8967332204183,67.78527614342894L88.21826655069987,69.75104814946295L90.53979988098145,70.0995416832162L92.86133321126302,69.68581339051508L95.1828665415446,67.55410953041674L97.50439987182617,67.23266915243588L99.82593320210775,68.59759640383429L102.14746653238932,68.65746544086325L104.4689998626709,66.83960385252789L106.79053319295248,67.94866402424125L109.11206652323405,68.91363215287132L111.43359985351563,68.20603700681738L113.7551331837972,65.08378706731983L116.07666651407878,64.70360920973008L118.39819984436035,65.30367356351556L120.71973317464193,65.42652951824037L123.0412665049235,63.616194101268206L125.36279983520508,64.31569384535922L127.68433316548665,62.05110839688935L130.00586649576823,61.81294630057805L132.3273998260498,61.4878119018033L134.6489331563314,61.374520173942926L136.97046648661293,61.4868941890484L139.29199981689453,60.289100852157304L141.6135331471761,59.130431715564825L143.9350664774577,57.886505791726265L146.25659980773926,57.75089640496287L148.57813313802083,55.30084394376034L150.8996664683024,53.98025201412773L153.221199798584,53.218365571223686L155.54273312886556,51.663223816441075L157.86426645914713,52.05132974976593L160.1857997894287,52.207717448286985L162.5073331197103,52.137151951179916L164.82886644999186,50.56278739987198L167.15039978027343,49.48451269888352L169.471933110555,46.158695848920104L171.7934664408366,46.544093254159264L174.11499977111816,44.38092348360777L176.43653310139973,45.26935816551011L178.75806643168133,45.226978424582484L181.0795997619629,42.56084219479226L183.40113309224446,44.15524632775907L185.72266642252603,42.949350201212525L188.04419975280763,41.684574439461244L190.3657330830892,41.958595116648496L192.68726641337076,42.111330127518215L195.00879974365233,39.14765628146711L197.33033307393393,38.876722279980896L199.6518664042155,38.818504145270936L201.97339973449706,40.01729457157455L204.29493306477863,38.5733655004982L206.61646639506023,38.67764146426637L208.9379997253418,35.63731988579133L211.25953305562336,32.67302279697847L213.58106638590496,34.987402289485004L215.90259971618653,32.75213393251619L218.2241330464681,34.57035660594886L220.54566637674967,35.73397103582164L222.86719970703126,33.80589487299213L225.18873303731283,32.83202175176601L227.5102663675944,34.94306892076685L229.83179969787597,31.3873477653936L232.15333302815756,30.72260330148623L234.47486635843913,27.308956722702163L236.7963996887207,28.202694562527626L239.11793301900227,27.322677101182933L241.43946634928386,27.746282423516874L243.76099967956543,27.43511730472656L246.082533009847,25.424887098373574L248.4040663401286,25.232631644516715L250.72559967041016,27.6372244798186L253.04713300069173,23.990516785679148" fill="none"></path></g><g><path style="fill: none;" stroke="rgb(255, 112, 67)" stroke-width="2px" d="M23.215333302815754,34.5721950055771L25.53686663309733,36.00934377781422L27.858399963378908,36.68897247636312L30.179933293660483,36.77943153532823L32.50146662394206,36.87674579094403L34.82299995422363,37.06632498693841L37.14453328450521,37.86524752688911L39.46606661478678,38.96919866352539L41.78759994506836,40.07496444146173L44.10913327534993,42.275226184447064L46.43066660563151,44.65543169486406L48.75219993591308,46.97040624853227L51.07373326619466,48.94230558013325L53.39526659647624,50.81140089875751L55.716799926757815,52.189679570165694L58.03833325703939,53.524627249208194L60.359866587320965,54.66592377912035L62.68139991760254,56.02275420031884L65.00293324788412,57.76733070453943L67.3244665781657,60.03922994781992L69.64599990844727,62.3865580282845L71.96753323872885,64.36185349541869L74.28906656901042,66.84617824653465L76.610599899292,69.01239794795495L78.93213322957357,70.97043647139775L81.25366655985515,72.96500398108334L83.57519989013672,75.31583033512203L85.8967332204183,78.04989714332255L88.21826655069987,80.4137267891094L90.53979988098145,82.55735213802076L92.86133321126302,84.43134750272642L95.1828665415446,86.56463955155739L97.50439987182617,88.15895678382518L99.82593320210775,89.30898546910463L102.14746653238932,90.45704225680923L104.4689998626709,91.69851130113136L106.79053319295248,93.24852721864832L109.11206652323405,94.44615513587132L111.43359985351563,95.78364798618846L113.7551331837972,97.0048987727823L116.07666651407878,97.26846026308557L118.39819984436035,98.67632125809303L120.71973317464193,98.8465845882983L123.0412665049235,99.79855242904337L125.36279983520508,100.62295394140922L127.68433316548665,101.43467361398525L130.00586649576823,102.32982025242487L132.3273998260498,103.2211759929757L134.6489331563314,103.80472146664033L136.97046648661293,104.27498402256094L139.29199981689453,105.1100381800595L141.6135331471761,106.19007997244672L143.9350664774577,107.15148070684378L146.25659980773926,108.05238890691744L148.57813313802083,108.61679305115776L150.8996664683024,109.47470602424632L153.221199798584,109.94959179067278L155.54273312886556,109.99834828127571L157.86426645914713,109.90766137002458L160.1857997894287,110.6411516626295L162.5073331197103,111.6208798732288L164.82886644999186,112.37894300628683L167.15039978027343,112.72706377619576L169.471933110555,113.16166307350227L171.7934664408366,113.61101235256848L174.11499977111816,114.21681375765573L176.43653310139973,114.03934644618055L178.75806643168133,114.1836613445017L181.0795997619629,115.02190895370858L183.40113309224446,115.06281899904829L185.72266642252603,116.00077707354862L188.04419975280763,116.56016113638682L190.3657330830892,116.71352025420761L192.68726641337076,117.43739973373184L195.00879974365233,117.7040363457125L197.33033307393393,117.6945004342869L199.6518664042155,117.75326385051684L201.97339973449706,117.82615050383751L204.29493306477863,118.6968832311498L206.61646639506023,118.90577749269046L208.9379997253418,119.18192546673654L211.25953305562336,119.31455619052926L213.58106638590496,119.4839414329735L215.90259971618653,119.99088827990585L218.2241330464681,120.14959809267353L220.54566637674967,120.37390587184257L222.86719970703126,120.58861293508302L225.18873303731283,121.06772250024923L227.5102663675944,121.2566728850635L229.83179969787597,121.7306728618054L232.15333302815756,122.11027402813673L234.47486635843913,122.49051855362939L236.7963996887207,122.42342210177198L239.11793301900227,122.89875282546166L241.43946634928386,122.83030697231914L243.76099967956543,123.6309724770447L246.082533009847,123.5556960583913L248.4040663401286,123.71405136961582L250.72559967041016,123.36626521694993L253.04713300069173,123.77571054786372" fill="none"></path></g></g></g></g><g opacity="0.2"><g><g><g><path style="fill: none;" stroke="rgb(0, 119, 187)" stroke-width="2px" d="M23.215333302815754,35.97163208416504L25.53686663309733,37.026828785190446L27.858399963378908,37.14897707583199L30.179933293660483,36.80092987678381L32.50146662394206,37.24414761297308L34.82299995422363,38.181250347168316L37.14453328450521,39.56098152630116L39.46606661478678,41.40797352469053L41.78759994506836,43.08552071658113L44.10913327534993,46.999734639925606L46.43066660563151,47.71067917756349L48.75219993591308,52.19532703250297L51.07373326619466,52.76559596254751L53.39526659647624,52.42969994910831L55.716799926757815,54.567530751835875L58.03833325703939,54.51539026189009L60.359866587320965,54.78368278294026L62.68139991760254,56.897482288425635L65.00293324788412,57.99592118149698L67.3244665781657,59.986175776074404L69.64599990844727,62.74153666722867L71.96753323872885,65.75186620423332L74.28906656901042,65.7220303881624L76.610599899292,66.60043382078099L78.93213322957357,66.58667976296753L81.25366655985515,68.7913538723695L83.57519989013672,69.17763428782459L85.8967332204183,67.81846937337423L88.21826655069987,72.69970434776012L90.53979988098145,70.62228179123895L92.86133321126302,69.06522108866027L95.1828665415446,64.3565541644069L97.50439987182617,66.75050862383812L99.82593320210775,70.64498718316494L102.14746653238932,68.74726899383374L104.4689998626709,64.11281151690038L106.79053319295248,69.61225426465232L109.11206652323405,70.36108433685862L111.43359985351563,67.14464429167765L113.7551331837972,60.40041216850767L116.07666651407878,64.13334242410777L118.39819984436035,66.20377009347187L120.71973317464193,65.61081345023892L123.0412665049235,60.90069097659398L125.36279983520508,65.36494346131396L127.68433316548665,58.65423022453767L130.00586649576823,61.45570315613334L132.3273998260498,61.00011030365947L134.6489331563314,61.20458258215619L136.97046648661293,61.65545521170438L139.29199981689453,58.4924108468352L141.6135331471761,57.392428010684554L143.9350664774577,56.02061690597384L146.25659980773926,57.547482324818105L148.57813313802083,51.62576525196043L150.8996664683024,51.99936411968005L153.221199798584,52.075535906868026L155.54273312886556,49.33051118426769L157.86426645914713,52.63348864975312L160.1857997894287,52.442298996068544L162.5073331197103,52.03130370551935L164.82886644999186,48.20124057291014L167.15039978027343,47.86710064740086L169.471933110555,41.169970573975064L171.7934664408366,47.12218936201802L174.11499977111816,41.13616882778055L176.43653310139973,46.60201018836355L178.75806643168133,45.16340881319107L181.0795997619629,38.56163785010693L183.40113309224446,46.546852527209325L185.72266642252603,41.14050601139266L188.04419975280763,39.78741079683431L190.3657330830892,42.3696261324294L192.68726641337076,42.340432643822794L195.00879974365233,34.702145512390416L197.33033307393393,38.470321277751594L199.6518664042155,38.73117694320595L201.97339973449706,41.81548021102998L204.29493306477863,36.40747189388367L206.61646639506023,38.83405540991862L208.9379997253418,31.07683751807872L211.25953305562336,28.226577163759146L213.58106638590496,38.45897152824486L215.90259971618653,29.399231397062977L218.2241330464681,37.29769061609781L220.54566637674967,37.479392680630866L222.86719970703126,30.913780628747816L225.18873303731283,31.371212069926827L227.5102663675944,38.109639674268095L229.83179969787597,26.053766032333755L232.15333302815756,29.725486605625235L234.47486635843913,22.188486854526076L236.7963996887207,29.54330132226582L239.11793301900227,26.002650909165823L241.43946634928386,28.381690407017828L243.76099967956543,26.96836962654106L246.082533009847,22.409541788844166L248.4040663401286,24.94424846373144L250.72559967041016,31.24411373277144L253.04713300069173,18.5204552444699" fill="none"></path></g><g><path style="fill: none;" stroke="rgb(255, 112, 67)" stroke-width="2px" d="M23.215333302815754,34.57219500557707L25.53686663309733,36.871633041156514L27.858399963378908,37.34141602697005L30.179933293660483,36.88581138867116L32.50146662394206,37.00379928307606L34.82299995422363,37.328581263509165L37.14453328450521,39.00771954177921L39.46606661478678,40.578770018672L41.78759994506836,41.705754179973155L44.10913327534993,45.54235844547566L46.43066660563151,48.204151671693296L48.75219993591308,50.430270089742706L51.07373326619466,51.89371598408465L53.39526659647624,53.61138212438739L55.716799926757815,54.255477462438364L58.03833325703939,55.526107259241144L60.359866587320965,56.3773856155464L62.68139991760254,58.057655333019596L65.00293324788412,60.383929692199075L67.3244665781657,63.446871152150834L69.64599990844727,65.90742141593077L71.96753323872885,67.3247316981812L74.28906656901042,70.57261632455008L76.610599899292,72.26170183914792L78.93213322957357,73.90748033966217L81.25366655985515,75.9568467396924L83.57519989013672,78.84206385105972L85.8967332204183,82.1509931581868L88.21826655069987,83.95946908036848L90.53979988098145,85.77278897663868L92.86133321126302,87.24233992834768L95.1828665415446,89.76457720035009L97.50439987182617,90.55043244189741L99.82593320210775,91.0340284146496L102.14746653238932,92.17912738902639L104.4689998626709,93.56071483560194L106.79053319295248,95.57355107094251L109.11206652323405,96.24259700058823L111.43359985351563,97.7898872542146L113.7551331837972,98.8367749485918L116.07666651407878,97.66380249801205L118.39819984436035,100.78811274891041L120.71973317464193,99.10197958348333L123.0412665049235,101.2265041897487L125.36279983520508,101.85955620974377L127.68433316548665,102.65225312272273L130.00586649576823,103.67254021000053L132.3273998260498,104.55820960375196L134.6489331563314,104.6800396771176L136.97046648661293,104.98037785643238L139.29199981689453,106.36261941629725L141.6135331471761,107.81014266101965L143.9350664774577,108.59358180843523L146.25659980773926,109.40375120702554L148.57813313802083,109.46339926751732L150.8996664683024,110.76157548387839L153.221199798584,110.66192044031224L155.54273312886556,110.07148301718009L157.86426645914713,109.77163100314792L160.1857997894287,111.74138710153679L162.5073331197103,113.0904721891277L164.82886644999186,113.51603770587387L167.15039978027343,113.24924493105914L169.471933110555,113.81356201946203L171.7934664408366,114.28503627116783L174.11499977111816,115.12551586528662L176.43653310139973,113.77314547896778L178.75806643168133,114.40013369198338L181.0795997619629,116.27928036751891L183.40113309224446,115.1241840670579L185.72266642252603,117.40771418529911L188.04419975280763,117.39923723064416L190.3657330830892,116.94355893093879L192.68726641337076,118.52321895301816L195.00879974365233,118.10399126368347L197.33033307393393,117.6801965671485L199.6518664042155,117.84140897486176L201.97339973449706,117.93548048381854L204.29493306477863,120.00298232211821L206.61646639506023,119.21911888500146L208.9379997253418,119.59614742780568L211.25953305562336,119.51350227621833L213.58106638590496,119.73801929663986L215.90259971618653,120.75130855030436L218.2241330464681,120.38766281182507L220.54566637674967,120.71036754059614L222.86719970703126,120.91067352994371L225.18873303731283,121.78638684799853L227.5102663675944,121.5400984622849L229.83179969787597,122.44167282691828L232.15333302815756,122.67967577763375L234.47486635843913,123.06088534186841L236.7963996887207,122.32277742398583L239.11793301900227,123.61174891099617L241.43946634928386,122.72763819260535L243.76099967956543,124.83197073413302L246.082533009847,123.44278143041122L248.4040663401286,123.95158433645263L250.72559967041016,122.8445859879511L253.04713300069173,124.38987854423439" fill="none"></path></g></g></g></g></g></g><g transform="translate(51, 177)" clip-path="url(#clip_1)"><clipPath id="clip_1"><rect width="278" height="22"></rect></clipPath><g><g><line x1="0" y1="0" x2="0" y2="5" style="visibility: inherit;" fill="rgb(0, 0, 0)" stroke="rgb(204, 204, 204)" stroke-width="1px"></line><line x1="23.215333302815754" y1="0" x2="23.215333302815754" y2="5" style="visibility: inherit;" fill="rgb(0, 0, 0)" stroke="rgb(204, 204, 204)" stroke-width="1px"></line><line x1="46.43066660563151" y1="0" x2="46.43066660563151" y2="5" style="visibility: inherit;" fill="rgb(0, 0, 0)" stroke="rgb(204, 204, 204)" stroke-width="1px"></line><line x1="69.64599990844727" y1="0" x2="69.64599990844727" y2="5" style="visibility: inherit;" fill="rgb(0, 0, 0)" stroke="rgb(204, 204, 204)" stroke-width="1px"></line><line x1="92.86133321126302" y1="0" x2="92.86133321126302" y2="5" style="visibility: inherit;" fill="rgb(0, 0, 0)" stroke="rgb(204, 204, 204)" stroke-width="1px"></line><line x1="116.07666651407878" y1="0" x2="116.07666651407878" y2="5" style="visibility: inherit;" fill="rgb(0, 0, 0)" stroke="rgb(204, 204, 204)" stroke-width="1px"></line><line x1="139.29199981689453" y1="0" x2="139.29199981689453" y2="5" style="visibility: inherit;" fill="rgb(0, 0, 0)" stroke="rgb(204, 204, 204)" stroke-width="1px"></line><line x1="162.5073331197103" y1="0" x2="162.5073331197103" y2="5" style="visibility: inherit;" fill="rgb(0, 0, 0)" stroke="rgb(204, 204, 204)" stroke-width="1px"></line><line x1="185.72266642252603" y1="0" x2="185.72266642252603" y2="5" style="visibility: inherit;" fill="rgb(0, 0, 0)" stroke="rgb(204, 204, 204)" stroke-width="1px"></line><line x1="208.9379997253418" y1="0" x2="208.9379997253418" y2="5" style="visibility: inherit;" fill="rgb(0, 0, 0)" stroke="rgb(204, 204, 204)" stroke-width="1px"></line><line x1="232.15333302815756" y1="0" x2="232.15333302815756" y2="5" style="visibility: inherit;" fill="rgb(0, 0, 0)" stroke="rgb(204, 204, 204)" stroke-width="1px"></line><line x1="255.3686663309733" y1="0" x2="255.3686663309733" y2="5" style="visibility: inherit;" fill="rgb(0, 0, 0)" stroke="rgb(204, 204, 204)" stroke-width="1px"></line><line x1="278.58399963378906" y1="0" x2="278.58399963378906" y2="5" style="visibility: inherit;" fill="rgb(0, 0, 0)" stroke="rgb(204, 204, 204)" stroke-width="1px"></line></g><g transform="translate(0, 8)"><text style="text-anchor: middle; visibility: hidden; font-family: &quot;Helvetica Neue&quot;, sans-serif; font-size: 12px; font-weight: 200;" x="0" y="0" dx="0em" dy="0.95em" fill="rgb(50, 49, 63)" stroke="none" stroke-width="1px">-10</text><text style="text-anchor: middle; visibility: inherit; font-family: &quot;Helvetica Neue&quot;, sans-serif; font-size: 12px; font-weight: 200;" x="23.215333302815754" y="0" dx="0em" dy="0.95em" fill="rgb(50, 49, 63)" stroke="none" stroke-width="1px">0</text><text style="text-anchor: middle; visibility: hidden; font-family: &quot;Helvetica Neue&quot;, sans-serif; font-size: 12px; font-weight: 200;" x="46.43066660563151" y="0" dx="0em" dy="0.95em" fill="rgb(50, 49, 63)" stroke="none" stroke-width="1px">10</text><text style="text-anchor: middle; visibility: inherit; font-family: &quot;Helvetica Neue&quot;, sans-serif; font-size: 12px; font-weight: 200;" x="69.64599990844727" y="0" dx="0em" dy="0.95em" fill="rgb(50, 49, 63)" stroke="none" stroke-width="1px">20</text><text style="text-anchor: middle; visibility: hidden; font-family: &quot;Helvetica Neue&quot;, sans-serif; font-size: 12px; font-weight: 200;" x="92.86133321126302" y="0" dx="0em" dy="0.95em" fill="rgb(50, 49, 63)" stroke="none" stroke-width="1px">30</text><text style="text-anchor: middle; visibility: inherit; font-family: &quot;Helvetica Neue&quot;, sans-serif; font-size: 12px; font-weight: 200;" x="116.07666651407878" y="0" dx="0em" dy="0.95em" fill="rgb(50, 49, 63)" stroke="none" stroke-width="1px">40</text><text style="text-anchor: middle; visibility: hidden; font-family: &quot;Helvetica Neue&quot;, sans-serif; font-size: 12px; font-weight: 200;" x="139.29199981689453" y="0" dx="0em" dy="0.95em" fill="rgb(50, 49, 63)" stroke="none" stroke-width="1px">50</text><text style="text-anchor: middle; visibility: inherit; font-family: &quot;Helvetica Neue&quot;, sans-serif; font-size: 12px; font-weight: 200;" x="162.5073331197103" y="0" dx="0em" dy="0.95em" fill="rgb(50, 49, 63)" stroke="none" stroke-width="1px">60</text><text style="text-anchor: middle; visibility: hidden; font-family: &quot;Helvetica Neue&quot;, sans-serif; font-size: 12px; font-weight: 200;" x="185.72266642252603" y="0" dx="0em" dy="0.95em" fill="rgb(50, 49, 63)" stroke="none" stroke-width="1px">70</text><text style="text-anchor: middle; visibility: inherit; font-family: &quot;Helvetica Neue&quot;, sans-serif; font-size: 12px; font-weight: 200;" x="208.9379997253418" y="0" dx="0em" dy="0.95em" fill="rgb(50, 49, 63)" stroke="none" stroke-width="1px">80</text><text style="text-anchor: middle; visibility: hidden; font-family: &quot;Helvetica Neue&quot;, sans-serif; font-size: 12px; font-weight: 200;" x="232.15333302815756" y="0" dx="0em" dy="0.95em" fill="rgb(50, 49, 63)" stroke="none" stroke-width="1px">90</text><text style="text-anchor: middle; visibility: inherit; font-family: &quot;Helvetica Neue&quot;, sans-serif; font-size: 12px; font-weight: 200;" x="255.3686663309733" y="0" dx="0em" dy="0.95em" fill="rgb(50, 49, 63)" stroke="none" stroke-width="1px">100</text><text style="text-anchor: middle; visibility: hidden; font-family: &quot;Helvetica Neue&quot;, sans-serif; font-size: 12px; font-weight: 200;" x="278.58399963378906" y="0" dx="0em" dy="0.95em" fill="rgb(50, 49, 63)" stroke="none" stroke-width="1px">110</text></g><line x1="0" y1="0" x2="278.58399963378906" y2="0" fill="rgb(0, 0, 0)" stroke="rgb(204, 204, 204)" stroke-width="1px"></line></g></g></g></g></svg>