<svg viewBox="0 0 330 200" xmlns="http://www.w3.org/2000/svg"><g><g><g><g><g><line x1="51.41600036621094" y1="177.95999908447266" x2="46.41600036621094" y2="177.95999908447266" style="visibility: inherit;" fill="rgb(0, 0, 0)" stroke="rgb(204, 204, 204)" stroke-width="1px"></line><line x1="51.41600036621094" y1="158.18666585286462" x2="46.41600036621094" y2="158.18666585286462" style="visibility: inherit;" fill="rgb(0, 0, 0)" stroke="rgb(204, 204, 204)" stroke-width="1px"></line><line x1="51.41600036621094" y1="138.41333262125653" x2="46.41600036621094" y2="138.41333262125653" style="visibility: inherit;" fill="rgb(0, 0, 0)" stroke="rgb(204, 204, 204)" stroke-width="1px"></line><line x1="51.41600036621094" y1="118.63999938964847" x2="46.41600036621094" y2="118.63999938964847" style="visibility: inherit;" fill="rgb(0, 0, 0)" stroke="rgb(204, 204, 204)" stroke-width="1px"></line><line x1="51.41600036621094" y1="98.86666615804037" x2="46.41600036621094" y2="98.86666615804037" style="visibility: inherit;" fill="rgb(0, 0, 0)" stroke="rgb(204, 204, 204)" stroke-width="1px"></line><line x1="51.41600036621094" y1="79.09333292643228" x2="46.41600036621094" y2="79.09333292643228" style="visibility: inherit;" fill="rgb(0, 0, 0)" stroke="rgb(204, 204, 204)" stroke-width="1px"></line><line x1="51.41600036621094" y1="59.31999969482422" x2="46.41600036621094" y2="59.31999969482422" style="visibility: inherit;" fill="rgb(0, 0, 0)" stroke="rgb(204, 204, 204)" stroke-width="1px"></line><line x1="51.41600036621094" y1="39.546666463216155" x2="46.41600036621094" y2="39.546666463216155" style="visibility: inherit;" fill="rgb(0, 0, 0)" stroke="rgb(204, 204, 204)" stroke-width="1px"></line><line x1="51.41600036621094" y1="19.773333231608092" x2="46.41600036621094" y2="19.773333231608092" style="visibility: inherit;" fill="rgb(0, 0, 0)" stroke="rgb(204, 204, 204)" stroke-width="1px"></line><line x1="51.41600036621094" y1="0" x2="46.41600036621094" y2="0" style="visibility: inherit;" fill="rgb(0, 0, 0)" stroke="rgb(204, 204, 204)" stroke-width="1px"></line></g><g transform="translate(41.41600036621094, 0)"><text style="text-anchor: end; visibility: hidden; font-family: &quot;Helvetica Neue&quot;, sans-serif; font-size: 12px; font-weight: 200;" x="0" y="177.95999908447266" dx="0em" dy="0.3em" fill="rgb(50, 49, 63)" stroke="none" stroke-width="1px">0.55</text><text style="text-anchor: end; visibility: inherit; font-family: &quot;Helvetica Neue&quot;, sans-serif; font-size: 12px; font-weight: 200;" x="0" y="158.18666585286462" dx="0em" dy="0.3em" fill="rgb(50, 49, 63)" stroke="none" stroke-width="1px">0.6</text><text style="text-anchor: end; visibility: hidden; font-family: &quot;Helvetica Neue&quot;, sans-serif; font-size: 12px; font-weight: 200;" x="0" y="138.41333262125653" dx="0em" dy="0.3em" fill="rgb(50, 49, 63)" stroke="none" stroke-width="1px">0.65</text><text style="text-anchor: end; visibility: inherit; font-family: &quot;Helvetica Neue&quot;, sans-serif; font-size: 12px; font-weight: 200;" x="0" y="118.63999938964847" dx="0em" dy="0.3em" fill="rgb(50, 49, 63)" stroke="none" stroke-width="1px">0.7</text><text style="text-anchor: end; visibility: hidden; font-family: &quot;Helvetica Neue&quot;, sans-serif; font-size: 12px; font-weight: 200;" x="0" y="98.86666615804037" dx="0em" dy="0.3em" fill="rgb(50, 49, 63)" stroke="none" stroke-width="1px">0.75</text><text style="text-anchor: end; visibility: inherit; font-family: &quot;Helvetica Neue&quot;, sans-serif; font-size: 12px; font-weight: 200;" x="0" y="79.09333292643228" dx="0em" dy="0.3em" fill="rgb(50, 49, 63)" stroke="none" stroke-width="1px">0.8</text><text style="text-anchor: end; visibility: hidden; font-family: &quot;Helvetica Neue&quot;, sans-serif; font-size: 12px; font-weight: 200;" x="0" y="59.31999969482422" dx="0em" dy="0.3em" fill="rgb(50, 49, 63)" stroke="none" stroke-width="1px">0.85</text><text style="text-anchor: end; visibility: inherit; font-family: &quot;Helvetica Neue&quot;, sans-serif; font-size: 12px; font-weight: 200;" x="0" y="39.546666463216155" dx="0em" dy="0.3em" fill="rgb(50, 49, 63)" stroke="none" stroke-width="1px">0.9</text><text style="text-anchor: end; visibility: hidden; font-family: &quot;Helvetica Neue&quot;, sans-serif; font-size: 12px; font-weight: 200;" x="0" y="19.773333231608092" dx="0em" dy="0.3em" fill="rgb(50, 49, 63)" stroke="none" stroke-width="1px">0.95</text><text style="text-anchor: end; visibility: hidden; font-family: &quot;Helvetica Neue&quot;, sans-serif; font-size: 12px; font-weight: 200;" x="0" y="0" dx="0em" dy="0.3em" fill="rgb(50, 49, 63)" stroke="none" stroke-width="1px">1</text></g><line x1="51.41600036621094" y1="0" x2="51.41600036621094" y2="177.95999908447266" fill="rgb(0, 0, 0)" stroke="rgb(204, 204, 204)" stroke-width="1px"></line></g></g><g transform="translate(51, 0)" clip-path="url(#clip_0)"><clipPath id="clip_0"><rect width="278" height="177"></rect></clipPath><g><g><g><line x1="0" y1="0" x2="0" y2="177.95999908447266" fill="rgb(0, 0, 0)" stroke="rgb(60, 60, 60)" stroke-width="1px" opacity="0.25"></line><line x1="23.215333302815754" y1="0" x2="23.215333302815754" y2="177.95999908447266" fill="rgb(0, 0, 0)" stroke="rgb(60, 60, 60)" stroke-width="1px" opacity="0.25"></line><line x1="46.43066660563151" y1="0" x2="46.43066660563151" y2="177.95999908447266" fill="rgb(0, 0, 0)" stroke="rgb(60, 60, 60)" stroke-width="1px" opacity="0.25"></line><line x1="69.64599990844727" y1="0" x2="69.64599990844727" y2="177.95999908447266" fill="rgb(0, 0, 0)" stroke="rgb(60, 60, 60)" stroke-width="1px" opacity="0.25"></line><line x1="92.86133321126302" y1="0" x2="92.86133321126302" y2="177.95999908447266" fill="rgb(0, 0, 0)" stroke="rgb(60, 60, 60)" stroke-width="1px" opacity="0.25"></line><line x1="116.07666651407878" y1="0" x2="116.07666651407878" y2="177.95999908447266" fill="rgb(0, 0, 0)" stroke="rgb(60, 60, 60)" stroke-width="1px" opacity="0.25"></line><line x1="139.29199981689453" y1="0" x2="139.29199981689453" y2="177.95999908447266" fill="rgb(0, 0, 0)" stroke="rgb(60, 60, 60)" stroke-width="1px" opacity="0.25"></line><line x1="162.5073331197103" y1="0" x2="162.5073331197103" y2="177.95999908447266" fill="rgb(0, 0, 0)" stroke="rgb(60, 60, 60)" stroke-width="1px" opacity="0.25"></line><line x1="185.72266642252603" y1="0" x2="185.72266642252603" y2="177.95999908447266" fill="rgb(0, 0, 0)" stroke="rgb(60, 60, 60)" stroke-width="1px" opacity="0.25"></line><line x1="208.9379997253418" y1="0" x2="208.9379997253418" y2="177.95999908447266" fill="rgb(0, 0, 0)" stroke="rgb(60, 60, 60)" stroke-width="1px" opacity="0.25"></line><line x1="232.15333302815756" y1="0" x2="232.15333302815756" y2="177.95999908447266" fill="rgb(0, 0, 0)" stroke="rgb(60, 60, 60)" stroke-width="1px" opacity="0.25"></line><line x1="255.3686663309733" y1="0" x2="255.3686663309733" y2="177.95999908447266" fill="rgb(0, 0, 0)" stroke="rgb(60, 60, 60)" stroke-width="1px" opacity="0.25"></line><line x1="278.58399963378906" y1="0" x2="278.58399963378906" y2="177.95999908447266" fill="rgb(0, 0, 0)" stroke="rgb(60, 60, 60)" stroke-width="1px" opacity="0.25"></line></g><g><line x1="0" y1="177.95999908447266" x2="278.58399963378906" y2="177.95999908447266" fill="rgb(0, 0, 0)" stroke="rgb(60, 60, 60)" stroke-width="1px" opacity="0.25"></line><line x1="0" y1="158.18666585286462" x2="278.58399963378906" y2="158.18666585286462" fill="rgb(0, 0, 0)" stroke="rgb(60, 60, 60)" stroke-width="1px" opacity="0.25"></line><line x1="0" y1="138.41333262125653" x2="278.58399963378906" y2="138.41333262125653" fill="rgb(0, 0, 0)" stroke="rgb(60, 60, 60)" stroke-width="1px" opacity="0.25"></line><line x1="0" y1="118.63999938964847" x2="278.58399963378906" y2="118.63999938964847" fill="rgb(0, 0, 0)" stroke="rgb(60, 60, 60)" stroke-width="1px" opacity="0.25"></line><line x1="0" y1="98.86666615804037" x2="278.58399963378906" y2="98.86666615804037" fill="rgb(0, 0, 0)" stroke="rgb(60, 60, 60)" stroke-width="1px" opacity="0.25"></line><line x1="0" y1="79.09333292643228" x2="278.58399963378906" y2="79.09333292643228" fill="rgb(0, 0, 0)" stroke="rgb(60, 60, 60)" stroke-width="1px" opacity="0.25"></line><line x1="0" y1="59.31999969482422" x2="278.58399963378906" y2="59.31999969482422" fill="rgb(0, 0, 0)" stroke="rgb(60, 60, 60)" stroke-width="1px" opacity="0.25"></line><line x1="0" y1="39.546666463216155" x2="278.58399963378906" y2="39.546666463216155" fill="rgb(0, 0, 0)" stroke="rgb(60, 60, 60)" stroke-width="1px" opacity="0.25"></line><line x1="0" y1="19.773333231608092" x2="278.58399963378906" y2="19.773333231608092" fill="rgb(0, 0, 0)" stroke="rgb(60, 60, 60)" stroke-width="1px" opacity="0.25"></line><line x1="0" y1="0" x2="278.58399963378906" y2="0" fill="rgb(0, 0, 0)" stroke="rgb(60, 60, 60)" stroke-width="1px" opacity="0.25"></line></g></g></g><g><g><line x1="0" y1="395.4666646321615" x2="278.58399963378906" y2="395.4666646321615" fill="rgb(0, 0, 0)" stroke="rgb(153, 153, 153)" stroke-width="1.5px"></line></g></g><g><g><line x1="23.215333302815754" y1="0" x2="23.215333302815754" y2="177.95999908447266" fill="rgb(0, 0, 0)" stroke="rgb(153, 153, 153)" stroke-width="1.5px"></line></g></g><g><g><g><g><g><path style="fill: none;" stroke="rgb(0, 119, 187)" stroke-width="2px" d="M23.215333302815754,137.36256503327849L25.53686663309733,137.36256503327849L27.858399963378908,137.39506023658367L30.179933293660483,137.40939635568887L32.50146662394206,137.38908436644076L34.82299995422363,137.4581166950113L37.14453328450521,135.45331091881997L39.46606661478678,131.79978558082288L41.78759994506836,128.84964525089543L44.10913327534993,123.69019777239868L46.43066660563151,120.71683474661353L48.75219993591308,116.82086909712507L51.07373326619466,114.25917618803359L53.39526659647624,111.24571140332367L55.716799926757815,108.54717939364238L58.03833325703939,107.36203415225754L60.359866587320965,104.4091647498095L62.68139991760254,102.20467954537564L65.00293324788412,98.66585612990899L67.3244665781657,94.98879068193716L69.64599990844727,92.7316932885363L71.96753323872885,89.97644350794546L74.28906656901042,87.38081112126926L76.610599899292,85.69607243652648L78.93213322957357,83.89557238387364L81.25366655985515,81.97467143845913L83.57519989013672,79.9560530864983L85.8967332204183,78.566577898331L88.21826655069987,75.69505743185086L90.53979988098145,74.0740413805338L92.86133321126302,71.9041994274631L95.1828665415446,72.20709021867115L97.50439987182617,72.36334843736032L99.82593320210775,70.77589780364907L102.14746653238932,70.66403022297195L104.4689998626709,71.43751244045724L106.79053319295248,70.3732348234304L109.11206652323405,69.68371577845797L111.43359985351563,69.80493938090069L113.7551331837972,71.48246919546578L116.07666651407878,71.77574666584341L118.39819984436035,70.95826238376357L120.71973317464193,69.83095068774294L123.0412665049235,70.68294003221713L125.36279983520508,69.56387117677939L127.68433316548665,69.47830794034586L130.00586649576823,70.11473417547796L132.3273998260498,69.88523560041885L134.6489331563314,70.48625311114212L136.97046648661293,70.10814696181946L139.29199981689453,69.44824377453492L141.6135331471761,69.68913241766873L143.9350664774577,69.88460865367105L146.25659980773926,70.46040070369475L148.57813313802083,70.6275705439499L150.8996664683024,70.09105132126206L153.221199798584,70.58426630424886L155.54273312886556,70.29432664598262L157.86426645914713,70.83360326737721L160.1857997894287,70.67317726374071L162.5073331197103,70.65334095107245L164.82886644999186,70.59049611334908L167.15039978027343,70.22164524192915L169.471933110555,71.24850073336715L171.7934664408366,71.12590680114448L174.11499977111816,72.50429808525068L176.43653310139973,72.21052918106051L178.75806643168133,72.87487059453682L181.0795997619629,73.5791526006773L183.40113309224446,73.2120620984936L185.72266642252603,72.60971134961495L188.04419975280763,73.03796060615582L190.3657330830892,72.68356527263093L192.68726641337076,72.72565275178826L195.00879974365233,72.77638147867387L197.33033307393393,73.03607658334624L199.6518664042155,72.17297607174072L201.97339973449706,72.3428799417404L204.29493306477863,72.5976608427676L206.61646639506023,72.72506257265266L208.9379997253418,73.18359062949213L211.25953305562336,74.75782595666824L213.58106638590496,73.91926611208817L215.90259971618653,73.44160644473136L218.2241330464681,73.51163085249443L220.54566637674967,73.0951297600702L222.86719970703126,73.12543002327916L225.18873303731283,73.57664967889534L227.5102663675944,73.72001913262892L229.83179969787597,74.26455654195112L232.15333302815756,73.26668425508078L234.47486635843913,74.24728029469449L236.7963996887207,74.42807466016309L239.11793301900227,74.68938985847166L241.43946634928386,74.97354131709291L243.76099967956543,74.07417156773424L246.082533009847,74.324209423987L248.4040663401286,74.01571640065656L250.72559967041016,73.2447425099401L253.04713300069173,73.34256001283723" fill="none"></path></g><g><path style="fill: none;" stroke="rgb(255, 112, 67)" stroke-width="2px" d="M23.215333302815754,142.16818804716544L25.53686663309733,138.31233752938414L27.858399963378908,137.42445600843217L30.179933293660483,137.07037588536926L32.50146662394206,137.3396851236276L34.82299995422363,137.2237797087152L37.14453328450521,136.58488362285993L39.46606661478678,133.53670366991932L41.78759994506836,131.06803668202167L44.10913327534993,127.41671727148568L46.43066660563151,122.70858652470045L48.75219993591308,118.64715763570621L51.07373326619466,115.72395805883811L53.39526659647624,113.05454430309881L55.716799926757815,111.50886252728196L58.03833325703939,109.30400305547153L60.359866587320965,107.29346346342207L62.68139991760254,104.96256444545425L65.00293324788412,101.89342932718772L67.3244665781657,97.6169991861156L69.64599990844727,94.4725067502004L71.96753323872885,91.38473205531156L74.28906656901042,87.69764809610933L76.610599899292,84.95037507912113L78.93213322957357,82.35204168712244L81.25366655985515,78.92585736361478L83.57519989013672,75.6035218829546L85.8967332204183,71.75385418818784L88.21826655069987,68.11190750434265L90.53979988098145,65.32618171970402L92.86133321126302,62.24617064890754L95.1828665415446,60.179777626987914L97.50439987182617,58.23019950171266L99.82593320210775,57.5954914433146L102.14746653238932,56.5704345552181L104.4689998626709,55.07094497074229L106.79053319295248,53.34138771259906L109.11206652323405,52.42376506508538L111.43359985351563,51.15252127669717L113.7551331837972,50.00760312811741L116.07666651407878,49.549957251974206L118.39819984436035,48.35815910737708L120.71973317464193,48.210874127937444L123.0412665049235,47.117935986277985L125.36279983520508,46.59320318980352L127.68433316548665,45.88527324677011L130.00586649576823,45.05650662749355L132.3273998260498,44.3299416441011L134.6489331563314,43.926757819008145L136.97046648661293,43.19348233533799L139.29199981689453,42.469620091744474L141.6135331471761,41.664049257051516L143.9350664774577,40.75486132614577L146.25659980773926,40.44956253909524L148.57813313802083,39.92789437191854L150.8996664683024,39.309150312937646L153.221199798584,38.58848716563219L155.54273312886556,38.3526391241586L157.86426645914713,38.49502725266825L160.1857997894287,37.837953152697935L162.5073331197103,37.32359699263995L164.82886644999186,36.51269971968077L167.15039978027343,36.43017943803491L169.471933110555,35.56172214513754L171.7934664408366,35.67396143470992L174.11499977111816,35.30454119005208L176.43653310139973,35.53057124996914L178.75806643168133,35.21850707920768L181.0795997619629,34.6709334765232L183.40113309224446,34.29870633301039L185.72266642252603,33.69319817005413L188.04419975280763,32.9040478421897L190.3657330830892,32.73629137548582L192.68726641337076,32.20979206537285L195.00879974365233,32.210544597630445L197.33033307393393,32.331107817060854L199.6518664042155,32.14138557194633L201.97339973449706,32.136745536642906L204.29493306477863,31.6753514917786L206.61646639506023,31.256566588163082L208.9379997253418,31.02714185127485L211.25953305562336,30.90040539745243L213.58106638590496,31.009985555098012L215.90259971618653,30.169441419291275L218.2241330464681,30.10187875620852L220.54566637674967,30.170534470124124L222.86719970703126,30.058861033466087L225.18873303731283,29.697041629766915L227.5102663675944,29.370756675782076L229.83179969787597,28.934762303239523L232.15333302815756,28.86970609796353L234.47486635843913,28.41574533301778L236.7963996887207,28.405429050823045L239.11793301900227,28.344647339953582L241.43946634928386,28.275413719840287L243.76099967956543,27.698834805916277L246.082533009847,27.33105068094079L248.4040663401286,27.6891019297137L250.72559967041016,28.00219817377217L253.04713300069173,27.513068701654333" fill="none"></path></g></g></g></g><g opacity="0.2"><g><g><g><path style="fill: none;" stroke="rgb(0, 119, 187)" stroke-width="2px" d="M23.215333302815754,137.36256503327849L25.53686663309733,137.36256503327849L27.858399963378908,137.42625563175656L30.179933293660483,137.42625563175656L32.50146662394206,137.36256503327849L34.82299995422363,137.55361325706266L37.14453328450521,132.5864065819739L39.46606661478678,126.47291056417998L41.78759994506836,124.4987612995101L44.10913327534993,116.0290195694779L46.43066660563151,116.28375839174018L48.75219993591308,110.99812229591105L51.07373326619466,110.42500119620856L53.39526659647624,106.73141791748095L55.716799926757815,104.50255340219884L58.03833325703939,105.58515214642588L60.359866587320965,99.98111020150647L62.68139991760254,98.89851145727943L65.00293324788412,93.35816011083809L67.3244665781657,89.47352860832629L69.64599990844727,89.34617098302019L71.96753323872885,85.84365949972684L74.28906656901042,83.48741378748855L76.610599899292,83.16898436674819L78.93213322957357,81.19483510207829L81.25366655985515,79.09332821210228L83.57519989013672,76.9281307236482L85.8967332204183,76.4823672492518L88.21826655069987,71.38777937720685L90.53979988098145,71.64251819946912L92.86133321126302,68.64943721740019L95.1828665415446,72.66142634521809L97.50439987182617,72.59773574674001L99.82593320210775,68.394721966788L102.14746653238932,70.496228856764L104.4689998626709,72.59773574674001L106.79053319295248,68.77681841435637L109.11206652323405,68.64943721740019L111.43359985351563,69.98677478388952L113.7551331837972,73.99876391170741L116.07666651407878,72.2156628708217L118.39819984436035,69.73203596162723L120.71973317464193,68.13998314452571L123.0412665049235,71.96092404855942L125.36279983520508,67.88526789391351L127.68433316548665,69.34996308570892L130.00586649576823,71.06937352811656L132.3273998260498,69.54098773784305L134.6489331563314,71.38777937720685L136.97046648661293,69.54098773784305L139.29199981689453,68.45838899361601L141.6135331471761,70.05046538236759L143.9350664774577,70.17782300767371L146.25659980773926,71.32408877872876L148.57813313802083,70.87832530433238L150.8996664683024,69.28627248723085L153.221199798584,71.32408877872876L155.54273312886556,69.85941715858341L157.86426645914713,71.64251819946912L160.1857997894287,70.4325382582859L162.5073331197103,70.6235864820701L164.82886644999186,70.496228856764L167.15039978027343,69.66836893479922L169.471933110555,72.7887839705242L171.7934664408366,70.94201590281045L174.11499977111816,74.5718850114099L176.43653310139973,71.76987582477523L178.75806643168133,73.87138271475123L181.0795997619629,74.63557560988801L183.40113309224446,72.66142634521809L185.72266642252603,71.70618522629715L188.04419975280763,73.68033449096706L190.3657330830892,72.1519722723436L192.68726641337076,72.7887839705242L195.00879974365233,72.85247456900227L197.33033307393393,73.42561924035485L199.6518664042155,70.87832530433238L201.97339973449706,72.59773574674001L204.29493306477863,72.97983219430839L206.61646639506023,72.91616516748037L208.9379997253418,73.87138271475123L211.25953305562336,77.11917894743239L213.58106638590496,72.66142634521809L215.90259971618653,72.72511694369618L218.2241330464681,73.61666746413904L220.54566637674967,72.4703781214339L222.86719970703126,73.17088041809257L225.18873303731283,74.2534791623196L227.5102663675944,73.93507331322934L229.83179969787597,75.08136265593446L232.15333302815756,71.76987582477523L234.47486635843913,75.71817435411505L236.7963996887207,74.69926620836608L239.11793301900227,75.08136265593446L241.43946634928386,75.39976850502475L243.76099967956543,72.72511694369618L246.082533009847,74.69926620836608L248.4040663401286,73.55297686566094L250.72559967041016,72.08828167386552L253.04713300069173,73.48928626718286" fill="none"></path></g><g><path style="fill: none;" stroke="rgb(255, 112, 67)" stroke-width="2px" d="M23.215333302815754,142.16818804716544L25.53686663309733,135.99882721871535L27.858399963378908,136.57208974831823L30.179933293660483,136.6539776606472L32.50146662394206,137.69129526509764L34.82299995422363,137.0634407939421L37.14453328450521,135.6712519977494L39.46606661478678,129.0924280360044L41.78759994506836,127.42723238874837L44.10913327534993,121.99493348620916L46.43066660563151,115.68909280387743L48.75219993591308,112.57711641887606L51.07373326619466,111.34870344734131L53.39526659647624,109.05565332892974L55.716799926757815,109.1921567544614L58.03833325703939,105.998268885481L60.359866587320965,104.27850486832239L62.68139991760254,101.4668077335106L65.00293324788412,97.2901942016324L67.3244665781657,91.20274485716135L69.64599990844727,89.75594054776595L71.96753323872885,86.75317161751991L74.28906656901042,82.16709495234682L76.610599899292,80.82949809770678L78.93213322957357,78.45456006696622L81.25366655985515,73.78659548946418L83.57519989013672,70.62002716291015L85.8967332204183,65.97935855618441L88.21826655069987,62.6489908333224L90.53979988098145,61.14759458237434L92.86133321126302,57.62615506407808L95.1828665415446,57.08018850525151L97.50439987182617,55.305832546540245L99.82593320210775,56.643429401180285L102.14746653238932,55.03284926712695L104.4689998626709,52.821710632694405L106.79053319295248,50.74705185214347L109.11206652323405,51.047331102333075L111.43359985351563,49.24565560119541L113.7551331837972,48.29022590907397L116.07666651407878,48.86348843867685L118.39819984436035,46.57046189191533L120.71973317464193,47.98994665888435L123.0412665049235,45.47852877426217L125.36279983520508,45.80610399522811L127.68433316548665,44.82337833233032L130.00586649576823,43.81335669865621L132.3273998260498,43.24009416905332L134.6489331563314,43.32198208138229L136.97046648661293,42.09356910984752L139.29199981689453,41.383826726363026L141.6135331471761,40.45569300501788L143.9350664774577,39.39107942979112L146.25659980773926,39.99161435852025L148.57813313802083,39.145392121154146L150.8996664683024,38.38103422446693L153.221199798584,37.507492444674426L155.54273312886556,37.998867061948374L157.86426645914713,38.70860944543287L160.1857997894287,36.852342002742574L162.5073331197103,36.552062752552956L164.82886644999186,35.2963538102419L167.15039978027343,36.30639901556606L169.471933110555,34.25903620579143L171.7934664408366,35.84232036906846L174.11499977111816,34.75041082306538L176.43653310139973,35.86961633984478L178.75806643168133,34.75041082306538L181.0795997619629,33.849573072496554L183.40113309224446,33.74036561774119L185.72266642252603,32.78493592561972L188.04419975280763,31.720322350392962L190.3657330830892,32.4846566754301L192.68726641337076,31.420043100203372L195.00879974365233,32.211673396016835L197.33033307393393,32.51195264620645L199.6518664042155,31.856802204274572L201.97339973449706,32.12978548368787L204.29493306477863,30.98326042448207L206.61646639506023,30.628389232739806L208.9379997253418,30.683004745942526L211.25953305562336,30.710300716718848L213.58106638590496,31.1743557915664L215.90259971618653,28.908625215581196L218.2241330464681,30.000534761584277L220.54566637674967,30.273518040997573L222.86719970703126,29.89135087847899L225.18873303731283,29.15431252421817L227.5102663675944,28.881329244804874L229.83179969787597,28.280770744425666L232.15333302815756,28.77212179004951L234.47486635843913,27.734804185599074L236.7963996887207,28.389954627530955L239.11793301900227,28.253474773649344L241.43946634928386,28.171563289670303L243.76099967956543,26.83396643503025L246.082533009847,26.779374493477633L248.4040663401286,28.226178802873022L250.72559967041016,28.47184253985992L253.04713300069173,26.779374493477633" fill="none"></path></g></g></g></g></g></g><g transform="translate(51, 177)" clip-path="url(#clip_1)"><clipPath id="clip_1"><rect width="278" height="22"></rect></clipPath><g><g><line x1="0" y1="0" x2="0" y2="5" style="visibility: inherit;" fill="rgb(0, 0, 0)" stroke="rgb(204, 204, 204)" stroke-width="1px"></line><line x1="23.215333302815754" y1="0" x2="23.215333302815754" y2="5" style="visibility: inherit;" fill="rgb(0, 0, 0)" stroke="rgb(204, 204, 204)" stroke-width="1px"></line><line x1="46.43066660563151" y1="0" x2="46.43066660563151" y2="5" style="visibility: inherit;" fill="rgb(0, 0, 0)" stroke="rgb(204, 204, 204)" stroke-width="1px"></line><line x1="69.64599990844727" y1="0" x2="69.64599990844727" y2="5" style="visibility: inherit;" fill="rgb(0, 0, 0)" stroke="rgb(204, 204, 204)" stroke-width="1px"></line><line x1="92.86133321126302" y1="0" x2="92.86133321126302" y2="5" style="visibility: inherit;" fill="rgb(0, 0, 0)" stroke="rgb(204, 204, 204)" stroke-width="1px"></line><line x1="116.07666651407878" y1="0" x2="116.07666651407878" y2="5" style="visibility: inherit;" fill="rgb(0, 0, 0)" stroke="rgb(204, 204, 204)" stroke-width="1px"></line><line x1="139.29199981689453" y1="0" x2="139.29199981689453" y2="5" style="visibility: inherit;" fill="rgb(0, 0, 0)" stroke="rgb(204, 204, 204)" stroke-width="1px"></line><line x1="162.5073331197103" y1="0" x2="162.5073331197103" y2="5" style="visibility: inherit;" fill="rgb(0, 0, 0)" stroke="rgb(204, 204, 204)" stroke-width="1px"></line><line x1="185.72266642252603" y1="0" x2="185.72266642252603" y2="5" style="visibility: inherit;" fill="rgb(0, 0, 0)" stroke="rgb(204, 204, 204)" stroke-width="1px"></line><line x1="208.9379997253418" y1="0" x2="208.9379997253418" y2="5" style="visibility: inherit;" fill="rgb(0, 0, 0)" stroke="rgb(204, 204, 204)" stroke-width="1px"></line><line x1="232.15333302815756" y1="0" x2="232.15333302815756" y2="5" style="visibility: inherit;" fill="rgb(0, 0, 0)" stroke="rgb(204, 204, 204)" stroke-width="1px"></line><line x1="255.3686663309733" y1="0" x2="255.3686663309733" y2="5" style="visibility: inherit;" fill="rgb(0, 0, 0)" stroke="rgb(204, 204, 204)" stroke-width="1px"></line><line x1="278.58399963378906" y1="0" x2="278.58399963378906" y2="5" style="visibility: inherit;" fill="rgb(0, 0, 0)" stroke="rgb(204, 204, 204)" stroke-width="1px"></line></g><g transform="translate(0, 8)"><text style="text-anchor: middle; visibility: hidden; font-family: &quot;Helvetica Neue&quot;, sans-serif; font-size: 12px; font-weight: 200;" x="0" y="0" dx="0em" dy="0.95em" fill="rgb(50, 49, 63)" stroke="none" stroke-width="1px">-10</text><text style="text-anchor: middle; visibility: inherit; font-family: &quot;Helvetica Neue&quot;, sans-serif; font-size: 12px; font-weight: 200;" x="23.215333302815754" y="0" dx="0em" dy="0.95em" fill="rgb(50, 49, 63)" stroke="none" stroke-width="1px">0</text><text style="text-anchor: middle; visibility: hidden; font-family: &quot;Helvetica Neue&quot;, sans-serif; font-size: 12px; font-weight: 200;" x="46.43066660563151" y="0" dx="0em" dy="0.95em" fill="rgb(50, 49, 63)" stroke="none" stroke-width="1px">10</text><text style="text-anchor: middle; visibility: inherit; font-family: &quot;Helvetica Neue&quot;, sans-serif; font-size: 12px; font-weight: 200;" x="69.64599990844727" y="0" dx="0em" dy="0.95em" fill="rgb(50, 49, 63)" stroke="none" stroke-width="1px">20</text><text style="text-anchor: middle; visibility: hidden; font-family: &quot;Helvetica Neue&quot;, sans-serif; font-size: 12px; font-weight: 200;" x="92.86133321126302" y="0" dx="0em" dy="0.95em" fill="rgb(50, 49, 63)" stroke="none" stroke-width="1px">30</text><text style="text-anchor: middle; visibility: inherit; font-family: &quot;Helvetica Neue&quot;, sans-serif; font-size: 12px; font-weight: 200;" x="116.07666651407878" y="0" dx="0em" dy="0.95em" fill="rgb(50, 49, 63)" stroke="none" stroke-width="1px">40</text><text style="text-anchor: middle; visibility: hidden; font-family: &quot;Helvetica Neue&quot;, sans-serif; font-size: 12px; font-weight: 200;" x="139.29199981689453" y="0" dx="0em" dy="0.95em" fill="rgb(50, 49, 63)" stroke="none" stroke-width="1px">50</text><text style="text-anchor: middle; visibility: inherit; font-family: &quot;Helvetica Neue&quot;, sans-serif; font-size: 12px; font-weight: 200;" x="162.5073331197103" y="0" dx="0em" dy="0.95em" fill="rgb(50, 49, 63)" stroke="none" stroke-width="1px">60</text><text style="text-anchor: middle; visibility: hidden; font-family: &quot;Helvetica Neue&quot;, sans-serif; font-size: 12px; font-weight: 200;" x="185.72266642252603" y="0" dx="0em" dy="0.95em" fill="rgb(50, 49, 63)" stroke="none" stroke-width="1px">70</text><text style="text-anchor: middle; visibility: inherit; font-family: &quot;Helvetica Neue&quot;, sans-serif; font-size: 12px; font-weight: 200;" x="208.9379997253418" y="0" dx="0em" dy="0.95em" fill="rgb(50, 49, 63)" stroke="none" stroke-width="1px">80</text><text style="text-anchor: middle; visibility: hidden; font-family: &quot;Helvetica Neue&quot;, sans-serif; font-size: 12px; font-weight: 200;" x="232.15333302815756" y="0" dx="0em" dy="0.95em" fill="rgb(50, 49, 63)" stroke="none" stroke-width="1px">90</text><text style="text-anchor: middle; visibility: inherit; font-family: &quot;Helvetica Neue&quot;, sans-serif; font-size: 12px; font-weight: 200;" x="255.3686663309733" y="0" dx="0em" dy="0.95em" fill="rgb(50, 49, 63)" stroke="none" stroke-width="1px">100</text><text style="text-anchor: middle; visibility: hidden; font-family: &quot;Helvetica Neue&quot;, sans-serif; font-size: 12px; font-weight: 200;" x="278.58399963378906" y="0" dx="0em" dy="0.95em" fill="rgb(50, 49, 63)" stroke="none" stroke-width="1px">110</text></g><line x1="0" y1="0" x2="278.58399963378906" y2="0" fill="rgb(0, 0, 0)" stroke="rgb(204, 204, 204)" stroke-width="1px"></line></g></g></g></g></svg>