<svg viewBox="0 0 330 200" xmlns="http://www.w3.org/2000/svg"><g><g><g><g><g><line x1="51.41600036621094" y1="177.95999908447266" x2="46.41600036621094" y2="177.95999908447266" style="visibility: inherit;" fill="rgb(0, 0, 0)" stroke="rgb(204, 204, 204)" stroke-width="1px"></line><line x1="51.41600036621094" y1="160.16399917602538" x2="46.41600036621094" y2="160.16399917602538" style="visibility: inherit;" fill="rgb(0, 0, 0)" stroke="rgb(204, 204, 204)" stroke-width="1px"></line><line x1="51.41600036621094" y1="142.3679992675781" x2="46.41600036621094" y2="142.3679992675781" style="visibility: inherit;" fill="rgb(0, 0, 0)" stroke="rgb(204, 204, 204)" stroke-width="1px"></line><line x1="51.41600036621094" y1="124.57199935913084" x2="46.41600036621094" y2="124.57199935913084" style="visibility: inherit;" fill="rgb(0, 0, 0)" stroke="rgb(204, 204, 204)" stroke-width="1px"></line><line x1="51.41600036621094" y1="106.77599945068359" x2="46.41600036621094" y2="106.77599945068359" style="visibility: inherit;" fill="rgb(0, 0, 0)" stroke="rgb(204, 204, 204)" stroke-width="1px"></line><line x1="51.41600036621094" y1="88.97999954223633" x2="46.41600036621094" y2="88.97999954223633" style="visibility: inherit;" fill="rgb(0, 0, 0)" stroke="rgb(204, 204, 204)" stroke-width="1px"></line><line x1="51.41600036621094" y1="71.18399963378907" x2="46.41600036621094" y2="71.18399963378907" style="visibility: inherit;" fill="rgb(0, 0, 0)" stroke="rgb(204, 204, 204)" stroke-width="1px"></line><line x1="51.41600036621094" y1="53.3879997253418" x2="46.41600036621094" y2="53.3879997253418" style="visibility: inherit;" fill="rgb(0, 0, 0)" stroke="rgb(204, 204, 204)" stroke-width="1px"></line><line x1="51.41600036621094" y1="35.59199981689454" x2="46.41600036621094" y2="35.59199981689454" style="visibility: inherit;" fill="rgb(0, 0, 0)" stroke="rgb(204, 204, 204)" stroke-width="1px"></line><line x1="51.41600036621094" y1="17.79599990844727" x2="46.41600036621094" y2="17.79599990844727" style="visibility: inherit;" fill="rgb(0, 0, 0)" stroke="rgb(204, 204, 204)" stroke-width="1px"></line><line x1="51.41600036621094" y1="0" x2="46.41600036621094" y2="0" style="visibility: inherit;" fill="rgb(0, 0, 0)" stroke="rgb(204, 204, 204)" stroke-width="1px"></line></g><g transform="translate(41.41600036621094, 0)"><text style="text-anchor: end; visibility: hidden; font-family: &quot;Helvetica Neue&quot;, sans-serif; font-size: 12px; font-weight: 200;" x="0" y="177.95999908447266" dx="0em" dy="0.3em" fill="rgb(50, 49, 63)" stroke="none" stroke-width="1px">-0.2</text><text style="text-anchor: end; visibility: inherit; font-family: &quot;Helvetica Neue&quot;, sans-serif; font-size: 12px; font-weight: 200;" x="0" y="160.16399917602538" dx="0em" dy="0.3em" fill="rgb(50, 49, 63)" stroke="none" stroke-width="1px">0</text><text style="text-anchor: end; visibility: hidden; font-family: &quot;Helvetica Neue&quot;, sans-serif; font-size: 12px; font-weight: 200;" x="0" y="142.3679992675781" dx="0em" dy="0.3em" fill="rgb(50, 49, 63)" stroke="none" stroke-width="1px">0.2</text><text style="text-anchor: end; visibility: inherit; font-family: &quot;Helvetica Neue&quot;, sans-serif; font-size: 12px; font-weight: 200;" x="0" y="124.57199935913084" dx="0em" dy="0.3em" fill="rgb(50, 49, 63)" stroke="none" stroke-width="1px">0.4</text><text style="text-anchor: end; visibility: hidden; font-family: &quot;Helvetica Neue&quot;, sans-serif; font-size: 12px; font-weight: 200;" x="0" y="106.77599945068359" dx="0em" dy="0.3em" fill="rgb(50, 49, 63)" stroke="none" stroke-width="1px">0.6</text><text style="text-anchor: end; visibility: inherit; font-family: &quot;Helvetica Neue&quot;, sans-serif; font-size: 12px; font-weight: 200;" x="0" y="88.97999954223633" dx="0em" dy="0.3em" fill="rgb(50, 49, 63)" stroke="none" stroke-width="1px">0.8</text><text style="text-anchor: end; visibility: hidden; font-family: &quot;Helvetica Neue&quot;, sans-serif; font-size: 12px; font-weight: 200;" x="0" y="71.18399963378907" dx="0em" dy="0.3em" fill="rgb(50, 49, 63)" stroke="none" stroke-width="1px">1</text><text style="text-anchor: end; visibility: inherit; font-family: &quot;Helvetica Neue&quot;, sans-serif; font-size: 12px; font-weight: 200;" x="0" y="53.3879997253418" dx="0em" dy="0.3em" fill="rgb(50, 49, 63)" stroke="none" stroke-width="1px">1.2</text><text style="text-anchor: end; visibility: hidden; font-family: &quot;Helvetica Neue&quot;, sans-serif; font-size: 12px; font-weight: 200;" x="0" y="35.59199981689454" dx="0em" dy="0.3em" fill="rgb(50, 49, 63)" stroke="none" stroke-width="1px">1.4</text><text style="text-anchor: end; visibility: inherit; font-family: &quot;Helvetica Neue&quot;, sans-serif; font-size: 12px; font-weight: 200;" x="0" y="17.79599990844727" dx="0em" dy="0.3em" fill="rgb(50, 49, 63)" stroke="none" stroke-width="1px">1.6</text><text style="text-anchor: end; visibility: hidden; font-family: &quot;Helvetica Neue&quot;, sans-serif; font-size: 12px; font-weight: 200;" x="0" y="0" dx="0em" dy="0.3em" fill="rgb(50, 49, 63)" stroke="none" stroke-width="1px">1.8</text></g><line x1="51.41600036621094" y1="0" x2="51.41600036621094" y2="177.95999908447266" fill="rgb(0, 0, 0)" stroke="rgb(204, 204, 204)" stroke-width="1px"></line></g></g><g transform="translate(51, 0)" clip-path="url(#clip_0)"><clipPath id="clip_0"><rect width="278" height="177"></rect></clipPath><g><g><g><line x1="0" y1="0" x2="0" y2="177.95999908447266" fill="rgb(0, 0, 0)" stroke="rgb(60, 60, 60)" stroke-width="1px" opacity="0.25"></line><line x1="23.215333302815754" y1="0" x2="23.215333302815754" y2="177.95999908447266" fill="rgb(0, 0, 0)" stroke="rgb(60, 60, 60)" stroke-width="1px" opacity="0.25"></line><line x1="46.43066660563151" y1="0" x2="46.43066660563151" y2="177.95999908447266" fill="rgb(0, 0, 0)" stroke="rgb(60, 60, 60)" stroke-width="1px" opacity="0.25"></line><line x1="69.64599990844727" y1="0" x2="69.64599990844727" y2="177.95999908447266" fill="rgb(0, 0, 0)" stroke="rgb(60, 60, 60)" stroke-width="1px" opacity="0.25"></line><line x1="92.86133321126302" y1="0" x2="92.86133321126302" y2="177.95999908447266" fill="rgb(0, 0, 0)" stroke="rgb(60, 60, 60)" stroke-width="1px" opacity="0.25"></line><line x1="116.07666651407878" y1="0" x2="116.07666651407878" y2="177.95999908447266" fill="rgb(0, 0, 0)" stroke="rgb(60, 60, 60)" stroke-width="1px" opacity="0.25"></line><line x1="139.29199981689453" y1="0" x2="139.29199981689453" y2="177.95999908447266" fill="rgb(0, 0, 0)" stroke="rgb(60, 60, 60)" stroke-width="1px" opacity="0.25"></line><line x1="162.5073331197103" y1="0" x2="162.5073331197103" y2="177.95999908447266" fill="rgb(0, 0, 0)" stroke="rgb(60, 60, 60)" stroke-width="1px" opacity="0.25"></line><line x1="185.72266642252603" y1="0" x2="185.72266642252603" y2="177.95999908447266" fill="rgb(0, 0, 0)" stroke="rgb(60, 60, 60)" stroke-width="1px" opacity="0.25"></line><line x1="208.9379997253418" y1="0" x2="208.9379997253418" y2="177.95999908447266" fill="rgb(0, 0, 0)" stroke="rgb(60, 60, 60)" stroke-width="1px" opacity="0.25"></line><line x1="232.15333302815756" y1="0" x2="232.15333302815756" y2="177.95999908447266" fill="rgb(0, 0, 0)" stroke="rgb(60, 60, 60)" stroke-width="1px" opacity="0.25"></line><line x1="255.3686663309733" y1="0" x2="255.3686663309733" y2="177.95999908447266" fill="rgb(0, 0, 0)" stroke="rgb(60, 60, 60)" stroke-width="1px" opacity="0.25"></line><line x1="278.58399963378906" y1="0" x2="278.58399963378906" y2="177.95999908447266" fill="rgb(0, 0, 0)" stroke="rgb(60, 60, 60)" stroke-width="1px" opacity="0.25"></line></g><g><line x1="0" y1="177.95999908447266" x2="278.58399963378906" y2="177.95999908447266" fill="rgb(0, 0, 0)" stroke="rgb(60, 60, 60)" stroke-width="1px" opacity="0.25"></line><line x1="0" y1="160.16399917602538" x2="278.58399963378906" y2="160.16399917602538" fill="rgb(0, 0, 0)" stroke="rgb(60, 60, 60)" stroke-width="1px" opacity="0.25"></line><line x1="0" y1="142.3679992675781" x2="278.58399963378906" y2="142.3679992675781" fill="rgb(0, 0, 0)" stroke="rgb(60, 60, 60)" stroke-width="1px" opacity="0.25"></line><line x1="0" y1="124.57199935913084" x2="278.58399963378906" y2="124.57199935913084" fill="rgb(0, 0, 0)" stroke="rgb(60, 60, 60)" stroke-width="1px" opacity="0.25"></line><line x1="0" y1="106.77599945068359" x2="278.58399963378906" y2="106.77599945068359" fill="rgb(0, 0, 0)" stroke="rgb(60, 60, 60)" stroke-width="1px" opacity="0.25"></line><line x1="0" y1="88.97999954223633" x2="278.58399963378906" y2="88.97999954223633" fill="rgb(0, 0, 0)" stroke="rgb(60, 60, 60)" stroke-width="1px" opacity="0.25"></line><line x1="0" y1="71.18399963378907" x2="278.58399963378906" y2="71.18399963378907" fill="rgb(0, 0, 0)" stroke="rgb(60, 60, 60)" stroke-width="1px" opacity="0.25"></line><line x1="0" y1="53.3879997253418" x2="278.58399963378906" y2="53.3879997253418" fill="rgb(0, 0, 0)" stroke="rgb(60, 60, 60)" stroke-width="1px" opacity="0.25"></line><line x1="0" y1="35.59199981689454" x2="278.58399963378906" y2="35.59199981689454" fill="rgb(0, 0, 0)" stroke="rgb(60, 60, 60)" stroke-width="1px" opacity="0.25"></line><line x1="0" y1="17.79599990844727" x2="278.58399963378906" y2="17.79599990844727" fill="rgb(0, 0, 0)" stroke="rgb(60, 60, 60)" stroke-width="1px" opacity="0.25"></line><line x1="0" y1="0" x2="278.58399963378906" y2="0" fill="rgb(0, 0, 0)" stroke="rgb(60, 60, 60)" stroke-width="1px" opacity="0.25"></line></g></g></g><g><g><line x1="0" y1="160.16399917602538" x2="278.58399963378906" y2="160.16399917602538" fill="rgb(0, 0, 0)" stroke="rgb(153, 153, 153)" stroke-width="1.5px"></line></g></g><g><g><line x1="23.215333302815754" y1="0" x2="23.215333302815754" y2="177.95999908447266" fill="rgb(0, 0, 0)" stroke="rgb(153, 153, 153)" stroke-width="1.5px"></line></g></g><g><g><g><g><g><path style="fill: none;" stroke="rgb(0, 119, 187)" stroke-width="2px" d="M23.215333302815754,98.51449344879767L25.53686663309733,108.54673291140229L27.858399963378908,104.04376798546842L30.179933293660483,108.05071831507877L32.50146662394206,107.89796293698821L34.82299995422363,110.39376957353448L37.14453328450521,111.48804096553896L39.46606661478678,112.82614552027228L41.78759994506836,111.67393739776782L44.10913327534993,112.60673659561739L46.43066660563151,113.9967039587047L48.75219993591308,115.91237157769946L51.07373326619466,116.88709591268736L53.39526659647624,117.584211361976L55.716799926757815,118.80815950369343L58.03833325703939,120.20341753339969L60.359866587320965,121.3322399460649L62.68139991760254,121.24563196005556L65.00293324788412,121.14555524553425L67.3244665781657,119.42029514015908L69.64599990844727,118.82645419298761L71.96753323872885,119.05710624454495L74.28906656901042,118.82771171504118L76.610599899292,120.14687006034714L78.93213322957357,120.9711466655093L81.25366655985515,122.68250473353228L83.57519989013672,123.1234561127504L85.8967332204183,123.5578121601227L88.21826655069987,124.20341078049448L90.53979988098145,125.30631495910544L92.86133321126302,125.95573284724402L95.1828665415446,125.73830499752751L97.50439987182617,126.03644440778376L99.82593320210775,126.72766108948409L102.14746653238932,127.4147839822121L104.4689998626709,127.44995489450132L106.79053319295248,127.0009699628431L109.11206652323405,126.70897060899716L111.43359985351563,126.77587680048009L113.7551331837972,126.94507569884831L116.07666651407878,127.06657167192952L118.39819984436035,127.13446235672579L120.71973317464193,127.59791138414144L123.0412665049235,128.0145086693619L125.36279983520508,127.22627970176552L127.68433316548665,127.34703982634532L130.00586649576823,127.42620587140324L132.3273998260498,128.02482331659184L134.6489331563314,128.18835685011464L136.97046648661293,127.80717555110743L139.29199981689453,128.04572189360445L141.6135331471761,128.25306889263615L143.9350664774577,128.0043750087213L146.25659980773926,127.9027243123032L148.57813313802083,128.067724163521L150.8996664683024,128.2338151866708L153.221199798584,128.25472029349783L155.54273312886556,128.68177267475943L157.86426645914713,128.6084912086697L160.1857997894287,128.19128644847692L162.5073331197103,127.40345338415426L164.82886644999186,126.78465467296837L167.15039978027343,126.9812154113325L169.471933110555,126.37873535908841L171.7934664408366,126.51534394827567L174.11499977111816,126.54032724652274L176.43653310139973,126.96879737936142L178.75806643168133,127.53948557016537L181.0795997619629,127.81662299073461L183.40113309224446,127.17279803515432L185.72266642252603,126.86114359263726L188.04419975280763,127.37226321422207L190.3657330830892,127.55709883004926L192.68726641337076,128.12481513761577L195.00879974365233,128.26476484973242L197.33033307393393,128.2837805207892L199.6518664042155,128.02401513089774L201.97339973449706,128.15055166511286L204.29493306477863,127.85021757404952L206.61646639506023,127.92661457925725L208.9379997253418,127.17937391423028L211.25953305562336,126.00280261774103L213.58106638590496,125.95642661486912L215.90259971618653,125.84097304417718L218.2241330464681,125.97960463658295L220.54566637674967,126.56171379094893L222.86719970703126,127.13887505095761L225.18873303731283,126.68183272012936L227.5102663675944,126.44527848527909L229.83179969787597,126.34636649730425L232.15333302815756,126.56652704324603L234.47486635843913,126.00242713134304L236.7963996887207,126.20956493164576L239.11793301900227,126.49336497319902L241.43946634928386,126.20758339062412L243.76099967956543,125.60881928205133L246.082533009847,125.50874182312528L248.4040663401286,125.71275678292817L250.72559967041016,125.91986651639371L253.04713300069173,125.67578790136561" fill="none"></path></g><g><path style="fill: none;" stroke="rgb(255, 112, 67)" stroke-width="2px" d="M23.215333302815754,27.029135690395464L25.53686663309733,46.02290457171813L27.858399963378908,53.65523046162242L30.179933293660483,58.74493597222144L32.50146662394206,62.384630684131466L34.82299995422363,64.94469462792759L37.14453328450521,67.34249737454176L39.46606661478678,69.3436240834606L41.78759994506836,71.28773064518315L44.10913327534993,73.24608422777803L46.43066660563151,75.0110116304156L48.75219993591308,76.40691174593493L51.07373326619466,78.08114341652016L53.39526659647624,79.51632253812653L55.716799926757815,80.52109104979814L58.03833325703939,81.77324451856444L60.359866587320965,83.19043307937451L62.68139991760254,84.24045074272794L65.00293324788412,85.21733097353739L67.3244665781657,86.5337055958113L69.64599990844727,87.40465122446498L71.96753323872885,88.53115556616119L74.28906656901042,89.24021475684204L76.610599899292,90.20363637175369L78.93213322957357,90.96172202057362L81.25366655985515,91.66489318597445L83.57519989013672,92.50938005833667L85.8967332204183,93.35726562056749L88.21826655069987,94.27635937800562L90.53979988098145,94.98734905401388L92.86133321126302,95.4108537624487L95.1828665415446,96.199798907888L97.50439987182617,96.91266621201757L99.82593320210775,97.44061379290817L102.14746653238932,98.17432104014978L104.4689998626709,99.05010207214364L106.79053319295248,99.68929532888487L109.11206652323405,100.43356787148976L111.43359985351563,100.8863066804047L113.7551331837972,101.11382637724147L116.07666651407878,101.67879539707855L118.39819984436035,102.36444342786821L120.71973317464193,102.79926325793977L123.0412665049235,103.21408061875341L125.36279983520508,103.88847070962858L127.68433316548665,104.26595999483607L130.00586649576823,104.72312729475651L132.3273998260498,105.24504675038528L134.6489331563314,106.00942801012155L136.97046648661293,106.49703796867874L139.29199981689453,106.80415884912601L141.6135331471761,107.52504080958046L143.9350664774577,108.0235894964338L146.25659980773926,108.37911086194563L148.57813313802083,108.64282797590597L150.8996664683024,108.69481522530513L153.221199798584,109.06112205266966L155.54273312886556,109.15969247070521L157.86426645914713,109.35835450150572L160.1857997894287,109.65520951012331L162.5073331197103,110.26800919405501L164.82886644999186,110.78439736314544L167.15039978027343,110.92712422376698L169.471933110555,111.05424096712319L171.7934664408366,111.54527916555061L174.11499977111816,111.68078681376666L176.43653310139973,112.04511534947385L178.75806643168133,112.67219925101472L181.0795997619629,112.72992237209232L183.40113309224446,112.82954445699659L185.72266642252603,113.302927640086L188.04419975280763,113.71221335021006L190.3657330830892,113.70573892057966L192.68726641337076,114.04648851870144L195.00879974365233,114.4457546529337L197.33033307393393,114.72349580950684L199.6518664042155,115.18659336007227L201.97339973449706,115.29845511662757L204.29493306477863,115.30563504673313L206.61646639506023,115.68681850588032L208.9379997253418,115.88148711495441L211.25953305562336,116.52256400364371L213.58106638590496,116.81357541582892L215.90259971618653,116.83254704623332L218.2241330464681,117.13201404160397L220.54566637674967,117.55955335254473L222.86719970703126,117.62475305266805L225.18873303731283,117.89969458441365L227.5102663675944,118.0510352467072L229.83179969787597,118.40776164519119L232.15333302815756,118.43911828448103L234.47486635843913,118.69213710465652L236.7963996887207,119.11458714912902L239.11793301900227,119.18227792488278L241.43946634928386,119.38798401508012L243.76099967956543,119.85504199282374L246.082533009847,119.91951135188964L248.4040663401286,120.37289794001373L250.72559967041016,120.59162056735127L253.04713300069173,120.43810968318532" fill="none"></path></g></g></g></g><g opacity="0.2"><g><g><g><path style="fill: none;" stroke="rgb(0, 119, 187)" stroke-width="2px" d="M23.215333302815754,98.51449344879767L25.53686663309733,117.26474900440573L27.858399963378908,96.7302279683987L30.179933293660483,117.18815145428843L32.50146662394206,107.46250867299715L34.82299995422363,118.74530526488488L37.14453328450521,115.62096319225893L39.46606661478678,118.38075290181493L41.78759994506836,106.51630021038146L44.10913327534993,117.04584468851053L46.43066660563151,120.95278646316407L48.75219993591308,125.90814278582783L51.07373326619466,122.1538816601462L53.39526659647624,121.46332365335908L55.716799926757815,125.7902538923532L58.03833325703939,128.33256596013425L60.359866587320965,128.0284457095664L62.68139991760254,120.72391133929099L65.00293324788412,120.53470730247884L67.3244665781657,108.76992026185404L69.64599990844727,115.12474047585769L71.96753323872885,120.50696671145315L74.28906656901042,117.37530829329236L76.610599899292,128.55128464928518L78.93213322957357,126.25099803430336L81.25366655985515,133.6956487747743L83.57519989013672,125.97257382876361L85.8967332204183,126.37411895015575L88.21826655069987,128.40204870232478L90.53979988098145,132.4978285639232L92.86133321126302,130.19989675678298L95.1828665415446,124.31454248989948L97.50439987182617,127.9920575640684L99.82593320210775,131.26834043049982L102.14746653238932,131.93437449255836L104.4689998626709,127.6815517534977L106.79053319295248,124.04158631788377L109.11206652323405,124.7827037461885L111.43359985351563,127.21756709895473L113.7551331837972,128.062773398203L116.07666651407878,127.86959429725286L118.39819984436035,127.5833976347495L120.71973317464193,130.6637965533857L123.0412665049235,130.77144680600858L125.36279983520508,122.00833968539675L127.68433316548665,128.1466687311807L130.00586649576823,127.95053816499669L132.3273998260498,131.9903992957894L134.6489331563314,129.27188767053755L136.97046648661293,125.28117519800603L139.29199981689453,129.62672645126096L141.6135331471761,129.62745569918488L143.9350664774577,126.35575516152628L146.25659980773926,127.22881077603617L148.57813313802083,129.16170759057135L150.8996664683024,129.33510683601432L153.221199798584,128.39334280801856L155.54273312886556,131.51371512012778L157.86426645914713,128.12251338813005L160.1857997894287,125.4244207047478L162.5073331197103,122.17844007841299L164.82886644999186,122.68058163614577L167.15039978027343,128.28490231582722L169.471933110555,122.38270639961726L171.7934664408366,127.42143564856414L174.11499977111816,126.7060381315832L176.43653310139973,129.8108231007951L178.75806643168133,131.3248849886148L181.0795997619629,129.65490724285164L183.40113309224446,122.90219345069667L185.72266642252603,124.79386786895097L188.04419975280763,130.7626613573834L190.3657330830892,128.78317223003668L192.68726641337076,131.89067795695743L195.00879974365233,129.19310502845914L197.33033307393393,128.40991927628178L199.6518664042155,126.30087859229909L201.97339973449706,128.98992594961416L204.29493306477863,125.85795992142002L206.61646639506023,128.43339310399992L208.9379997253418,122.22255294828321L211.25953305562336,118.19800337208207L213.58106638590496,125.64879040235641L215.90259971618653,125.07510829738234L218.2241330464681,126.89922253615461L220.54566637674967,130.42316064935787L222.86719970703126,130.9675031214949L225.18873303731283,123.65001730809078L227.5102663675944,124.87608195398772L229.83179969787597,125.69022759529852L232.15333302815756,128.02697660647604L234.47486635843913,122.26043141135662L236.7963996887207,127.58362834227452L239.11793301900227,128.37597344837624L241.43946634928386,124.31182968762252L243.76099967956543,121.63687140019746L246.082533009847,124.8448701428442L248.4040663401286,127.06610628287373L250.72559967041016,127.29374566299211L253.04713300069173,124.05667246857158" fill="none"></path></g><g><path style="fill: none;" stroke="rgb(255, 112, 67)" stroke-width="2px" d="M23.215333302815754,27.029135690395464L25.53686663309733,62.52848972958746L27.858399963378908,66.05135651129523L30.179933293660483,70.35147959660627L32.50146662394206,72.76017753386246L34.82299995422363,73.51124985928128L37.14453328450521,76.39868977724983L39.46606661478678,77.65050350438752L41.78759994506836,79.99014829277563L44.10913327534993,82.56571406588715L46.43066660563151,83.84357918067768L48.75219993591308,83.69058561805114L51.07373326619466,87.12761859320891L53.39526659647624,87.50240429350934L55.716799926757815,86.252860516273L58.03833325703939,89.06862729646865L60.359866587320965,91.59723480690137L62.68139991760254,90.56568577451331L65.00293324788412,91.18000952923977L67.3244665781657,94.65994880043L69.64599990844727,92.83369985409864L71.96753323872885,95.61227233836404L74.28906656901042,93.72959816539615L76.610599899292,96.34163694194591L78.93213322957357,95.81759142838938L81.25366655985515,96.1900276244695L83.57519989013672,97.96586034705739L85.8967332204183,98.85484273622556L88.21826655069987,100.25366754120306L90.53979988098145,99.6233745828482L92.86133321126302,98.17859920323222L95.1828665415446,101.36597481459067L97.50439987182617,101.58864204977327L99.82593320210775,100.90876023259226L102.14746653238932,103.00032283269671L104.4689998626709,104.81703056437264L106.79053319295248,103.90239455914649L109.11206652323405,105.34339906404317L111.43359985351563,103.87512333860273L113.7551331837972,102.61678085368804L116.07666651407878,105.41293484244635L118.39819984436035,106.89837308629977L120.71973317464193,105.67575579422497L123.0412665049235,105.95923965445137L125.36279983520508,108.35281696748153L127.68433316548665,106.76555449896465L130.00586649576823,107.7510362770464L132.3273998260498,108.70253245006312L134.6489331563314,111.07402018052527L136.97046648661293,109.7283164461363L139.29199981689453,108.83965227424402L141.6135331471761,112.30336246436387L143.9350664774577,111.32852505416064L146.25659980773926,110.73611055887919L148.57813313802083,110.3913274440739L150.8996664683024,109.03952454523038L153.221199798584,111.49011578685746L155.54273312886556,109.81334940587531L157.86426645914713,110.67581368871934L160.1857997894287,111.6239261513691L162.5073331197103,114.33217792128411L164.82886644999186,114.2092505876079L167.15039978027343,111.87375853467016L169.471933110555,111.89735964929865L171.7934664408366,114.80221665950089L174.11499977111816,112.57959097069998L176.43653310139973,114.46169235257125L178.75806643168133,116.83167385459419L181.0795997619629,113.1128064454234L183.40113309224446,113.49035533240281L185.72266642252603,116.44298736295863L188.04419975280763,116.42711892813426L190.3657330830892,113.66279197058621L192.68726641337076,116.30680097612034L195.00879974365233,117.0942402325521L197.33033307393393,116.56586696404347L199.6518664042155,118.2585203425244L201.97339973449706,116.0404849379282L204.29493306477863,115.35326290891666L206.61646639506023,118.21539394620945L208.9379997253418,117.17282133702244L211.25953305562336,120.77515492795177L213.58106638590496,118.744005877675L215.90259971618653,116.95839592928539L218.2241330464681,119.11853965596535L220.54566637674967,120.3956543083469L222.86719970703126,118.05725852276666L225.18873303731283,119.72353434088697L227.5102663675944,119.05496249605321L229.83179969787597,120.77412867723703L232.15333302815756,118.64712462803035L234.47486635843913,120.3705549207111L236.7963996887207,121.91693972832931L239.11793301900227,119.63130967071285L241.43946634928386,120.75255089412107L243.76099967956543,122.95330710063647L246.082533009847,120.3471739063651L248.4040663401286,123.38047401635899L250.72559967041016,122.04253478350174L253.04713300069173,119.41978269199703" fill="none"></path></g></g></g></g></g></g><g transform="translate(51, 177)" clip-path="url(#clip_1)"><clipPath id="clip_1"><rect width="278" height="22"></rect></clipPath><g><g><line x1="0" y1="0" x2="0" y2="5" style="visibility: inherit;" fill="rgb(0, 0, 0)" stroke="rgb(204, 204, 204)" stroke-width="1px"></line><line x1="23.215333302815754" y1="0" x2="23.215333302815754" y2="5" style="visibility: inherit;" fill="rgb(0, 0, 0)" stroke="rgb(204, 204, 204)" stroke-width="1px"></line><line x1="46.43066660563151" y1="0" x2="46.43066660563151" y2="5" style="visibility: inherit;" fill="rgb(0, 0, 0)" stroke="rgb(204, 204, 204)" stroke-width="1px"></line><line x1="69.64599990844727" y1="0" x2="69.64599990844727" y2="5" style="visibility: inherit;" fill="rgb(0, 0, 0)" stroke="rgb(204, 204, 204)" stroke-width="1px"></line><line x1="92.86133321126302" y1="0" x2="92.86133321126302" y2="5" style="visibility: inherit;" fill="rgb(0, 0, 0)" stroke="rgb(204, 204, 204)" stroke-width="1px"></line><line x1="116.07666651407878" y1="0" x2="116.07666651407878" y2="5" style="visibility: inherit;" fill="rgb(0, 0, 0)" stroke="rgb(204, 204, 204)" stroke-width="1px"></line><line x1="139.29199981689453" y1="0" x2="139.29199981689453" y2="5" style="visibility: inherit;" fill="rgb(0, 0, 0)" stroke="rgb(204, 204, 204)" stroke-width="1px"></line><line x1="162.5073331197103" y1="0" x2="162.5073331197103" y2="5" style="visibility: inherit;" fill="rgb(0, 0, 0)" stroke="rgb(204, 204, 204)" stroke-width="1px"></line><line x1="185.72266642252603" y1="0" x2="185.72266642252603" y2="5" style="visibility: inherit;" fill="rgb(0, 0, 0)" stroke="rgb(204, 204, 204)" stroke-width="1px"></line><line x1="208.9379997253418" y1="0" x2="208.9379997253418" y2="5" style="visibility: inherit;" fill="rgb(0, 0, 0)" stroke="rgb(204, 204, 204)" stroke-width="1px"></line><line x1="232.15333302815756" y1="0" x2="232.15333302815756" y2="5" style="visibility: inherit;" fill="rgb(0, 0, 0)" stroke="rgb(204, 204, 204)" stroke-width="1px"></line><line x1="255.3686663309733" y1="0" x2="255.3686663309733" y2="5" style="visibility: inherit;" fill="rgb(0, 0, 0)" stroke="rgb(204, 204, 204)" stroke-width="1px"></line><line x1="278.58399963378906" y1="0" x2="278.58399963378906" y2="5" style="visibility: inherit;" fill="rgb(0, 0, 0)" stroke="rgb(204, 204, 204)" stroke-width="1px"></line></g><g transform="translate(0, 8)"><text style="text-anchor: middle; visibility: hidden; font-family: &quot;Helvetica Neue&quot;, sans-serif; font-size: 12px; font-weight: 200;" x="0" y="0" dx="0em" dy="0.95em" fill="rgb(50, 49, 63)" stroke="none" stroke-width="1px">-10</text><text style="text-anchor: middle; visibility: inherit; font-family: &quot;Helvetica Neue&quot;, sans-serif; font-size: 12px; font-weight: 200;" x="23.215333302815754" y="0" dx="0em" dy="0.95em" fill="rgb(50, 49, 63)" stroke="none" stroke-width="1px">0</text><text style="text-anchor: middle; visibility: hidden; font-family: &quot;Helvetica Neue&quot;, sans-serif; font-size: 12px; font-weight: 200;" x="46.43066660563151" y="0" dx="0em" dy="0.95em" fill="rgb(50, 49, 63)" stroke="none" stroke-width="1px">10</text><text style="text-anchor: middle; visibility: inherit; font-family: &quot;Helvetica Neue&quot;, sans-serif; font-size: 12px; font-weight: 200;" x="69.64599990844727" y="0" dx="0em" dy="0.95em" fill="rgb(50, 49, 63)" stroke="none" stroke-width="1px">20</text><text style="text-anchor: middle; visibility: hidden; font-family: &quot;Helvetica Neue&quot;, sans-serif; font-size: 12px; font-weight: 200;" x="92.86133321126302" y="0" dx="0em" dy="0.95em" fill="rgb(50, 49, 63)" stroke="none" stroke-width="1px">30</text><text style="text-anchor: middle; visibility: inherit; font-family: &quot;Helvetica Neue&quot;, sans-serif; font-size: 12px; font-weight: 200;" x="116.07666651407878" y="0" dx="0em" dy="0.95em" fill="rgb(50, 49, 63)" stroke="none" stroke-width="1px">40</text><text style="text-anchor: middle; visibility: hidden; font-family: &quot;Helvetica Neue&quot;, sans-serif; font-size: 12px; font-weight: 200;" x="139.29199981689453" y="0" dx="0em" dy="0.95em" fill="rgb(50, 49, 63)" stroke="none" stroke-width="1px">50</text><text style="text-anchor: middle; visibility: inherit; font-family: &quot;Helvetica Neue&quot;, sans-serif; font-size: 12px; font-weight: 200;" x="162.5073331197103" y="0" dx="0em" dy="0.95em" fill="rgb(50, 49, 63)" stroke="none" stroke-width="1px">60</text><text style="text-anchor: middle; visibility: hidden; font-family: &quot;Helvetica Neue&quot;, sans-serif; font-size: 12px; font-weight: 200;" x="185.72266642252603" y="0" dx="0em" dy="0.95em" fill="rgb(50, 49, 63)" stroke="none" stroke-width="1px">70</text><text style="text-anchor: middle; visibility: inherit; font-family: &quot;Helvetica Neue&quot;, sans-serif; font-size: 12px; font-weight: 200;" x="208.9379997253418" y="0" dx="0em" dy="0.95em" fill="rgb(50, 49, 63)" stroke="none" stroke-width="1px">80</text><text style="text-anchor: middle; visibility: hidden; font-family: &quot;Helvetica Neue&quot;, sans-serif; font-size: 12px; font-weight: 200;" x="232.15333302815756" y="0" dx="0em" dy="0.95em" fill="rgb(50, 49, 63)" stroke="none" stroke-width="1px">90</text><text style="text-anchor: middle; visibility: inherit; font-family: &quot;Helvetica Neue&quot;, sans-serif; font-size: 12px; font-weight: 200;" x="255.3686663309733" y="0" dx="0em" dy="0.95em" fill="rgb(50, 49, 63)" stroke="none" stroke-width="1px">100</text><text style="text-anchor: middle; visibility: hidden; font-family: &quot;Helvetica Neue&quot;, sans-serif; font-size: 12px; font-weight: 200;" x="278.58399963378906" y="0" dx="0em" dy="0.95em" fill="rgb(50, 49, 63)" stroke="none" stroke-width="1px">110</text></g><line x1="0" y1="0" x2="278.58399963378906" y2="0" fill="rgb(0, 0, 0)" stroke="rgb(204, 204, 204)" stroke-width="1px"></line></g></g></g></g></svg>