<svg viewBox="0 0 330 200" xmlns="http://www.w3.org/2000/svg"><g><g><g><g><g><line x1="51.41600036621094" y1="177.95999908447266" x2="46.41600036621094" y2="177.95999908447266" style="visibility: inherit;" fill="rgb(0, 0, 0)" stroke="rgb(204, 204, 204)" stroke-width="1px"></line><line x1="51.41600036621094" y1="155.7149991989136" x2="46.41600036621094" y2="155.7149991989136" style="visibility: inherit;" fill="rgb(0, 0, 0)" stroke="rgb(204, 204, 204)" stroke-width="1px"></line><line x1="51.41600036621094" y1="133.4699993133545" x2="46.41600036621094" y2="133.4699993133545" style="visibility: inherit;" fill="rgb(0, 0, 0)" stroke="rgb(204, 204, 204)" stroke-width="1px"></line><line x1="51.41600036621094" y1="111.22499942779544" x2="46.41600036621094" y2="111.22499942779544" style="visibility: inherit;" fill="rgb(0, 0, 0)" stroke="rgb(204, 204, 204)" stroke-width="1px"></line><line x1="51.41600036621094" y1="88.97999954223633" x2="46.41600036621094" y2="88.97999954223633" style="visibility: inherit;" fill="rgb(0, 0, 0)" stroke="rgb(204, 204, 204)" stroke-width="1px"></line><line x1="51.41600036621094" y1="66.73499965667723" x2="46.41600036621094" y2="66.73499965667723" style="visibility: inherit;" fill="rgb(0, 0, 0)" stroke="rgb(204, 204, 204)" stroke-width="1px"></line><line x1="51.41600036621094" y1="44.489999771118164" x2="46.41600036621094" y2="44.489999771118164" style="visibility: inherit;" fill="rgb(0, 0, 0)" stroke="rgb(204, 204, 204)" stroke-width="1px"></line><line x1="51.41600036621094" y1="22.244999885559054" x2="46.41600036621094" y2="22.244999885559054" style="visibility: inherit;" fill="rgb(0, 0, 0)" stroke="rgb(204, 204, 204)" stroke-width="1px"></line><line x1="51.41600036621094" y1="0" x2="46.41600036621094" y2="0" style="visibility: inherit;" fill="rgb(0, 0, 0)" stroke="rgb(204, 204, 204)" stroke-width="1px"></line></g><g transform="translate(41.41600036621094, 0)"><text style="text-anchor: end; visibility: hidden; font-family: &quot;Helvetica Neue&quot;, sans-serif; font-size: 12px; font-weight: 200;" x="0" y="177.95999908447266" dx="0em" dy="0.3em" fill="rgb(50, 49, 63)" stroke="none" stroke-width="1px">0.55</text><text style="text-anchor: end; visibility: inherit; font-family: &quot;Helvetica Neue&quot;, sans-serif; font-size: 12px; font-weight: 200;" x="0" y="155.7149991989136" dx="0em" dy="0.3em" fill="rgb(50, 49, 63)" stroke="none" stroke-width="1px">0.6</text><text style="text-anchor: end; visibility: hidden; font-family: &quot;Helvetica Neue&quot;, sans-serif; font-size: 12px; font-weight: 200;" x="0" y="133.4699993133545" dx="0em" dy="0.3em" fill="rgb(50, 49, 63)" stroke="none" stroke-width="1px">0.65</text><text style="text-anchor: end; visibility: inherit; font-family: &quot;Helvetica Neue&quot;, sans-serif; font-size: 12px; font-weight: 200;" x="0" y="111.22499942779544" dx="0em" dy="0.3em" fill="rgb(50, 49, 63)" stroke="none" stroke-width="1px">0.7</text><text style="text-anchor: end; visibility: hidden; font-family: &quot;Helvetica Neue&quot;, sans-serif; font-size: 12px; font-weight: 200;" x="0" y="88.97999954223633" dx="0em" dy="0.3em" fill="rgb(50, 49, 63)" stroke="none" stroke-width="1px">0.75</text><text style="text-anchor: end; visibility: inherit; font-family: &quot;Helvetica Neue&quot;, sans-serif; font-size: 12px; font-weight: 200;" x="0" y="66.73499965667723" dx="0em" dy="0.3em" fill="rgb(50, 49, 63)" stroke="none" stroke-width="1px">0.8</text><text style="text-anchor: end; visibility: hidden; font-family: &quot;Helvetica Neue&quot;, sans-serif; font-size: 12px; font-weight: 200;" x="0" y="44.489999771118164" dx="0em" dy="0.3em" fill="rgb(50, 49, 63)" stroke="none" stroke-width="1px">0.85</text><text style="text-anchor: end; visibility: inherit; font-family: &quot;Helvetica Neue&quot;, sans-serif; font-size: 12px; font-weight: 200;" x="0" y="22.244999885559054" dx="0em" dy="0.3em" fill="rgb(50, 49, 63)" stroke="none" stroke-width="1px">0.9</text><text style="text-anchor: end; visibility: hidden; font-family: &quot;Helvetica Neue&quot;, sans-serif; font-size: 12px; font-weight: 200;" x="0" y="0" dx="0em" dy="0.3em" fill="rgb(50, 49, 63)" stroke="none" stroke-width="1px">0.95</text></g><line x1="51.41600036621094" y1="0" x2="51.41600036621094" y2="177.95999908447266" fill="rgb(0, 0, 0)" stroke="rgb(204, 204, 204)" stroke-width="1px"></line></g></g><g transform="translate(51, 0)" clip-path="url(#clip_0)"><clipPath id="clip_0"><rect width="278" height="177"></rect></clipPath><g><g><g><line x1="0" y1="0" x2="0" y2="177.95999908447266" fill="rgb(0, 0, 0)" stroke="rgb(60, 60, 60)" stroke-width="1px" opacity="0.25"></line><line x1="23.215333302815754" y1="0" x2="23.215333302815754" y2="177.95999908447266" fill="rgb(0, 0, 0)" stroke="rgb(60, 60, 60)" stroke-width="1px" opacity="0.25"></line><line x1="46.43066660563151" y1="0" x2="46.43066660563151" y2="177.95999908447266" fill="rgb(0, 0, 0)" stroke="rgb(60, 60, 60)" stroke-width="1px" opacity="0.25"></line><line x1="69.64599990844727" y1="0" x2="69.64599990844727" y2="177.95999908447266" fill="rgb(0, 0, 0)" stroke="rgb(60, 60, 60)" stroke-width="1px" opacity="0.25"></line><line x1="92.86133321126302" y1="0" x2="92.86133321126302" y2="177.95999908447266" fill="rgb(0, 0, 0)" stroke="rgb(60, 60, 60)" stroke-width="1px" opacity="0.25"></line><line x1="116.07666651407878" y1="0" x2="116.07666651407878" y2="177.95999908447266" fill="rgb(0, 0, 0)" stroke="rgb(60, 60, 60)" stroke-width="1px" opacity="0.25"></line><line x1="139.29199981689453" y1="0" x2="139.29199981689453" y2="177.95999908447266" fill="rgb(0, 0, 0)" stroke="rgb(60, 60, 60)" stroke-width="1px" opacity="0.25"></line><line x1="162.5073331197103" y1="0" x2="162.5073331197103" y2="177.95999908447266" fill="rgb(0, 0, 0)" stroke="rgb(60, 60, 60)" stroke-width="1px" opacity="0.25"></line><line x1="185.72266642252603" y1="0" x2="185.72266642252603" y2="177.95999908447266" fill="rgb(0, 0, 0)" stroke="rgb(60, 60, 60)" stroke-width="1px" opacity="0.25"></line><line x1="208.9379997253418" y1="0" x2="208.9379997253418" y2="177.95999908447266" fill="rgb(0, 0, 0)" stroke="rgb(60, 60, 60)" stroke-width="1px" opacity="0.25"></line><line x1="232.15333302815756" y1="0" x2="232.15333302815756" y2="177.95999908447266" fill="rgb(0, 0, 0)" stroke="rgb(60, 60, 60)" stroke-width="1px" opacity="0.25"></line><line x1="255.3686663309733" y1="0" x2="255.3686663309733" y2="177.95999908447266" fill="rgb(0, 0, 0)" stroke="rgb(60, 60, 60)" stroke-width="1px" opacity="0.25"></line><line x1="278.58399963378906" y1="0" x2="278.58399963378906" y2="177.95999908447266" fill="rgb(0, 0, 0)" stroke="rgb(60, 60, 60)" stroke-width="1px" opacity="0.25"></line></g><g><line x1="0" y1="177.95999908447266" x2="278.58399963378906" y2="177.95999908447266" fill="rgb(0, 0, 0)" stroke="rgb(60, 60, 60)" stroke-width="1px" opacity="0.25"></line><line x1="0" y1="155.7149991989136" x2="278.58399963378906" y2="155.7149991989136" fill="rgb(0, 0, 0)" stroke="rgb(60, 60, 60)" stroke-width="1px" opacity="0.25"></line><line x1="0" y1="133.4699993133545" x2="278.58399963378906" y2="133.4699993133545" fill="rgb(0, 0, 0)" stroke="rgb(60, 60, 60)" stroke-width="1px" opacity="0.25"></line><line x1="0" y1="111.22499942779544" x2="278.58399963378906" y2="111.22499942779544" fill="rgb(0, 0, 0)" stroke="rgb(60, 60, 60)" stroke-width="1px" opacity="0.25"></line><line x1="0" y1="88.97999954223633" x2="278.58399963378906" y2="88.97999954223633" fill="rgb(0, 0, 0)" stroke="rgb(60, 60, 60)" stroke-width="1px" opacity="0.25"></line><line x1="0" y1="66.73499965667723" x2="278.58399963378906" y2="66.73499965667723" fill="rgb(0, 0, 0)" stroke="rgb(60, 60, 60)" stroke-width="1px" opacity="0.25"></line><line x1="0" y1="44.489999771118164" x2="278.58399963378906" y2="44.489999771118164" fill="rgb(0, 0, 0)" stroke="rgb(60, 60, 60)" stroke-width="1px" opacity="0.25"></line><line x1="0" y1="22.244999885559054" x2="278.58399963378906" y2="22.244999885559054" fill="rgb(0, 0, 0)" stroke="rgb(60, 60, 60)" stroke-width="1px" opacity="0.25"></line><line x1="0" y1="0" x2="278.58399963378906" y2="0" fill="rgb(0, 0, 0)" stroke="rgb(60, 60, 60)" stroke-width="1px" opacity="0.25"></line></g></g></g><g><g><line x1="0" y1="422.6549978256227" x2="278.58399963378906" y2="422.6549978256227" fill="rgb(0, 0, 0)" stroke="rgb(153, 153, 153)" stroke-width="1.5px"></line></g></g><g><g><line x1="23.215333302815754" y1="0" x2="23.215333302815754" y2="177.95999908447266" fill="rgb(0, 0, 0)" stroke="rgb(153, 153, 153)" stroke-width="1.5px"></line></g></g><g><g><g><g><g><path style="fill: none;" stroke="rgb(0, 119, 187)" stroke-width="2px" d="M23.215333302815754,134.3609387387694L27.858399963378908,133.56229624536834L32.50146662394206,134.40440678570732L37.14453328450521,135.10216222000088L41.78759994506836,136.81285842526765L46.43066660563151,135.2777320887888L51.07373326619466,129.87561085431253L55.716799926757815,129.88085499341253L60.359866587320965,125.23690044962544L65.00293324788412,119.73802778235336L69.64599990844727,114.52207741050711L74.28906656901042,110.72165307995068L78.93213322957357,106.54165436065324L83.57519989013672,101.84891313121189L88.21826655069987,100.71180391237874L92.86133321126302,96.45092079863845L97.50439987182617,90.77103199126678L102.14746653238932,88.15889251904558L106.79053319295248,82.2184748688891L111.43359985351563,78.427282945932L116.07666651407878,75.52791864490291L120.71973317464193,71.34622439420649L125.36279983520508,67.98534748005818L130.00586649576823,65.8552448199411L134.6489331563314,63.469726771461424L139.29199981689453,61.49889257855865L143.9350664774577,60.60036099482299L148.57813313802083,59.067364612271845L153.221199798584,57.52285360627599L157.86426645914713,57.476432011794884L162.5073331197103,57.13621694222783L167.15039978027343,55.42707920327011L171.7934664408366,53.57810333383763L176.43653310139973,53.60457325303226L181.0795997619629,53.961212876186835L185.72266642252603,54.60114108157008L190.3657330830892,53.48008938494108L195.00879974365233,52.63708484125992L199.6518664042155,51.33618442974499L204.29493306477863,50.24328210625997L208.9379997253418,50.155463085839955L213.58106638590496,49.989189320570745L218.2241330464681,50.57094039418784L222.86719970703126,50.607628960183064L227.5102663675944,49.91973117891979L232.15333302815756,50.18850784278071L236.7963996887207,50.860905036882414L241.43946634928386,50.526036844276334L246.082533009847,50.38190710522201L250.72559967041016,49.500331576246055" fill="none"></path></g><g><path style="fill: none;" stroke="rgb(255, 112, 67)" stroke-width="2px" d="M23.215333302815754,149.4649095940265L27.858399963378908,146.09871775105574L32.50146662394206,143.6089161744651L37.14453328450521,142.65031587875856L41.78759994506836,142.14816601156082L46.43066660563151,141.5922156126869L51.07373326619466,141.3884198106113L55.716799926757815,139.19010222778132L60.359866587320965,135.8539466531966L65.00293324788412,130.2492025790467L69.64599990844727,124.80700331815268L74.28906656901042,119.44407844389069L78.93213322957357,114.49099655131641L83.57519989013672,110.88987093798822L88.21826655069987,107.7568314113396L92.86133321126302,104.7456688276371L97.50439987182617,100.96740091109399L102.14746653238932,96.22977928993352L106.79053319295248,90.85567638292247L111.43359985351563,86.12209632990661L116.07666651407878,82.40569067536107L120.71973317464193,78.67878415166886L125.36279983520508,73.61885286903505L130.00586649576823,70.69246118650541L134.6489331563314,67.4395351917915L139.29199981689453,66.89968615363702L143.9350664774577,64.82307719960812L148.57813313802083,63.39453060965489L153.221199798584,61.33242002177781L157.86426645914713,59.43789744115486L162.5073331197103,58.362037919296526L167.15039978027343,57.01057842925384L171.7934664408366,56.503992785044105L176.43653310139973,55.287171488500434L181.0795997619629,54.20410151715936L185.72266642252603,53.54209303896373L190.3657330830892,52.000758948359206L195.00879974365233,51.47762295446336L199.6518664042155,50.46996405292852L204.29493306477863,49.69496336197764L208.9379997253418,48.56052926424397L213.58106638590496,47.84335867738136L218.2241330464681,47.948605393719276L222.86719970703126,47.69528634257537L227.5102663675944,46.33831216042259L232.15333302815756,45.19550467038937L236.7963996887207,44.60718405559851L241.43946634928386,45.15489507892161L246.082533009847,44.266361827097995L250.72559967041016,43.392441780773254" fill="none"></path></g></g></g></g><g opacity="0.2"><g><g><g><path style="fill: none;" stroke="rgb(0, 119, 187)" stroke-width="2px" d="M23.215333302815754,134.3609387387694L27.858399963378908,133.08311074932772L32.50146662394206,135.21283290443262L37.14453328450521,135.92272261073003L41.78759994506836,139.04634339086397L46.43066660563151,133.15409971995746L51.07373326619466,122.1504910550716L55.716799926757815,129.88850099856404L60.359866587320965,118.38796953926999L65.00293324788412,111.57284273207053L69.64599990844727,106.74546013871645L74.28906656901042,105.04169832549633L78.93213322957357,100.28530470277201L83.57519989013672,94.81899485564395L88.21826655069987,99.00747671333033L92.86133321126302,90.06260123291963L97.50439987182617,82.25360231879745L102.14746653238932,84.24134653264286L106.79053319295248,73.30875335649307L111.43359985351563,72.74084159145514L116.07666651407878,71.17903120138817L120.71973317464193,65.07382061859244L125.36279983520508,62.944098463487535L130.00586649576823,62.660116062862244L134.6489331563314,59.89146665398334L139.29199981689453,58.542649693911926L143.9350664774577,59.25256591831567L148.57813313802083,56.767872391955734L153.221199798584,55.20608851999509L157.86426645914713,57.406799645729734L162.5073331197103,56.62589445069625L167.15039978027343,52.86337293489464L171.7934664408366,50.80463975041948L176.43653310139973,53.644278129928125L181.0795997619629,54.49617229559135L185.72266642252603,55.5610333731438L190.3657330830892,51.79851185734219L195.00879974365233,51.37257803356374L199.6518664042155,49.384833819718324L204.29493306477863,48.60392862468484L208.9379997253418,50.023734555386L213.58106638590496,49.73977867286703L218.2241330464681,51.44356700419348L222.86719970703126,50.66266180916L227.5102663675944,48.88788450720381L232.15333302815756,50.59167283853026L236.7963996887207,51.86950082797193L241.43946634928386,50.023734555386L246.082533009847,50.16571249664548L250.72559967041016,48.177968282800066" fill="none"></path></g><g><path style="fill: none;" stroke="rgb(255, 112, 67)" stroke-width="2px" d="M23.215333302815754,149.4649095940265L27.858399963378908,144.07900264527325L32.50146662394206,141.2187066609381L37.14453328450521,141.52300193100768L41.78759994506836,141.49255914494756L46.43066660563151,140.8231360689008L51.07373326619466,141.09698855291026L55.716799926757815,135.98493408816648L60.359866587320965,130.93376519554295L65.00293324788412,121.92681082822742L69.64599990844727,116.69306477356213L74.28906656901042,111.42887593283673L78.93213322957357,107.07754638421375L83.57519989013672,105.49523749795821L88.21826655069987,103.06095489172048L92.86133321126302,100.2310486572328L97.50439987182617,95.3015978726371L102.14746653238932,89.12454973980925L106.79053319295248,82.79534071289345L111.43359985351563,79.02215891834953L116.07666651407878,76.83128601006115L120.71973317464193,73.08854700157735L125.36279983520508,66.02905584460086L130.00586649576823,66.30290832861033L134.6489331563314,62.56016932012653L139.29199981689453,66.08991489861478L143.9350664774577,61.70816908203801L148.57813313802083,61.25171291788047L153.221199798584,58.23925603945736L157.86426645914713,56.59611461729423L162.5073331197103,56.748248993275865L167.15039978027343,54.983389463084904L171.7934664408366,55.74411437920571L176.43653310139973,53.46193963084329L181.0795997619629,52.57949660669465L185.72266642252603,52.54908033874085L190.3657330830892,49.688757836299374L195.00879974365233,50.69291896847585L199.6518664042155,48.95847570623869L204.29493306477863,48.532462328141264L208.9379997253418,46.85887811991802L213.58106638590496,46.7676027979503L218.2241330464681,48.106475468150165L222.86719970703126,47.31530776596924L227.5102663675944,44.3028508875461L232.15333302815756,43.4812934355177L236.7963996887207,43.724703133467045L241.43946634928386,45.9764616138757L246.082533009847,42.93356194939244L250.72559967041016,42.08156171130392" fill="none"></path></g></g></g></g></g></g><g transform="translate(51, 177)" clip-path="url(#clip_1)"><clipPath id="clip_1"><rect width="278" height="22"></rect></clipPath><g><g><line x1="0" y1="0" x2="0" y2="5" style="visibility: inherit;" fill="rgb(0, 0, 0)" stroke="rgb(204, 204, 204)" stroke-width="1px"></line><line x1="23.215333302815754" y1="0" x2="23.215333302815754" y2="5" style="visibility: inherit;" fill="rgb(0, 0, 0)" stroke="rgb(204, 204, 204)" stroke-width="1px"></line><line x1="46.43066660563151" y1="0" x2="46.43066660563151" y2="5" style="visibility: inherit;" fill="rgb(0, 0, 0)" stroke="rgb(204, 204, 204)" stroke-width="1px"></line><line x1="69.64599990844727" y1="0" x2="69.64599990844727" y2="5" style="visibility: inherit;" fill="rgb(0, 0, 0)" stroke="rgb(204, 204, 204)" stroke-width="1px"></line><line x1="92.86133321126302" y1="0" x2="92.86133321126302" y2="5" style="visibility: inherit;" fill="rgb(0, 0, 0)" stroke="rgb(204, 204, 204)" stroke-width="1px"></line><line x1="116.07666651407878" y1="0" x2="116.07666651407878" y2="5" style="visibility: inherit;" fill="rgb(0, 0, 0)" stroke="rgb(204, 204, 204)" stroke-width="1px"></line><line x1="139.29199981689453" y1="0" x2="139.29199981689453" y2="5" style="visibility: inherit;" fill="rgb(0, 0, 0)" stroke="rgb(204, 204, 204)" stroke-width="1px"></line><line x1="162.5073331197103" y1="0" x2="162.5073331197103" y2="5" style="visibility: inherit;" fill="rgb(0, 0, 0)" stroke="rgb(204, 204, 204)" stroke-width="1px"></line><line x1="185.72266642252603" y1="0" x2="185.72266642252603" y2="5" style="visibility: inherit;" fill="rgb(0, 0, 0)" stroke="rgb(204, 204, 204)" stroke-width="1px"></line><line x1="208.9379997253418" y1="0" x2="208.9379997253418" y2="5" style="visibility: inherit;" fill="rgb(0, 0, 0)" stroke="rgb(204, 204, 204)" stroke-width="1px"></line><line x1="232.15333302815756" y1="0" x2="232.15333302815756" y2="5" style="visibility: inherit;" fill="rgb(0, 0, 0)" stroke="rgb(204, 204, 204)" stroke-width="1px"></line><line x1="255.3686663309733" y1="0" x2="255.3686663309733" y2="5" style="visibility: inherit;" fill="rgb(0, 0, 0)" stroke="rgb(204, 204, 204)" stroke-width="1px"></line><line x1="278.58399963378906" y1="0" x2="278.58399963378906" y2="5" style="visibility: inherit;" fill="rgb(0, 0, 0)" stroke="rgb(204, 204, 204)" stroke-width="1px"></line></g><g transform="translate(0, 8)"><text style="text-anchor: middle; visibility: hidden; font-family: &quot;Helvetica Neue&quot;, sans-serif; font-size: 12px; font-weight: 200;" x="0" y="0" dx="0em" dy="0.95em" fill="rgb(50, 49, 63)" stroke="none" stroke-width="1px">-5</text><text style="text-anchor: middle; visibility: inherit; font-family: &quot;Helvetica Neue&quot;, sans-serif; font-size: 12px; font-weight: 200;" x="23.215333302815754" y="0" dx="0em" dy="0.95em" fill="rgb(50, 49, 63)" stroke="none" stroke-width="1px">0</text><text style="text-anchor: middle; visibility: inherit; font-family: &quot;Helvetica Neue&quot;, sans-serif; font-size: 12px; font-weight: 200;" x="46.43066660563151" y="0" dx="0em" dy="0.95em" fill="rgb(50, 49, 63)" stroke="none" stroke-width="1px">5</text><text style="text-anchor: middle; visibility: inherit; font-family: &quot;Helvetica Neue&quot;, sans-serif; font-size: 12px; font-weight: 200;" x="69.64599990844727" y="0" dx="0em" dy="0.95em" fill="rgb(50, 49, 63)" stroke="none" stroke-width="1px">10</text><text style="text-anchor: middle; visibility: inherit; font-family: &quot;Helvetica Neue&quot;, sans-serif; font-size: 12px; font-weight: 200;" x="92.86133321126302" y="0" dx="0em" dy="0.95em" fill="rgb(50, 49, 63)" stroke="none" stroke-width="1px">15</text><text style="text-anchor: middle; visibility: inherit; font-family: &quot;Helvetica Neue&quot;, sans-serif; font-size: 12px; font-weight: 200;" x="116.07666651407878" y="0" dx="0em" dy="0.95em" fill="rgb(50, 49, 63)" stroke="none" stroke-width="1px">20</text><text style="text-anchor: middle; visibility: inherit; font-family: &quot;Helvetica Neue&quot;, sans-serif; font-size: 12px; font-weight: 200;" x="139.29199981689453" y="0" dx="0em" dy="0.95em" fill="rgb(50, 49, 63)" stroke="none" stroke-width="1px">25</text><text style="text-anchor: middle; visibility: inherit; font-family: &quot;Helvetica Neue&quot;, sans-serif; font-size: 12px; font-weight: 200;" x="162.5073331197103" y="0" dx="0em" dy="0.95em" fill="rgb(50, 49, 63)" stroke="none" stroke-width="1px">30</text><text style="text-anchor: middle; visibility: inherit; font-family: &quot;Helvetica Neue&quot;, sans-serif; font-size: 12px; font-weight: 200;" x="185.72266642252603" y="0" dx="0em" dy="0.95em" fill="rgb(50, 49, 63)" stroke="none" stroke-width="1px">35</text><text style="text-anchor: middle; visibility: inherit; font-family: &quot;Helvetica Neue&quot;, sans-serif; font-size: 12px; font-weight: 200;" x="208.9379997253418" y="0" dx="0em" dy="0.95em" fill="rgb(50, 49, 63)" stroke="none" stroke-width="1px">40</text><text style="text-anchor: middle; visibility: inherit; font-family: &quot;Helvetica Neue&quot;, sans-serif; font-size: 12px; font-weight: 200;" x="232.15333302815756" y="0" dx="0em" dy="0.95em" fill="rgb(50, 49, 63)" stroke="none" stroke-width="1px">45</text><text style="text-anchor: middle; visibility: inherit; font-family: &quot;Helvetica Neue&quot;, sans-serif; font-size: 12px; font-weight: 200;" x="255.3686663309733" y="0" dx="0em" dy="0.95em" fill="rgb(50, 49, 63)" stroke="none" stroke-width="1px">50</text><text style="text-anchor: middle; visibility: hidden; font-family: &quot;Helvetica Neue&quot;, sans-serif; font-size: 12px; font-weight: 200;" x="278.58399963378906" y="0" dx="0em" dy="0.95em" fill="rgb(50, 49, 63)" stroke="none" stroke-width="1px">55</text></g><line x1="0" y1="0" x2="278.58399963378906" y2="0" fill="rgb(0, 0, 0)" stroke="rgb(204, 204, 204)" stroke-width="1px"></line></g></g></g></g></svg>