<svg viewBox="0 0 330 200" xmlns="http://www.w3.org/2000/svg"><g><g><g><g><g><line x1="51.41600036621094" y1="177.95999908447266" x2="46.41600036621094" y2="177.95999908447266" style="visibility: inherit;" fill="rgb(0, 0, 0)" stroke="rgb(204, 204, 204)" stroke-width="1px"></line><line x1="51.41600036621094" y1="158.18666585286462" x2="46.41600036621094" y2="158.18666585286462" style="visibility: inherit;" fill="rgb(0, 0, 0)" stroke="rgb(204, 204, 204)" stroke-width="1px"></line><line x1="51.41600036621094" y1="138.41333262125653" x2="46.41600036621094" y2="138.41333262125653" style="visibility: inherit;" fill="rgb(0, 0, 0)" stroke="rgb(204, 204, 204)" stroke-width="1px"></line><line x1="51.41600036621094" y1="118.63999938964847" x2="46.41600036621094" y2="118.63999938964847" style="visibility: inherit;" fill="rgb(0, 0, 0)" stroke="rgb(204, 204, 204)" stroke-width="1px"></line><line x1="51.41600036621094" y1="98.86666615804037" x2="46.41600036621094" y2="98.86666615804037" style="visibility: inherit;" fill="rgb(0, 0, 0)" stroke="rgb(204, 204, 204)" stroke-width="1px"></line><line x1="51.41600036621094" y1="79.09333292643228" x2="46.41600036621094" y2="79.09333292643228" style="visibility: inherit;" fill="rgb(0, 0, 0)" stroke="rgb(204, 204, 204)" stroke-width="1px"></line><line x1="51.41600036621094" y1="59.31999969482422" x2="46.41600036621094" y2="59.31999969482422" style="visibility: inherit;" fill="rgb(0, 0, 0)" stroke="rgb(204, 204, 204)" stroke-width="1px"></line><line x1="51.41600036621094" y1="39.546666463216155" x2="46.41600036621094" y2="39.546666463216155" style="visibility: inherit;" fill="rgb(0, 0, 0)" stroke="rgb(204, 204, 204)" stroke-width="1px"></line><line x1="51.41600036621094" y1="19.773333231608092" x2="46.41600036621094" y2="19.773333231608092" style="visibility: inherit;" fill="rgb(0, 0, 0)" stroke="rgb(204, 204, 204)" stroke-width="1px"></line><line x1="51.41600036621094" y1="0" x2="46.41600036621094" y2="0" style="visibility: inherit;" fill="rgb(0, 0, 0)" stroke="rgb(204, 204, 204)" stroke-width="1px"></line></g><g transform="translate(41.41600036621094, 0)"><text style="text-anchor: end; visibility: hidden; font-family: &quot;Helvetica Neue&quot;, sans-serif; font-size: 12px; font-weight: 200;" x="0" y="177.95999908447266" dx="0em" dy="0.3em" fill="rgb(50, 49, 63)" stroke="none" stroke-width="1px">0.55</text><text style="text-anchor: end; visibility: inherit; font-family: &quot;Helvetica Neue&quot;, sans-serif; font-size: 12px; font-weight: 200;" x="0" y="158.18666585286462" dx="0em" dy="0.3em" fill="rgb(50, 49, 63)" stroke="none" stroke-width="1px">0.6</text><text style="text-anchor: end; visibility: hidden; font-family: &quot;Helvetica Neue&quot;, sans-serif; font-size: 12px; font-weight: 200;" x="0" y="138.41333262125653" dx="0em" dy="0.3em" fill="rgb(50, 49, 63)" stroke="none" stroke-width="1px">0.65</text><text style="text-anchor: end; visibility: inherit; font-family: &quot;Helvetica Neue&quot;, sans-serif; font-size: 12px; font-weight: 200;" x="0" y="118.63999938964847" dx="0em" dy="0.3em" fill="rgb(50, 49, 63)" stroke="none" stroke-width="1px">0.7</text><text style="text-anchor: end; visibility: hidden; font-family: &quot;Helvetica Neue&quot;, sans-serif; font-size: 12px; font-weight: 200;" x="0" y="98.86666615804037" dx="0em" dy="0.3em" fill="rgb(50, 49, 63)" stroke="none" stroke-width="1px">0.75</text><text style="text-anchor: end; visibility: inherit; font-family: &quot;Helvetica Neue&quot;, sans-serif; font-size: 12px; font-weight: 200;" x="0" y="79.09333292643228" dx="0em" dy="0.3em" fill="rgb(50, 49, 63)" stroke="none" stroke-width="1px">0.8</text><text style="text-anchor: end; visibility: hidden; font-family: &quot;Helvetica Neue&quot;, sans-serif; font-size: 12px; font-weight: 200;" x="0" y="59.31999969482422" dx="0em" dy="0.3em" fill="rgb(50, 49, 63)" stroke="none" stroke-width="1px">0.85</text><text style="text-anchor: end; visibility: inherit; font-family: &quot;Helvetica Neue&quot;, sans-serif; font-size: 12px; font-weight: 200;" x="0" y="39.546666463216155" dx="0em" dy="0.3em" fill="rgb(50, 49, 63)" stroke="none" stroke-width="1px">0.9</text><text style="text-anchor: end; visibility: hidden; font-family: &quot;Helvetica Neue&quot;, sans-serif; font-size: 12px; font-weight: 200;" x="0" y="19.773333231608092" dx="0em" dy="0.3em" fill="rgb(50, 49, 63)" stroke="none" stroke-width="1px">0.95</text><text style="text-anchor: end; visibility: hidden; font-family: &quot;Helvetica Neue&quot;, sans-serif; font-size: 12px; font-weight: 200;" x="0" y="0" dx="0em" dy="0.3em" fill="rgb(50, 49, 63)" stroke="none" stroke-width="1px">1</text></g><line x1="51.41600036621094" y1="0" x2="51.41600036621094" y2="177.95999908447266" fill="rgb(0, 0, 0)" stroke="rgb(204, 204, 204)" stroke-width="1px"></line></g></g><g transform="translate(51, 0)" clip-path="url(#clip_0)"><clipPath id="clip_0"><rect width="278" height="177"></rect></clipPath><g><g><g><line x1="0" y1="0" x2="0" y2="177.95999908447266" fill="rgb(0, 0, 0)" stroke="rgb(60, 60, 60)" stroke-width="1px" opacity="0.25"></line><line x1="23.215333302815754" y1="0" x2="23.215333302815754" y2="177.95999908447266" fill="rgb(0, 0, 0)" stroke="rgb(60, 60, 60)" stroke-width="1px" opacity="0.25"></line><line x1="46.43066660563151" y1="0" x2="46.43066660563151" y2="177.95999908447266" fill="rgb(0, 0, 0)" stroke="rgb(60, 60, 60)" stroke-width="1px" opacity="0.25"></line><line x1="69.64599990844727" y1="0" x2="69.64599990844727" y2="177.95999908447266" fill="rgb(0, 0, 0)" stroke="rgb(60, 60, 60)" stroke-width="1px" opacity="0.25"></line><line x1="92.86133321126302" y1="0" x2="92.86133321126302" y2="177.95999908447266" fill="rgb(0, 0, 0)" stroke="rgb(60, 60, 60)" stroke-width="1px" opacity="0.25"></line><line x1="116.07666651407878" y1="0" x2="116.07666651407878" y2="177.95999908447266" fill="rgb(0, 0, 0)" stroke="rgb(60, 60, 60)" stroke-width="1px" opacity="0.25"></line><line x1="139.29199981689453" y1="0" x2="139.29199981689453" y2="177.95999908447266" fill="rgb(0, 0, 0)" stroke="rgb(60, 60, 60)" stroke-width="1px" opacity="0.25"></line><line x1="162.5073331197103" y1="0" x2="162.5073331197103" y2="177.95999908447266" fill="rgb(0, 0, 0)" stroke="rgb(60, 60, 60)" stroke-width="1px" opacity="0.25"></line><line x1="185.72266642252603" y1="0" x2="185.72266642252603" y2="177.95999908447266" fill="rgb(0, 0, 0)" stroke="rgb(60, 60, 60)" stroke-width="1px" opacity="0.25"></line><line x1="208.9379997253418" y1="0" x2="208.9379997253418" y2="177.95999908447266" fill="rgb(0, 0, 0)" stroke="rgb(60, 60, 60)" stroke-width="1px" opacity="0.25"></line><line x1="232.15333302815756" y1="0" x2="232.15333302815756" y2="177.95999908447266" fill="rgb(0, 0, 0)" stroke="rgb(60, 60, 60)" stroke-width="1px" opacity="0.25"></line><line x1="255.3686663309733" y1="0" x2="255.3686663309733" y2="177.95999908447266" fill="rgb(0, 0, 0)" stroke="rgb(60, 60, 60)" stroke-width="1px" opacity="0.25"></line><line x1="278.58399963378906" y1="0" x2="278.58399963378906" y2="177.95999908447266" fill="rgb(0, 0, 0)" stroke="rgb(60, 60, 60)" stroke-width="1px" opacity="0.25"></line></g><g><line x1="0" y1="177.95999908447266" x2="278.58399963378906" y2="177.95999908447266" fill="rgb(0, 0, 0)" stroke="rgb(60, 60, 60)" stroke-width="1px" opacity="0.25"></line><line x1="0" y1="158.18666585286462" x2="278.58399963378906" y2="158.18666585286462" fill="rgb(0, 0, 0)" stroke="rgb(60, 60, 60)" stroke-width="1px" opacity="0.25"></line><line x1="0" y1="138.41333262125653" x2="278.58399963378906" y2="138.41333262125653" fill="rgb(0, 0, 0)" stroke="rgb(60, 60, 60)" stroke-width="1px" opacity="0.25"></line><line x1="0" y1="118.63999938964847" x2="278.58399963378906" y2="118.63999938964847" fill="rgb(0, 0, 0)" stroke="rgb(60, 60, 60)" stroke-width="1px" opacity="0.25"></line><line x1="0" y1="98.86666615804037" x2="278.58399963378906" y2="98.86666615804037" fill="rgb(0, 0, 0)" stroke="rgb(60, 60, 60)" stroke-width="1px" opacity="0.25"></line><line x1="0" y1="79.09333292643228" x2="278.58399963378906" y2="79.09333292643228" fill="rgb(0, 0, 0)" stroke="rgb(60, 60, 60)" stroke-width="1px" opacity="0.25"></line><line x1="0" y1="59.31999969482422" x2="278.58399963378906" y2="59.31999969482422" fill="rgb(0, 0, 0)" stroke="rgb(60, 60, 60)" stroke-width="1px" opacity="0.25"></line><line x1="0" y1="39.546666463216155" x2="278.58399963378906" y2="39.546666463216155" fill="rgb(0, 0, 0)" stroke="rgb(60, 60, 60)" stroke-width="1px" opacity="0.25"></line><line x1="0" y1="19.773333231608092" x2="278.58399963378906" y2="19.773333231608092" fill="rgb(0, 0, 0)" stroke="rgb(60, 60, 60)" stroke-width="1px" opacity="0.25"></line><line x1="0" y1="0" x2="278.58399963378906" y2="0" fill="rgb(0, 0, 0)" stroke="rgb(60, 60, 60)" stroke-width="1px" opacity="0.25"></line></g></g></g><g><g><line x1="0" y1="395.4666646321615" x2="278.58399963378906" y2="395.4666646321615" fill="rgb(0, 0, 0)" stroke="rgb(153, 153, 153)" stroke-width="1.5px"></line></g></g><g><g><line x1="23.215333302815754" y1="0" x2="23.215333302815754" y2="177.95999908447266" fill="rgb(0, 0, 0)" stroke="rgb(153, 153, 153)" stroke-width="1.5px"></line></g></g><g><g><g><g><g><path style="fill: none;" stroke="rgb(0, 119, 187)" stroke-width="2px" d="M23.215333302815754,120.08935415158098L25.53686663309733,99.04086698320366L27.858399963378908,108.52721590462235L30.179933293660483,98.79714614328753L32.50146662394206,99.56414130332027L34.82299995422363,92.98939063223729L37.14453328450521,91.07728512154084L39.46606661478678,87.80907886613616L41.78759994506836,90.70594528425524L44.10913327534993,87.66739070226078L46.43066660563151,84.39709423398085L48.75219993591308,79.74325919414407L51.07373326619466,76.87483693675061L53.39526659647624,74.67149618638311L55.716799926757815,71.73988349382456L58.03833325703939,68.59670873788636L60.359866587320965,65.97624995945381L62.68139991760254,65.86871628156857L65.00293324788412,65.54852180120957L67.3244665781657,68.16250909972467L69.64599990844727,68.92125008840219L71.96753323872885,68.39308101380567L74.28906656901042,68.42437268734457L76.610599899292,65.84291665256885L78.93213322957357,64.36096439123524L81.25366655985515,61.27423528653803L83.57519989013672,60.59408837904563L85.8967332204183,59.76973324149024L88.21826655069987,58.34783824180023L90.53979988098145,56.233296567040014L92.86133321126302,54.83531258923564L95.1828665415446,54.42824204460679L97.50439987182617,53.840851498893784L99.82593320210775,52.647952111762805L102.14746653238932,51.14539259335599L104.4689998626709,50.914797072443534L106.79053319295248,51.26026895315157L109.11206652323405,51.443206811041904L111.43359985351563,51.62141799066049L113.7551331837972,50.99831045696713L116.07666651407878,51.098757746661065L118.39819984436035,50.58371726694381L120.71973317464193,49.57330600003476L123.0412665049235,48.5017074865242L125.36279983520508,49.143162073516635L127.68433316548665,48.94352992410168L130.00586649576823,49.09993221920209L132.3273998260498,47.781021621107385L134.6489331563314,47.50799849307714L136.97046648661293,47.639246197287406L139.29199981689453,47.34610194959785L141.6135331471761,46.85877146680721L143.9350664774577,46.91999629040694L146.25659980773926,47.01195841392399L148.57813313802083,46.27779424565634L150.8996664683024,45.69802774623926L153.221199798584,45.56249528828775L155.54273312886556,44.88271835193345L157.86426645914713,44.98968060647502L160.1857997894287,45.45081187309802L162.5073331197103,46.08404453736307L164.82886644999186,46.363012387693715L167.15039978027343,46.0241199874111L169.471933110555,46.775962782071105L171.7934664408366,46.49923605790633L174.11499977111816,46.43315113107562L176.43653310139973,45.58132562969283L178.75806643168133,44.802353744189304L181.0795997619629,44.18356766785979L183.40113309224446,45.58335787670961L185.72266642252603,45.63726175844275L188.04419975280763,44.67661197471878L190.3657330830892,44.268062141855324L192.68726641337076,43.42867060910922L195.00879974365233,42.54424818536796L197.33033307393393,42.240678654288104L199.6518664042155,42.55811063483563L201.97339973449706,42.09773074207294L204.29493306477863,42.93761906783649L206.61646639506023,42.660018000282804L208.9379997253418,43.50374028735882L211.25953305562336,44.721287802450746L213.58106638590496,44.616882601511236L215.90259971618653,45.146126637163974L218.2241330464681,44.98606740591825L220.54566637674967,43.994514041443125L222.86719970703126,42.99723800727466L225.18873303731283,43.37054927676698L227.5102663675944,44.004941163535534L229.83179969787597,44.07187517519199L232.15333302815756,43.47132177911058L234.47486635843913,43.89877099151775L236.7963996887207,43.08840417452788L239.11793301900227,42.50044261134903L241.43946634928386,42.70634276623386L243.76099967956543,43.175880556342264L246.082533009847,43.157681114562536L248.4040663401286,42.87062868617866L250.72559967041016,42.659927031274975L253.04713300069173,42.55432408129616" fill="none"></path></g><g><path style="fill: none;" stroke="rgb(255, 112, 67)" stroke-width="2px" d="M23.215333302815754,153.54605853242902L25.53686663309733,135.29712415521283L27.858399963378908,127.41785777869376L30.179933293660483,120.98505927037043L32.50146662394206,115.26570675894772L34.82299995422363,111.96660018703469L37.14453328450521,108.47439080054767L39.46606661478678,105.49539905947567L41.78759994506836,102.577428789653L44.10913327534993,100.32034868973241L46.43066660563151,98.08803776127506L48.75219993591308,95.53686762226006L51.07373326619466,93.35899163052902L53.39526659647624,90.89998404345842L55.716799926757815,89.70066782294195L58.03833325703939,87.84400864599303L60.359866587320965,85.81709455513956L62.68139991760254,84.18650715423487L65.00293324788412,82.50036187848774L67.3244665781657,80.64137356582721L69.64599990844727,79.4668008132595L71.96753323872885,78.20085046725609L74.28906656901042,77.08084960128868L76.610599899292,75.6285683887319L78.93213322957357,73.95966158998155L81.25366655985515,73.2296091078507L83.57519989013672,72.00517520612031L85.8967332204183,71.15982075359038L88.21826655069987,70.2772579151831L90.53979988098145,69.00826252490208L92.86133321126302,68.26351994072897L95.1828665415446,66.88801097108761L97.50439987182617,66.09904698333338L99.82593320210775,65.31482345202072L102.14746653238932,64.3086805908376L104.4689998626709,63.26063882408097L106.79053319295248,62.418345630250485L109.11206652323405,61.60409079790905L111.43359985351563,61.09762232220838L113.7551331837972,60.55799989698953L116.07666651407878,60.05622529313892L118.39819984436035,59.27080418910995L120.71973317464193,58.63875117760365L123.0412665049235,58.08154668265618L125.36279983520508,57.173301622249866L127.68433316548665,56.60070660769328L130.00586649576823,55.745743725343914L132.3273998260498,55.402172115816555L134.6489331563314,54.638153633668935L136.97046648661293,53.9993524636683L139.29199981689453,53.494241997474916L141.6135331471761,52.59831935199462L143.9350664774577,51.95286648816608L146.25659980773926,51.55824268695294L148.57813313802083,51.21536384438484L150.8996664683024,50.817742517402536L153.221199798584,50.36424609167776L155.54273312886556,49.95358026007693L157.86426645914713,49.61335480251071L160.1857997894287,49.52538876011664L162.5073331197103,49.14991867479756L164.82886644999186,48.474787284078815L167.15039978027343,48.137307460652835L169.471933110555,47.66962375954719L171.7934664408366,47.238305175751066L174.11499977111816,46.92164193355171L176.43653310139973,46.820883942505304L178.75806643168133,46.34296899914699L181.0795997619629,46.085473115583056L183.40113309224446,46.01951567367328L185.72266642252603,45.53032298880834L188.04419975280763,44.99725090905554L190.3657330830892,44.774867865873716L192.68726641337076,44.34076875792087L195.00879974365233,43.99676026479233L197.33033307393393,43.84731025816316L199.6518664042155,43.38523756073914L201.97339973449706,43.282679219549294L204.29493306477863,42.75339011479605L206.61646639506023,42.4180160953575L208.9379997253418,41.819291898465934L211.25953305562336,41.1412066096338L213.58106638590496,40.734660874901095L215.90259971618653,40.68865754154575L218.2241330464681,40.28326097379281L220.54566637674967,39.972498136875856L222.86719970703126,39.868543883995955L225.18873303731283,39.53736395915931L227.5102663675944,39.490412622717656L229.83179969787597,39.39978257348332L232.15333302815756,39.49542943548215L234.47486635843913,38.90584575429358L236.7963996887207,38.46824342127135L239.11793301900227,38.09627056359594L241.43946634928386,37.98064994287796L243.76099967956543,37.63102922572614L246.082533009847,37.55144224413874L248.4040663401286,36.975678954452036L250.72559967041016,36.882284431533265L253.04713300069173,36.8177343650151" fill="none"></path></g></g></g></g><g opacity="0.2"><g><g><g><path style="fill: none;" stroke="rgb(0, 119, 187)" stroke-width="2px" d="M23.215333302815754,120.08935415158098L25.53686663309733,80.74973163388374L27.858399963378908,123.93457385518258L30.179933293660483,76.60873486525514L32.50146662394206,101.7505868286541L34.82299995422363,70.98878205654121L37.14453328450521,83.85550867491779L39.46606661478678,74.2424240584387L41.78759994506836,103.6732084662799L44.10913327534993,73.20718075919406L46.43066660563151,68.03091711967076L48.75219993591308,55.45999113797127L51.07373326619466,61.375721011712216L53.39526659647624,62.41096431095686L55.716799926757815,55.01630196878068L58.03833325703939,50.28372749844797L60.359866587320965,50.43161603096148L62.68139991760254,65.2209407153138L65.00293324788412,63.594119714365064L67.3244665781657,84.29917427245833L69.64599990844727,73.65086992838467L71.96753323872885,65.0730521828003L74.28906656901042,68.62249482137486L76.610599899292,49.39634916006679L78.93213322957357,54.868413436267176L81.25366655985515,41.41013268783658L83.57519989013672,56.1994573721889L85.8967332204183,54.42472426707657L88.21826655069987,49.10057209503975L90.53979988098145,42.445375987081206L92.86133321126302,45.69901798897868L95.1828665415446,51.762659966883206L97.50439987182617,49.98792686177087L99.82593320210775,44.811663222247574L102.14746653238932,41.262220583672985L104.4689998626709,49.39634916006679L106.79053319295248,53.53736950034546L109.11206652323405,52.65001473361433L111.43359985351563,52.79790326612783L113.7551331837972,46.8821733923869L116.07666651407878,51.762659966883206L118.39819984436035,47.17795045741394L120.71973317464193,42.88906515627181L123.0412665049235,41.41013268783658L125.36279983520508,53.38948096783193L127.68433316548665,47.62163962660452L130.00586649576823,50.13581539428438L132.3273998260498,39.043821881020136L134.6489331563314,45.69901798897868L136.97046648661293,48.508994393335655L139.29199981689453,45.40324092395167L141.6135331471761,43.62853139048943L143.9350664774577,47.32586256157751L146.25659980773926,47.62163962660452L148.57813313802083,41.41013268783658L150.8996664683024,41.85379828537711L153.221199798584,44.663774689734055L155.54273312886556,40.37486581694188L157.86426645914713,45.69901798897868L160.1857997894287,48.508994393335655L162.5073331197103,50.28372749844797L164.82886644999186,48.213217328308644L167.15039978027343,43.77641992300295L169.471933110555,51.762659966883206L171.7934664408366,44.663774689734055L174.11499977111816,45.994818625655796L176.43653310139973,39.93120021940135L178.75806643168133,39.63539958272426L181.0795997619629,40.07908875191484L183.40113309224446,54.868413436267176L185.72266642252603,45.994818625655796L188.04419975280763,38.30435564680255L190.3657330830892,41.5580212203501L192.68726641337076,37.86069004926199L195.00879974365233,36.6775346458538L197.33033307393393,40.22697728442836L199.6518664042155,44.663774689734055L201.97339973449706,39.043821881020136L204.29493306477863,48.508994393335655L206.61646639506023,40.818554986132455L208.9379997253418,49.10057209503975L211.25953305562336,52.79790326612783L213.58106638590496,43.92430845551644L215.90259971618653,48.656882925849146L218.2241330464681,43.92430845551644L220.54566637674967,37.41700088007141L222.86719970703126,36.38175758082676L225.18873303731283,45.84693009314228L227.5102663675944,48.213217328308644L229.83179969787597,44.515886157220535L232.15333302815756,39.48751105021074L234.47486635843913,46.734284859873384L236.7963996887207,37.71277794509842L239.11793301900227,38.600156283479606L241.43946634928386,44.07219698802996L243.76099967956543,46.29059569068281L246.082533009847,43.0369536887853L248.4040663401286,40.966443518645974L250.72559967041016,41.262220583672985L253.04713300069173,41.85379828537711" fill="none"></path></g><g><path style="fill: none;" stroke="rgb(255, 112, 67)" stroke-width="2px" d="M23.215333302815754,153.54605853242902L25.53686663309733,119.43880018141198L27.858399963378908,114.62066062134001L30.179933293660483,106.31573186856866L32.50146662394206,98.96175419440625L34.82299995422363,100.92704051865138L37.14453328450521,95.28476535732504L39.46606661478678,93.12930296034817L41.78759994506836,89.5156982902942L44.10913327534993,89.5791060289715L46.43066660563151,86.91645243752647L48.75219993591308,82.22510478315903L51.07373326619466,81.59114525463643L53.39526659647624,77.21678915035531L55.716799926757815,82.8590878833317L58.03833325703939,77.02661307762355L60.359866587320965,73.79338412468316L62.68139991760254,74.36395948617853L65.00293324788412,72.2084735175516L67.3244665781657,69.16546778064307L69.64599990844727,72.14508935052436L71.96753323872885,70.24318719330647L74.28906656901042,69.98960338189744L76.610599899292,66.37602228349351L78.93213322957357,63.269585236257626L81.25366655985515,68.53148468047038L83.57519989013672,64.09374440916206L85.8967332204183,65.67865501629362L88.21826655069987,64.53752786495292L90.53979988098145,60.7337471221672L92.86133321126302,63.39637714196216L95.1828665415446,57.880893886340345L97.50439987182617,60.92392319489895L99.82593320210775,60.163171760671815L102.14746653238932,57.690717813608615L104.4689998626709,56.35939101788608L106.79053319295248,56.866558640704184L109.11206652323405,56.23259911218156L111.43359985351563,57.754101980635824L113.7551331837972,56.99335054640869L116.07666651407878,56.73976673499965L118.39819984436035,54.07711314355463L120.71973317464193,54.45748886066819L123.0412665049235,54.39410469364097L125.36279983520508,51.16087574070055L127.68433316548665,52.80919408650941L130.00586649576823,50.08315632803715L132.3273998260498,53.126162064945675L134.6489331563314,49.575965133568985L136.97046648661293,49.76616477795082L139.29199981689453,50.146540495064386L141.6135331471761,46.65975130236498L143.9350664774577,47.674086548001156L146.25659980773926,48.942005605046376L148.57813313802083,48.942005605046376L150.8996664683024,48.181254170819244L153.221199798584,47.35709499791483L155.54273312886556,47.230303092210306L157.86426645914713,47.35709499791483L160.1857997894287,48.942005605046376L162.5073331197103,46.65975130236498L164.82886644999186,43.997097710919974L167.15039978027343,45.8989762964878L169.471933110555,44.56764950076527L171.7934664408366,44.37747342803354L174.11499977111816,44.82125688382439L176.43653310139973,46.152560107896846L178.75806643168133,43.17293853801553L181.0795997619629,44.37747342803354L183.40113309224446,45.58200831805152L185.72266642252603,42.285395198083876L188.04419975280763,41.46123602517946L190.3657330830892,43.29973044372008L192.68726641337076,41.46123602517946L195.00879974365233,41.714819836588504L197.33033307393393,42.8559469879292L199.6518664042155,40.32010887383876L201.97339973449706,42.60236317652016L204.29493306477863,39.2423658895253L206.61646639506023,40.19331696813424L208.9379997253418,37.84765492677556L211.25953305562336,36.64312003675755L213.58106638590496,38.03783099950729L215.90259971618653,40.383493040866L218.2241330464681,37.59404754371644L220.54566637674967,37.9110390938028L222.86719970703126,39.17895815084799L225.18873303731283,37.3404637323074L227.5102663675944,39.17895815084799L229.83179969787597,38.798582433734424L232.15333302815756,40.129909229456956L234.47486635843913,34.99480169094872L236.7963996887207,35.56537705244409L239.11793301900227,35.62876121947133L241.43946634928386,37.21367182660288L243.76099967956543,35.31179324103505L246.082533009847,37.02349575387112L248.4040663401286,33.1563072724081L250.72559967041016,36.262744319643986L253.04713300069173,36.389536225348536" fill="none"></path></g></g></g></g></g></g><g transform="translate(51, 177)" clip-path="url(#clip_1)"><clipPath id="clip_1"><rect width="278" height="22"></rect></clipPath><g><g><line x1="0" y1="0" x2="0" y2="5" style="visibility: inherit;" fill="rgb(0, 0, 0)" stroke="rgb(204, 204, 204)" stroke-width="1px"></line><line x1="23.215333302815754" y1="0" x2="23.215333302815754" y2="5" style="visibility: inherit;" fill="rgb(0, 0, 0)" stroke="rgb(204, 204, 204)" stroke-width="1px"></line><line x1="46.43066660563151" y1="0" x2="46.43066660563151" y2="5" style="visibility: inherit;" fill="rgb(0, 0, 0)" stroke="rgb(204, 204, 204)" stroke-width="1px"></line><line x1="69.64599990844727" y1="0" x2="69.64599990844727" y2="5" style="visibility: inherit;" fill="rgb(0, 0, 0)" stroke="rgb(204, 204, 204)" stroke-width="1px"></line><line x1="92.86133321126302" y1="0" x2="92.86133321126302" y2="5" style="visibility: inherit;" fill="rgb(0, 0, 0)" stroke="rgb(204, 204, 204)" stroke-width="1px"></line><line x1="116.07666651407878" y1="0" x2="116.07666651407878" y2="5" style="visibility: inherit;" fill="rgb(0, 0, 0)" stroke="rgb(204, 204, 204)" stroke-width="1px"></line><line x1="139.29199981689453" y1="0" x2="139.29199981689453" y2="5" style="visibility: inherit;" fill="rgb(0, 0, 0)" stroke="rgb(204, 204, 204)" stroke-width="1px"></line><line x1="162.5073331197103" y1="0" x2="162.5073331197103" y2="5" style="visibility: inherit;" fill="rgb(0, 0, 0)" stroke="rgb(204, 204, 204)" stroke-width="1px"></line><line x1="185.72266642252603" y1="0" x2="185.72266642252603" y2="5" style="visibility: inherit;" fill="rgb(0, 0, 0)" stroke="rgb(204, 204, 204)" stroke-width="1px"></line><line x1="208.9379997253418" y1="0" x2="208.9379997253418" y2="5" style="visibility: inherit;" fill="rgb(0, 0, 0)" stroke="rgb(204, 204, 204)" stroke-width="1px"></line><line x1="232.15333302815756" y1="0" x2="232.15333302815756" y2="5" style="visibility: inherit;" fill="rgb(0, 0, 0)" stroke="rgb(204, 204, 204)" stroke-width="1px"></line><line x1="255.3686663309733" y1="0" x2="255.3686663309733" y2="5" style="visibility: inherit;" fill="rgb(0, 0, 0)" stroke="rgb(204, 204, 204)" stroke-width="1px"></line><line x1="278.58399963378906" y1="0" x2="278.58399963378906" y2="5" style="visibility: inherit;" fill="rgb(0, 0, 0)" stroke="rgb(204, 204, 204)" stroke-width="1px"></line></g><g transform="translate(0, 8)"><text style="text-anchor: middle; visibility: hidden; font-family: &quot;Helvetica Neue&quot;, sans-serif; font-size: 12px; font-weight: 200;" x="0" y="0" dx="0em" dy="0.95em" fill="rgb(50, 49, 63)" stroke="none" stroke-width="1px">-10</text><text style="text-anchor: middle; visibility: inherit; font-family: &quot;Helvetica Neue&quot;, sans-serif; font-size: 12px; font-weight: 200;" x="23.215333302815754" y="0" dx="0em" dy="0.95em" fill="rgb(50, 49, 63)" stroke="none" stroke-width="1px">0</text><text style="text-anchor: middle; visibility: hidden; font-family: &quot;Helvetica Neue&quot;, sans-serif; font-size: 12px; font-weight: 200;" x="46.43066660563151" y="0" dx="0em" dy="0.95em" fill="rgb(50, 49, 63)" stroke="none" stroke-width="1px">10</text><text style="text-anchor: middle; visibility: inherit; font-family: &quot;Helvetica Neue&quot;, sans-serif; font-size: 12px; font-weight: 200;" x="69.64599990844727" y="0" dx="0em" dy="0.95em" fill="rgb(50, 49, 63)" stroke="none" stroke-width="1px">20</text><text style="text-anchor: middle; visibility: hidden; font-family: &quot;Helvetica Neue&quot;, sans-serif; font-size: 12px; font-weight: 200;" x="92.86133321126302" y="0" dx="0em" dy="0.95em" fill="rgb(50, 49, 63)" stroke="none" stroke-width="1px">30</text><text style="text-anchor: middle; visibility: inherit; font-family: &quot;Helvetica Neue&quot;, sans-serif; font-size: 12px; font-weight: 200;" x="116.07666651407878" y="0" dx="0em" dy="0.95em" fill="rgb(50, 49, 63)" stroke="none" stroke-width="1px">40</text><text style="text-anchor: middle; visibility: hidden; font-family: &quot;Helvetica Neue&quot;, sans-serif; font-size: 12px; font-weight: 200;" x="139.29199981689453" y="0" dx="0em" dy="0.95em" fill="rgb(50, 49, 63)" stroke="none" stroke-width="1px">50</text><text style="text-anchor: middle; visibility: inherit; font-family: &quot;Helvetica Neue&quot;, sans-serif; font-size: 12px; font-weight: 200;" x="162.5073331197103" y="0" dx="0em" dy="0.95em" fill="rgb(50, 49, 63)" stroke="none" stroke-width="1px">60</text><text style="text-anchor: middle; visibility: hidden; font-family: &quot;Helvetica Neue&quot;, sans-serif; font-size: 12px; font-weight: 200;" x="185.72266642252603" y="0" dx="0em" dy="0.95em" fill="rgb(50, 49, 63)" stroke="none" stroke-width="1px">70</text><text style="text-anchor: middle; visibility: inherit; font-family: &quot;Helvetica Neue&quot;, sans-serif; font-size: 12px; font-weight: 200;" x="208.9379997253418" y="0" dx="0em" dy="0.95em" fill="rgb(50, 49, 63)" stroke="none" stroke-width="1px">80</text><text style="text-anchor: middle; visibility: hidden; font-family: &quot;Helvetica Neue&quot;, sans-serif; font-size: 12px; font-weight: 200;" x="232.15333302815756" y="0" dx="0em" dy="0.95em" fill="rgb(50, 49, 63)" stroke="none" stroke-width="1px">90</text><text style="text-anchor: middle; visibility: inherit; font-family: &quot;Helvetica Neue&quot;, sans-serif; font-size: 12px; font-weight: 200;" x="255.3686663309733" y="0" dx="0em" dy="0.95em" fill="rgb(50, 49, 63)" stroke="none" stroke-width="1px">100</text><text style="text-anchor: middle; visibility: hidden; font-family: &quot;Helvetica Neue&quot;, sans-serif; font-size: 12px; font-weight: 200;" x="278.58399963378906" y="0" dx="0em" dy="0.95em" fill="rgb(50, 49, 63)" stroke="none" stroke-width="1px">110</text></g><line x1="0" y1="0" x2="278.58399963378906" y2="0" fill="rgb(0, 0, 0)" stroke="rgb(204, 204, 204)" stroke-width="1px"></line></g></g></g></g></svg>